# This file uses centimeters as units for non-parametric coordinates.

g default
v -0.870888 0.217525 0.310215
v 0.834158 0.217525 0.310215
v -0.870888 0.245257 0.310215
v 0.834158 0.245257 0.310215
v -0.870888 0.389531 0.062267
v 0.834158 0.389531 0.062267
v -0.870888 -0.005136 0.310215
v 0.834158 -0.005136 0.310215
v -0.870888 0.022597 0.310215
v 0.834158 0.022597 0.310215
v -0.870888 0.166871 0.062267
v 0.834158 0.166871 0.062267
v -0.904488 0.228663 0.315466
v -0.535480 0.428704 0.315466
v -1.336134 0.337789 0.000000
v -0.791025 0.633294 0.000000
v -0.535480 -0.428703 0.315466
v -0.904488 -0.228662 0.315466
v -0.791025 -0.633293 0.000000
v -1.336134 -0.337787 0.000000
v -0.509493 -0.365965 0.315466
v -0.836796 -0.200622 0.315466
v -0.509493 0.365967 0.315466
v -0.836796 0.200624 0.315466
v -0.509493 -0.365965 0.132713
v -0.836796 -0.200622 0.132713
v -0.509493 0.365967 0.132713
v -0.836796 0.200624 0.132713
v -0.742313 -0.295103 0.315466
v 0.000000 -0.389585 0.315466
v 0.000000 0.389587 0.315466
v -0.742313 0.295106 0.315466
v 0.000000 0.457281 0.315466
v 0.000000 0.675508 0.000000
v 0.000000 -0.675508 0.000000
v 0.000000 -0.457280 0.315466
v -0.742313 -0.295103 0.132713
v 0.000000 -0.389585 0.132713
v 0.000000 0.389587 0.132713
v -0.742313 0.295106 0.132713
v -0.790178 0.342973 0.315466
v -1.167274 0.506649 0.000000
v -0.790178 -0.342971 0.315466
v -1.167274 -0.506647 0.000000
v 0.000000 0.000001 0.132713
v 0.791025 0.633294 0.000000
v 0.535480 0.428704 0.315466
v 0.535480 -0.428703 0.315466
v 0.791025 -0.633293 0.000000
v 0.904488 -0.228662 0.315466
v 0.904488 0.228663 0.315466
v 1.336134 0.337789 0.000000
v 1.336134 -0.337787 0.000000
v 0.836796 0.200624 0.132713
v 0.742313 0.295106 0.132713
v 0.509493 -0.365965 0.132713
v 0.742313 -0.295103 0.132713
v 0.509493 0.365967 0.132713
v 0.790178 0.342973 0.315466
v 1.167274 0.506649 0.000000
v 0.790178 -0.342971 0.315466
v 1.167274 -0.506647 0.000000
v 0.742313 -0.295103 0.315466
v 0.836796 -0.200622 0.315466
v 0.509493 -0.365965 0.315466
v 0.509493 0.365967 0.315466
v 0.742313 0.295106 0.315466
v 0.836796 0.200624 0.315466
v 0.836796 -0.200622 0.132713
v -0.870888 -0.116466 0.310215
v 0.834158 -0.116466 0.310215
v -0.870888 -0.088733 0.310215
v 0.834158 -0.088733 0.310215
v -0.870888 0.055541 0.062267
v 0.834158 0.055541 0.062267
v -0.870888 0.106194 0.310215
v 0.834158 0.106194 0.310215
v -0.870888 0.133927 0.310215
v 0.834158 0.133927 0.310215
v -0.870888 0.278201 0.062267
v 0.834158 0.278201 0.062267
v -0.870888 -0.227796 0.310215
v 0.834158 -0.227796 0.310215
v -0.870888 -0.200063 0.310215
v 0.834158 -0.200063 0.310215
v -0.870888 -0.055789 0.062267
v 0.834158 -0.055789 0.062267
v -0.759403 -0.339126 0.310215
v 0.752434 -0.339126 0.310215
v -0.759403 -0.311393 0.310215
v 0.752434 -0.311393 0.310215
v -0.893999 -0.167119 0.062267
v 0.887489 -0.167119 0.062267
vt 0.464981 0.048701
vt 0.002607 0.048701
vt 0.002607 0.041181
vt 0.464981 0.041181
vt 0.455217 0.040439
vt 0.012683 0.040439
vt 0.012683 0.002994
vt 0.455217 0.002994
vt 0.464981 0.048701
vt 0.002607 0.048701
vt 0.002607 0.041181
vt 0.464981 0.041181
vt 0.455217 0.040439
vt 0.012683 0.040439
vt 0.012683 0.002994
vt 0.455217 0.002994
vt 0.260010 0.372650
vt 0.260009 0.320480
vt 0.449113 0.330572
vt 0.388022 0.379482
vt 0.260009 0.643456
vt 0.260010 0.591286
vt 0.388022 0.584455
vt 0.449113 0.633364
vt 0.476237 0.536632
vt 0.476237 0.427304
vt 0.579427 0.401216
vt 0.579427 0.562720
vt 0.452670 0.435895
vt 0.266896 0.480435
vt 0.431694 0.414919
vt 0.380007 0.561682
vt 0.266896 0.566926
vt 0.431694 0.545950
vt 0.380006 0.399187
vt 0.266896 0.393944
vt 0.448910 0.399977
vt 0.539059 0.360848
vt 0.448910 0.563959
vt 0.539059 0.603088
vt 0.437467 0.552516
vt 0.460055 0.529929
vt 0.381809 0.569456
vt 0.260010 0.575103
vt 0.381809 0.394480
vt 0.260010 0.388833
vt 0.437467 0.411420
vt 0.460055 0.434007
vt 0.705876 0.045855
vt 0.683672 0.045855
vt 0.683672 0.002906
vt 0.705876 0.002906
vt 0.628957 0.045855
vt 0.628957 0.002906
vt 0.509222 0.045855
vt 0.509222 0.002907
vt 0.996826 0.045855
vt 0.877091 0.045855
vt 0.877091 0.002906
vt 0.996826 0.002906
vt 0.822376 0.045855
vt 0.822376 0.002906
vt 0.800172 0.045855
vt 0.800172 0.002906
vt 0.452670 0.524974
vt 0.260010 0.372650
vt 0.388022 0.379482
vt 0.449113 0.330572
vt 0.260009 0.320480
vt 0.260009 0.643456
vt 0.449113 0.633364
vt 0.388022 0.584455
vt 0.260010 0.591286
vt 0.476237 0.536632
vt 0.579427 0.562720
vt 0.579427 0.401216
vt 0.476237 0.427304
vt 0.452670 0.435895
vt 0.431694 0.414919
vt 0.266896 0.480435
vt 0.380007 0.561682
vt 0.431694 0.545950
vt 0.266896 0.566926
vt 0.380006 0.399187
vt 0.266896 0.393944
vt 0.539059 0.360848
vt 0.448910 0.399977
vt 0.539059 0.603088
vt 0.448910 0.563959
vt 0.460055 0.529929
vt 0.437467 0.552516
vt 0.381809 0.569456
vt 0.260010 0.575103
vt 0.260010 0.388833
vt 0.381809 0.394480
vt 0.437467 0.411420
vt 0.460055 0.434007
vt 0.705876 0.045855
vt 0.705876 0.002906
vt 0.683672 0.002906
vt 0.683672 0.045855
vt 0.628957 0.002906
vt 0.628957 0.045855
vt 0.509222 0.002907
vt 0.509222 0.045855
vt 0.996826 0.045855
vt 0.996826 0.002906
vt 0.877091 0.002906
vt 0.877091 0.045855
vt 0.822376 0.002906
vt 0.822376 0.045855
vt 0.800172 0.002906
vt 0.800172 0.045855
vt 0.452670 0.524974
vt 0.464981 0.048701
vt 0.002607 0.048701
vt 0.002607 0.041181
vt 0.464981 0.041181
vt 0.455217 0.040439
vt 0.012683 0.040439
vt 0.012683 0.002994
vt 0.455217 0.002994
vt 0.464981 0.048701
vt 0.002607 0.048701
vt 0.002607 0.041181
vt 0.464981 0.041181
vt 0.455217 0.040439
vt 0.012683 0.040439
vt 0.012683 0.002994
vt 0.455217 0.002994
vt 0.464981 0.048701
vt 0.002607 0.048701
vt 0.002607 0.041181
vt 0.464981 0.041181
vt 0.455217 0.040439
vt 0.012683 0.040439
vt 0.012683 0.002994
vt 0.455217 0.002994
vt 0.438784 0.048702
vt 0.028804 0.048702
vt 0.028804 0.041181
vt 0.438784 0.041181
vt 0.430204 0.040439
vt 0.037815 0.040439
vt 0.002762 0.002994
vt 0.465137 0.002994
vn 0.000000 0.000000 1.000000
vn 0.000000 0.000000 1.000000
vn 0.000000 0.000000 1.000000
vn 0.000000 0.000000 1.000000
vn 0.000000 0.864328 0.502928
vn 0.000000 0.864328 0.502928
vn 0.000000 0.864328 0.502928
vn 0.000000 0.864328 0.502928
vn 0.000000 0.000000 1.000000
vn 0.000000 0.000000 1.000000
vn 0.000000 0.000000 1.000000
vn 0.000000 0.000000 1.000000
vn 0.000000 0.864328 0.502928
vn 0.000000 0.864328 0.502928
vn 0.000000 0.864328 0.502928
vn 0.000000 0.864328 0.502928
vn 0.000000 0.822402 0.568907
vn 0.000000 0.822402 0.568907
vn -0.146690 0.771456 0.619143
vn -0.089626 0.800920 0.592025
vn 0.000000 -0.822402 0.568907
vn 0.000000 -0.822402 0.568907
vn -0.089628 -0.800919 0.592026
vn -0.146693 -0.771455 0.619143
vn -0.564789 -0.124362 0.815811
vn -0.564789 0.124362 0.815811
vn -0.570880 0.098297 0.815128
vn -0.570880 -0.098297 0.815128
vn 0.000001 0.000000 1.000000
vn 0.000000 0.000000 1.000000
vn 0.000000 0.000000 1.000000
vn -0.000006 0.000000 1.000000
vn -0.000001 0.000000 1.000000
vn 0.000000 0.000000 1.000000
vn -0.000003 0.000000 1.000000
vn -0.000004 0.000000 1.000000
vn 0.000000 0.000000 1.000000
vn 0.000000 0.000000 1.000000
vn 0.000001 0.000000 1.000000
vn -0.570880 0.098297 0.815128
vn -0.564789 0.124362 0.815811
vn -0.305585 0.645336 0.700113
vn -0.368772 0.568208 0.735627
vn -0.305585 0.645336 0.700113
vn -0.089626 0.800920 0.592025
vn -0.146690 0.771456 0.619143
vn -0.368772 0.568208 0.735627
vn -0.146693 -0.771455 0.619143
vn -0.089628 -0.800919 0.592026
vn -0.305589 -0.645335 0.700113
vn -0.368773 -0.568208 0.735627
vn -0.305589 -0.645335 0.700113
vn -0.564789 -0.124362 0.815811
vn -0.570880 -0.098297 0.815128
vn -0.368773 -0.568208 0.735627
vn 0.000009 0.000000 1.000000
vn 0.000003 0.000000 1.000000
vn 0.000002 0.000000 1.000000
vn 0.000009 0.000000 1.000000
vn 0.000003 0.000000 1.000000
vn -0.000002 0.000000 1.000000
vn -0.000003 0.000000 1.000000
vn 0.000002 0.000000 1.000000
vn -0.000003 0.000000 1.000000
vn -0.000002 0.000000 1.000000
vn -0.000003 0.000000 1.000000
vn -0.000003 0.000000 1.000000
vn 0.000000 0.000000 1.000000
vn 0.000000 0.000000 1.000000
vn 0.000000 0.000000 1.000000
vn 0.000000 0.000000 1.000000
vn 0.000000 0.000000 1.000000
vn 0.000000 0.000000 1.000000
vn 0.000000 0.000000 1.000000
vn 0.000000 0.000000 1.000000
vn 0.000000 0.000000 1.000000
vn 0.000008 0.000000 1.000000
vn 0.000008 0.000000 1.000000
vn 0.000000 0.000000 1.000000
vn 0.000008 0.000000 1.000000
vn 0.000009 0.000000 1.000000
vn 0.000009 0.000000 1.000000
vn 0.000008 0.000000 1.000000
vn 0.982317 0.187226 0.000000
vn 0.450900 0.892575 0.000000
vn 0.450900 0.892575 0.000000
vn 0.982317 0.187226 0.000000
vn 0.450900 0.892575 0.000000
vn 0.126263 0.991997 0.000000
vn 0.126263 0.991997 0.000000
vn 0.450900 0.892575 0.000000
vn 0.126263 0.991997 0.000000
vn 0.126263 0.991997 0.000000
vn 0.000000 1.000000 0.000000
vn 0.000000 1.000000 0.000000
vn 0.000000 -1.000000 0.000000
vn 0.126262 -0.991997 0.000000
vn 0.126262 -0.991997 0.000000
vn 0.000000 -1.000000 0.000000
vn 0.126262 -0.991997 0.000000
vn 0.126262 -0.991997 0.000000
vn 0.450901 -0.892574 0.000000
vn 0.450901 -0.892574 0.000000
vn 0.450901 -0.892574 0.000000
vn 0.982317 -0.187225 0.000000
vn 0.982317 -0.187225 0.000000
vn 0.450901 -0.892574 0.000000
vn 0.982317 -0.187225 0.000000
vn 0.982317 0.187226 0.000000
vn 0.982317 0.187226 0.000000
vn 0.982317 -0.187225 0.000000
vn 0.000000 0.000000 1.000000
vn -0.000003 0.000000 1.000000
vn 0.000000 0.000000 1.000000
vn 0.000000 0.000000 1.000000
vn 0.000000 0.000000 1.000000
vn 0.000001 0.000000 1.000000
vn 0.000000 0.822402 0.568907
vn 0.089626 0.800920 0.592025
vn 0.146690 0.771456 0.619143
vn 0.000000 0.822402 0.568907
vn 0.000000 -0.822402 0.568907
vn 0.146691 -0.771455 0.619143
vn 0.089627 -0.800920 0.592026
vn 0.000000 -0.822402 0.568907
vn 0.564789 -0.124362 0.815811
vn 0.570880 -0.098297 0.815128
vn 0.570880 0.098297 0.815128
vn 0.564789 0.124362 0.815811
vn 0.000000 0.000000 1.000000
vn 0.000003 0.000000 1.000000
vn 0.000000 0.000000 1.000000
vn 0.000004 0.000000 1.000000
vn 0.000000 0.000000 1.000000
vn 0.000000 0.000000 1.000000
vn -0.000001 0.000000 1.000000
vn 0.000006 0.000000 1.000000
vn 0.000001 0.000000 1.000000
vn 0.000000 0.000000 1.000000
vn 0.000003 0.000000 1.000000
vn 0.570880 0.098297 0.815128
vn 0.368771 0.568208 0.735627
vn 0.305585 0.645336 0.700113
vn 0.564789 0.124362 0.815811
vn 0.305585 0.645336 0.700113
vn 0.368771 0.568208 0.735627
vn 0.146690 0.771456 0.619143
vn 0.089626 0.800920 0.592025
vn 0.146691 -0.771455 0.619143
vn 0.368772 -0.568208 0.735627
vn 0.305586 -0.645335 0.700114
vn 0.089627 -0.800920 0.592026
vn 0.305586 -0.645335 0.700114
vn 0.368772 -0.568208 0.735627
vn 0.570880 -0.098297 0.815128
vn 0.564789 -0.124362 0.815811
vn -0.000006 0.000000 1.000000
vn -0.000006 0.000000 1.000000
vn -0.000008 0.000000 1.000000
vn -0.000011 0.000000 1.000000
vn -0.000011 0.000000 1.000000
vn -0.000008 0.000000 1.000000
vn -0.000003 0.000000 1.000000
vn -0.000002 0.000000 1.000000
vn -0.000003 0.000000 1.000000
vn -0.000003 0.000000 1.000000
vn -0.000003 0.000000 1.000000
vn -0.000002 0.000000 1.000000
vn 0.000000 0.000000 1.000000
vn 0.000000 0.000000 1.000000
vn 0.000000 0.000000 1.000000
vn 0.000000 0.000000 1.000000
vn 0.000000 0.000000 1.000000
vn 0.000000 0.000000 1.000000
vn 0.000000 0.000000 1.000000
vn 0.000000 0.000000 1.000000
vn 0.000000 0.000000 1.000000
vn 0.000000 0.000000 1.000000
vn 0.000000 0.000000 1.000000
vn 0.000000 0.000000 1.000000
vn 0.000000 0.000000 1.000000
vn 0.000000 0.000000 1.000000
vn -0.000006 0.000000 1.000000
vn -0.000006 0.000000 1.000000
vn -0.982317 0.187226 0.000000
vn -0.982317 0.187226 0.000000
vn -0.450900 0.892575 0.000000
vn -0.450900 0.892575 0.000000
vn -0.450900 0.892575 0.000000
vn -0.450900 0.892575 0.000000
vn -0.126263 0.991997 0.000000
vn -0.126263 0.991997 0.000000
vn -0.126263 0.991997 0.000000
vn 0.000000 1.000000 0.000000
vn 0.000000 1.000000 0.000000
vn -0.126263 0.991997 0.000000
vn 0.000000 -1.000000 0.000000
vn 0.000000 -1.000000 0.000000
vn -0.126262 -0.991997 0.000000
vn -0.126262 -0.991997 0.000000
vn -0.126262 -0.991997 0.000000
vn -0.450901 -0.892574 0.000000
vn -0.450901 -0.892574 0.000000
vn -0.126262 -0.991997 0.000000
vn -0.450901 -0.892574 0.000000
vn -0.450901 -0.892574 0.000000
vn -0.982317 -0.187225 0.000000
vn -0.982317 -0.187225 0.000000
vn -0.982317 -0.187225 0.000000
vn -0.982317 -0.187225 0.000000
vn -0.982317 0.187226 0.000000
vn -0.982317 0.187226 0.000000
vn -0.000001 0.000000 1.000000
vn 0.000000 0.000000 1.000000
vn 0.000000 0.000000 1.000000
vn -0.000001 0.000000 1.000000
vn 0.000000 0.000000 1.000000
vn 0.000000 0.000000 1.000000
vn 0.000000 0.000000 1.000000
vn 0.000000 0.000000 1.000000
vn 0.000000 0.000000 1.000000
vn 0.000000 0.000000 1.000000
vn 0.000000 0.864328 0.502928
vn 0.000000 0.864328 0.502928
vn 0.000000 0.864328 0.502928
vn 0.000000 0.864328 0.502928
vn 0.000000 0.000000 1.000000
vn 0.000000 0.000000 1.000000
vn 0.000000 0.000000 1.000000
vn 0.000000 0.000000 1.000000
vn 0.000000 0.864328 0.502928
vn 0.000000 0.864328 0.502928
vn 0.000000 0.864328 0.502928
vn 0.000000 0.864328 0.502928
vn 0.000000 0.000000 1.000000
vn 0.000000 0.000000 1.000000
vn 0.000000 0.000000 1.000000
vn 0.000000 0.000000 1.000000
vn 0.000000 0.864328 0.502928
vn 0.000000 0.864328 0.502928
vn 0.000000 0.864328 0.502928
vn 0.000000 0.864328 0.502928
vn 0.000000 0.000000 1.000000
vn 0.000000 0.000000 1.000000
vn 0.000000 0.000000 1.000000
vn 0.000000 0.000000 1.000000
vn 0.000000 0.864328 0.502928
vn 0.000000 0.864328 0.502928
vn 0.000000 0.864328 0.502928
vn 0.000000 0.864328 0.502928
s off
g Vent_Med
f 1/1/1 2/2/2 4/3/3 3/4/4
f 3/5/5 4/6/6 6/7/7 5/8/8
f 7/9/9 8/10/10 10/11/11 9/12/12
f 9/13/13 10/14/14 12/15/15 11/16/16
f 33/17/17 34/18/18 16/19/19 14/20/20
f 35/21/21 36/22/22 17/23/23 19/24/24
f 18/25/25 13/26/26 15/27/27 20/28/28
f 28/29/29 45/30/30 40/31/31
f 25/32/32 38/33/33 45/30/34 37/34/35
f 27/35/36 40/31/37 45/30/38 39/36/39
f 15/27/40 13/26/41 41/37/42 42/38/43
f 41/37/44 14/20/45 16/19/46 42/38/47
f 19/24/48 17/23/49 43/39/50 44/40/51
f 43/39/52 18/25/53 20/28/54 44/40/55
f 18/25/56 43/39/57 29/41/58 22/42/59
f 43/39/60 17/23/61 21/43/62 29/41/63
f 21/43/64 17/23/65 36/22/66 30/44/67
f 33/17/68 14/20/69 23/45/70 31/46/71
f 23/45/72 14/20/73 41/37/74 32/47/75
f 41/37/76 13/26/77 24/48/78 32/47/79
f 13/26/80 18/25/81 22/42/82 24/48/83
f 22/49/84 29/50/85 37/51/86 26/52/87
f 29/50/88 21/53/89 25/54/90 37/51/91
f 25/54/92 21/53/93 30/55/94 38/56/95
f 31/57/96 23/58/97 27/59/98 39/60/99
f 27/59/100 23/58/101 32/61/102 40/62/103
f 32/61/104 24/63/105 28/64/106 40/62/107
f 24/63/108 22/49/109 26/52/110 28/64/111
f 26/65/112 37/34/113 45/30/114
f 26/65/115 45/30/116 28/29/117
f 33/66/118 47/67/119 46/68/120 34/69/121
f 35/70/122 49/71/123 48/72/124 36/73/125
f 50/74/126 53/75/127 52/76/128 51/77/129
f 54/78/130 55/79/131 45/80/132
f 56/81/133 57/82/134 45/80/135 38/83/136
f 58/84/137 39/85/138 45/80/139 55/79/140
f 52/76/141 60/86/142 59/87/143 51/77/144
f 59/87/145 60/86/146 46/68/147 47/67/148
f 49/71/149 62/88/150 61/89/151 48/72/152
f 61/89/153 62/88/154 53/75/155 50/74/156
f 50/74/157 64/90/158 63/91/159 61/89/160
f 61/89/161 63/91/162 65/92/163 48/72/164
f 65/92/165 30/93/166 36/73/167 48/72/168
f 33/66/169 31/94/170 66/95/171 47/67/172
f 66/95/173 67/96/174 59/87/175 47/67/176
f 59/87/177 67/96/178 68/97/179 51/77/180
f 51/77/181 68/97/182 64/90/183 50/74/184
f 64/98/185 69/99/186 57/100/187 63/101/188
f 63/101/189 57/100/190 56/102/191 65/103/192
f 56/102/193 38/104/194 30/105/195 65/103/196
f 31/106/197 39/107/198 58/108/199 66/109/200
f 58/108/201 55/110/202 67/111/203 66/109/204
f 67/111/205 55/110/206 54/112/207 68/113/208
f 68/113/209 54/112/210 69/99/211 64/98/212
f 69/114/213 45/80/214 57/82/215
f 69/114/216 54/78/217 45/80/218
f 70/115/219 71/116/220 73/117/221 72/118/222
f 72/119/223 73/120/224 75/121/225 74/122/226
f 76/123/227 77/124/228 79/125/229 78/126/230
f 78/127/231 79/128/232 81/129/233 80/130/234
f 82/131/235 83/132/236 85/133/237 84/134/238
f 84/135/239 85/136/240 87/137/241 86/138/242
f 88/139/243 89/140/244 91/141/245 90/142/246
f 90/143/247 91/144/248 93/145/249 92/146/250
