# This file uses centimeters as units for non-parametric coordinates.

g default
v -2.627304 1.848903 3.615879
v 0.498569 1.848903 3.569996
v 0.498947 1.848903 -0.046646
v 2.627304 1.848903 -0.000675
v 2.627304 1.848903 -3.615879
v -2.627304 1.848903 -3.615879
v -2.627304 0.798078 3.615879
v 0.498398 0.798078 3.570011
v 0.498947 0.798078 -0.046646
v 2.627304 0.798078 -0.000652
v 2.627304 0.798078 -3.615879
v -2.627304 0.798078 -3.615879
v -2.427303 -0.005334 3.412922
v -2.427303 0.666153 3.412922
v -2.427303 0.666157 -3.415878
v -2.427303 -0.005330 -3.415878
v 0.298096 -0.005286 3.372955
v 0.298439 0.666202 3.372925
v 0.298988 -0.005287 -0.251019
v 0.298988 0.666201 -0.251019
v 2.427303 -0.005337 -0.204971
v 2.427303 0.666150 -0.205021
v 2.427303 -0.005330 -3.415878
v 2.427303 0.666157 -3.415878
v -2.135975 1.848901 3.117287
v 0.000008 1.848941 3.078632
v 0.009380 1.848939 -0.546970
v 2.137705 1.848898 -0.500969
v 2.132330 1.848903 -3.120903
v -2.132330 1.848903 -3.120903
v -2.135969 1.213641 3.117275
v -0.000010 1.213681 3.078621
v 0.009350 1.213679 -0.546978
v 2.137701 1.213638 -0.500977
v 2.132332 1.213644 -3.120903
v -2.132330 1.213644 -3.120903
vt 3.023061 0.127273
vt 3.023062 0.225213
vt 2.027045 0.225214
vt 2.027045 0.127274
vt 3.420573 0.127271
vt 3.420626 0.225211
vt 0.011662 0.225288
vt 0.011648 0.127347
vt 0.540223 0.127301
vt 0.540231 0.225241
vt 0.850649 0.127273
vt 0.850656 0.225213
vt 1.318977 0.127274
vt 1.318976 0.225214
vt 0.352536 0.989184
vt 0.144275 0.989184
vt 0.144275 0.922938
vt 0.352525 0.922938
vt 0.368886 0.989184
vt 0.127927 0.989184
vt 0.127926 0.922938
vt 0.368886 0.922938
vt 0.177505 0.922938
vt 0.319307 0.922938
vt 0.319307 0.989184
vt 0.177505 0.989184
vt 0.368838 0.989184
vt 0.127975 0.989184
vt 0.127973 0.922938
vt 0.368838 0.922938
vt 0.073361 0.989184
vt 0.423450 0.989184
vt 0.423450 0.922938
vt 0.073361 0.922938
vt 0.489314 0.989184
vt 0.007498 0.989184
vt 0.007498 0.922938
vt 0.489314 0.922938
vt 1.012877 0.251371
vt 0.016861 0.251371
vt 0.044407 0.233202
vt 0.984925 0.233201
vt 1.006560 0.251371
vt 0.979416 0.233208
vt 0.749853 0.251367
vt 0.251738 0.251367
vt 0.278882 0.233204
vt 0.778001 0.233204
vt 0.514780 0.251371
vt 0.508445 0.251371
vt 0.480297 0.233207
vt 0.486632 0.233201
vt 0.016861 0.251371
vt 0.044407 0.233202
vt 0.643794 0.212309
vt 0.175757 0.212440
vt 0.249290 0.137768
vt 0.569127 0.138772
vt 0.879929 0.213004
vt 0.338468 0.212852
vt 0.263590 0.139529
vt 0.806394 0.138334
vt 0.744604 0.212231
vt 0.425886 0.212269
vt 0.500777 0.138960
vt 0.819491 0.138917
vt 0.825045 0.212645
vt 0.283799 0.212645
vt 0.357904 0.138541
vt 0.750144 0.139345
vt 0.948849 0.212645
vt 0.162162 0.212645
vt 0.236267 0.138541
vt 0.874745 0.138541
vt 1.096852 0.212645
vt 0.014159 0.212645
vt 0.088805 0.139086
vt 1.022748 0.138541
vt 0.334189 0.552649
vt 0.178159 0.552652
vt 0.178161 0.506247
vt 0.334189 0.506244
vt 0.484322 0.552650
vt 0.219478 0.552650
vt 0.219477 0.506245
vt 0.484321 0.506246
vt 0.429634 0.552652
vt 0.274163 0.552649
vt 0.274164 0.506244
vt 0.429636 0.506247
vt 0.351865 0.552650
vt 0.160483 0.552650
vt 0.160483 0.506246
vt 0.351865 0.506245
vt 0.341149 0.552650
vt 0.029623 0.552650
vt 0.029623 0.506245
vt 0.341149 0.506246
vt 0.484019 0.552650
vt 0.028330 0.552650
vt 0.028331 0.506245
vt 0.484019 0.506246
vt 0.940219 0.405544
vt 0.787409 0.405938
vt 0.789348 0.495642
vt 0.695327 0.495416
vt 0.695327 0.331293
vt 0.941847 0.331140
vn -1.000000 0.000000 0.000000
vn -1.000000 0.000000 0.000000
vn -1.000000 0.000000 0.000000
vn -1.000000 0.000000 0.000000
vn 0.014667 0.000019 0.999892
vn 0.014667 0.000019 0.999892
vn 0.014667 0.000019 0.999892
vn 0.014667 0.000019 0.999892
vn 1.000000 -0.000256 0.000199
vn 1.000000 -0.000256 0.000199
vn 1.000000 -0.000256 0.000199
vn 1.000000 -0.000256 0.000199
vn -0.021620 0.000037 0.999766
vn -0.021620 0.000037 0.999766
vn -0.021620 0.000037 0.999766
vn -0.021620 0.000037 0.999766
vn 1.000000 0.000000 0.000000
vn 1.000000 0.000000 0.000000
vn 1.000000 0.000000 0.000000
vn 1.000000 0.000000 0.000000
vn 0.000000 0.000000 -1.000000
vn 0.000000 0.000000 -1.000000
vn 0.000000 0.000000 -1.000000
vn 0.000000 0.000000 -1.000000
vn 0.014676 0.000006 0.999892
vn 0.014676 0.000006 0.999892
vn 0.014676 0.000006 0.999892
vn 0.014676 0.000006 0.999892
vn 1.000000 -0.000082 0.000128
vn 1.000000 -0.000082 0.000128
vn 1.000000 -0.000082 0.000128
vn 1.000000 -0.000082 0.000128
vn -0.021600 0.000011 0.999767
vn -0.021600 0.000011 0.999767
vn -0.021600 0.000011 0.999767
vn -0.021600 0.000011 0.999767
vn 1.000000 0.000000 0.000000
vn 1.000000 0.000000 0.000000
vn 1.000000 0.000000 0.000000
vn 1.000000 0.000000 0.000000
vn 0.000000 0.000000 -1.000000
vn 0.000000 0.000000 -1.000000
vn 0.000000 0.000000 -1.000000
vn 0.000000 0.000000 -1.000000
vn -1.000000 0.000000 0.000000
vn -1.000000 0.000000 0.000000
vn -1.000000 0.000000 0.000000
vn -1.000000 0.000000 0.000000
vn -0.550618 -0.834757 0.000000
vn -0.550618 -0.834757 0.000000
vn -0.550618 -0.834757 0.000000
vn -0.550618 -0.834757 0.000000
vn 0.008086 -0.834799 0.550495
vn 0.008086 -0.834799 0.550495
vn 0.008086 -0.834799 0.550495
vn 0.008086 -0.834799 0.550495
vn 0.550506 -0.834831 0.000084
vn 0.550506 -0.834831 0.000084
vn 0.550506 -0.834831 0.000084
vn 0.550506 -0.834831 0.000084
vn -0.011906 -0.834794 0.550434
vn -0.011906 -0.834794 0.550434
vn -0.011906 -0.834794 0.550434
vn -0.011906 -0.834794 0.550434
vn 0.550623 -0.834754 -0.000001
vn 0.550623 -0.834754 -0.000001
vn 0.550623 -0.834754 -0.000001
vn 0.550623 -0.834754 -0.000001
vn 0.000000 -0.834761 -0.550613
vn 0.000000 -0.834761 -0.550613
vn 0.000000 -0.834761 -0.550613
vn 0.000000 -0.834761 -0.550613
vn 0.000000 1.000000 0.000010
vn 0.000040 1.000000 0.000015
vn 0.000040 1.000000 0.000015
vn 0.000000 1.000000 0.000010
vn 0.000040 1.000000 0.000015
vn 0.000050 1.000000 0.000007
vn 0.000050 1.000000 0.000007
vn 0.000040 1.000000 0.000015
vn 0.000050 1.000000 0.000007
vn 0.000000 1.000000 0.000008
vn 0.000000 1.000000 0.000008
vn 0.000050 1.000000 0.000007
vn 0.000000 1.000000 0.000008
vn -0.000002 1.000000 -0.000001
vn -0.000002 1.000000 -0.000001
vn 0.000000 1.000000 0.000008
vn -0.000002 1.000000 -0.000001
vn 0.000002 1.000000 -0.000001
vn 0.000002 1.000000 -0.000001
vn -0.000002 1.000000 -0.000001
vn 0.000002 1.000000 -0.000001
vn 0.000000 1.000000 0.000010
vn 0.000000 1.000000 0.000010
vn 0.000002 1.000000 -0.000001
vn -0.018092 0.000018 -0.999836
vn -0.018092 0.000018 -0.999836
vn -0.018092 0.000018 -0.999836
vn -0.018092 0.000018 -0.999836
vn -0.999997 0.000037 -0.002583
vn -0.999997 0.000037 -0.002583
vn -0.999997 0.000037 -0.002583
vn -0.999997 0.000037 -0.002583
vn 0.021608 0.000011 -0.999767
vn 0.021608 0.000011 -0.999767
vn 0.021608 0.000011 -0.999767
vn 0.021608 0.000011 -0.999767
vn -0.999998 0.000002 0.002050
vn -0.999998 0.000002 0.002050
vn -0.999998 0.000002 0.002050
vn -0.999998 0.000002 0.002050
vn 0.000000 0.000000 1.000000
vn 0.000000 0.000000 1.000000
vn 0.000000 0.000000 1.000000
vn 0.000000 0.000000 1.000000
vn 1.000000 0.000003 0.000584
vn 1.000000 0.000003 0.000584
vn 1.000000 0.000003 0.000584
vn 1.000000 0.000003 0.000584
vn -0.000007 1.000000 -0.000003
vn -0.000007 1.000000 -0.000003
vn -0.000007 1.000000 -0.000003
vn -0.000007 1.000000 -0.000003
vn -0.000007 1.000000 -0.000003
vn -0.000007 1.000000 -0.000003
s off
g LondonBuilding_Prop01 London_Building_Meshes
f 13/1/1 14/2/2 15/3/3 16/4/4
f 14/2/5 13/1/6 17/5/7 18/6/8
f 18/7/9 17/8/10 19/9/11 20/10/12
f 20/10/13 19/9/14 21/11/15 22/12/16
f 22/12/17 21/11/18 23/13/19 24/14/20
f 24/14/21 23/13/22 16/4/23 15/3/24
f 2/15/25 1/16/26 7/17/27 8/18/28
f 3/19/29 2/20/30 8/21/31 9/22/32
f 9/23/33 10/24/34 4/25/35 3/26/36
f 5/27/37 4/28/38 10/29/39 11/30/40
f 6/31/41 5/32/42 11/33/43 12/34/44
f 1/35/45 6/36/46 12/37/47 7/38/48
f 7/39/49 12/40/50 15/41/51 14/42/52
f 8/43/53 7/39/54 14/42/55 18/44/56
f 9/45/57 8/46/58 18/47/59 20/48/60
f 10/49/61 9/50/62 20/51/63 22/52/64
f 11/53/65 10/49/66 22/52/67 24/54/68
f 12/40/69 11/53/70 24/54/71 15/41/72
f 1/55/73 2/56/74 26/57/75 25/58/76
f 2/59/77 3/60/78 27/61/79 26/62/80
f 3/63/81 4/64/82 28/65/83 27/66/84
f 4/67/85 5/68/86 29/69/87 28/70/88
f 5/71/89 6/72/90 30/73/91 29/74/92
f 6/75/93 1/76/94 25/77/95 30/78/96
f 25/79/97 26/80/98 32/81/99 31/82/100
f 26/83/101 27/84/102 33/85/103 32/86/104
f 27/87/105 28/88/106 34/89/107 33/90/108
f 28/91/109 29/92/110 35/93/111 34/94/112
f 29/95/113 30/96/114 36/97/115 35/98/116
f 30/99/117 25/100/118 31/101/119 36/102/120
s 1
f 32/103/121 33/104/122 36/107/123 31/108/124
f 36/107/123 33/104/122 34/105/125 35/106/126
