# This file uses centimeters as units for non-parametric coordinates.

mtllib Dice.mtl
g default
v 0 1.17057 0.974677
v 0 2.17057 0
v 0 1.17057 -0.974677
v 0 0.170574 0
v 0.993626 1.17057 0
v -0.993626 1.17057 0
v -0.839925 0.237334 0.839925
v -0.839925 0.330649 0.93324
v -0.93324 0.330649 0.839925
v 0 0.309455 0.956787
v 0 0.213787 0.861119
v 0.93324 0.330649 0.839925
v 0.839925 0.330649 0.93324
v 0.839925 0.237334 0.839925
v -0.93324 2.0105 0.839925
v -0.839925 2.0105 0.93324
v -0.839925 2.10381 0.839925
v 0 2.03169 0.956787
v 0 2.12736 0.861119
v 0.839925 2.10381 0.839925
v 0.839925 2.0105 0.93324
v 0.93324 2.0105 0.839925
v -0.93324 2.0105 -0.839925
v -0.839925 2.10381 -0.839925
v -0.839925 2.0105 -0.93324
v 0 2.12736 -0.861119
v 0 2.03169 -0.956787
v 0.839925 2.0105 -0.93324
v 0.839925 2.10381 -0.839925
v 0.93324 2.0105 -0.839925
v -0.93324 0.330649 -0.839925
v -0.839925 0.330649 -0.93324
v -0.839925 0.237334 -0.839925
v 0 0.309455 -0.956787
v 0 0.213787 -0.861119
v 0.839925 0.237334 -0.839925
v 0.839925 0.330649 -0.93324
v 0.93324 0.330649 -0.839925
v -0.85563 1.17057 0.950689
v -0.950689 1.17057 0.85563
v 0.85563 1.17057 0.950689
v 0.950689 1.17057 0.85563
v -0.877859 2.14596 0
v -0.975389 2.04843 0
v 0.877859 2.14596 0
v 0.975389 2.04843 0
v -0.85563 1.17057 -0.950689
v -0.950689 1.17057 -0.85563
v 0.85563 1.17057 -0.950689
v 0.950689 1.17057 -0.85563
v -0.877859 0.195185 0
v -0.975389 0.292714 0
v 0.877859 0.195185 0
v 0.975389 0.292714 0
vt 0.341429 0.688623
vt 0.363235 0.688194
vt 0.029768 0.015051
vt 0.033334 0.036364
vt 0.169983 0.006631
vt 0.041614 0.685328
vt 0.063357 0.686148
vt 0.034634 0.824257
vt 0.667945 0.360799
vt 0.301221 0.354425
vt 0.295962 0.494258
vt 0.949366 0.965743
vt 0.035148 0.310177
vt 0.627812 0.356682
vt 0.308826 0.308371
vt 0.975181 0.329278
vt 0.976555 0.189941
vt 0.305416 0.633250
vt 0.326660 0.629495
vt 0.649448 0.328346
vt 0.597408 0.632325
vt 0.631024 0.497267
vt 0.360648 0.966231
vt 0.367628 0.827302
vt 0.969852 0.051426
vt 0.948629 0.054999
vt 0.039027 0.963364
vt 0.678693 0.053215
vt 0.648928 0.188338
vt 0.170150 0.029044
vt 0.307012 0.034558
vt 0.313627 0.171440
vt 0.028533 0.173295
vt 0.171080 0.172367
vt 0.172010 0.315691
vt 0.031843 0.331221
vt 0.464344 0.350271
vt 0.605892 0.356596
vt 0.608266 0.495968
vt 0.318619 0.493380
vt 0.463585 0.491574
vt 0.461917 0.635814
vt 0.323257 0.650540
vt 0.812481 0.334402
vt 0.671318 0.328703
vt 0.671160 0.189516
vt 0.954436 0.190906
vt 0.812664 0.193240
vt 0.813777 0.049098
vt 0.952052 0.033972
vt 0.199869 0.967768
vt 0.060833 0.962935
vt 0.057282 0.824475
vt 0.344980 0.827083
vt 0.201131 0.825779
vt 0.202393 0.683791
vt 0.944947 0.359113
vt 0.948294 0.497452
vt 0.806408 0.353790
vt 0.946630 0.635822
vt 0.808166 0.642830
vt 0.666281 0.499168
vt 0.807287 0.498310
vt 0.329881 0.311588
vt 0.672458 0.688931
vt 0.810963 0.682814
vt 0.012279 0.033147
vt 0.951921 0.827387
vt 0.669903 0.827287
vt 0.810912 0.827337
vt 0.672359 0.965645
vt 0.810861 0.971860
vt 0.310317 0.013514
vt 0.618262 0.636613
vt 0.657801 0.049261
vt 0.312392 0.329684
vt 0.172177 0.338104
vt 0.323048 0.354617
vt 0.675688 0.031819
vt 0.813974 0.026684
vt 0.338905 0.965410
vt 0.600236 0.653749
vt 0.461637 0.658223
vt 0.953372 0.329535
vt 0.335907 0.171270
vt 0.669628 0.637507
vt 0.013832 0.313653
vt 0.006252 0.173465
vt 0.328328 0.031082
vt 0.949465 0.689030
vn -0.116253 -0.983733 0.136945
vn -0.984460 -0.109674 0.137150
vn -0.992804 -0.119750 0.000000
vn -0.125976 -0.992033 0.000000
vn -0.117333 -0.110546 0.986921
vn 0.000000 -0.989644 0.143541
vn 0.000000 -0.118553 0.992948
vn -0.124332 -0.000000 0.992241
vn -0.989709 -0.000000 0.143093
vn 0.116253 -0.983733 0.136945
vn 0.117333 -0.110546 0.986921
vn 0.984460 -0.109674 0.137150
vn 0.125976 -0.992033 0.000000
vn 0.992804 -0.119750 0.000000
vn 0.989709 0.000000 0.143093
vn 0.124332 0.000000 0.992241
vn -0.984460 0.109674 0.137150
vn -0.116253 0.983733 0.136945
vn -0.125976 0.992033 -0.000000
vn -0.992804 0.119750 -0.000000
vn -0.117333 0.110546 0.986921
vn 0.000000 0.118553 0.992948
vn 0.000000 0.989644 0.143541
vn 0.117333 0.110546 0.986921
vn 0.116253 0.983733 0.136945
vn 0.984460 0.109674 0.137150
vn 0.992804 0.119750 0.000000
vn 0.125976 0.992033 0.000000
vn -0.984460 0.109674 -0.137150
vn -0.117333 0.110546 -0.986921
vn -0.124332 0.000000 -0.992241
vn -0.989709 0.000000 -0.143093
vn -0.116253 0.983733 -0.136945
vn 0.000000 0.989644 -0.143541
vn 0.000000 0.118553 -0.992948
vn 0.116253 0.983733 -0.136945
vn 0.117333 0.110546 -0.986921
vn 0.984460 0.109674 -0.137150
vn 0.989709 -0.000000 -0.143093
vn 0.124332 -0.000000 -0.992241
vn -0.984460 -0.109674 -0.137150
vn -0.116253 -0.983733 -0.136945
vn -0.117333 -0.110546 -0.986921
vn 0.000000 -0.118553 -0.992948
vn 0.000000 -0.989644 -0.143541
vn 0.117333 -0.110546 -0.986921
vn 0.116253 -0.983733 -0.136945
vn 0.984460 -0.109674 -0.137150
vn 0.000000 -0.000000 1.000000
vn 0.000000 1.000000 -0.000000
vn 0.000000 0.000000 -1.000000
vn 0.000000 -1.000000 -0.000000
vn 1.000000 -0.000000 -0.000000
vn -1.000000 -0.000000 0.000000
s 1
g Dice
usemtl initialShadingGroup
f 7/1/1 9/2/2 52/24/3 51/54/4
f 8/4/5 7/3/1 11/5/6 10/30/7
f 9/67/2 8/4/5 39/33/8 40/88/9
f 10/30/7 11/5/6 14/73/10 13/31/11
f 12/6/12 14/7/10 53/53/13 54/8/14
f 13/31/11 12/89/12 42/85/15 41/32/16
f 15/10/17 17/78/18 43/40/19 44/11/20
f 16/13/21 15/87/17 40/88/9 39/33/8
f 17/36/18 16/13/21 18/35/22 19/77/23
f 19/77/23 18/35/22 21/15/24 20/76/25
f 20/38/25 22/14/26 46/22/27 45/39/28
f 22/64/26 21/15/24 41/32/16 42/85/15
f 23/16/29 25/84/30 47/47/31 48/17/32
f 24/19/33 23/18/29 44/11/20 43/40/19
f 25/43/30 24/19/33 26/42/34 27/83/35
f 27/83/35 26/42/34 29/21/36 28/82/37
f 28/45/37 30/20/38 50/29/39 49/46/40
f 30/74/38 29/21/36 45/39/28 46/22/27
f 31/23/41 33/81/42 51/54/4 52/24/3
f 32/26/43 31/25/41 48/17/32 47/47/31
f 33/50/42 32/26/43 34/49/44 35/80/45
f 35/80/45 34/49/44 37/28/46 36/79/47
f 36/52/47 38/27/48 54/8/14 53/53/13
f 38/75/48 37/28/46 49/46/40 50/29/39
f 8/4/5 10/30/7 1/34/49 39/33/8
f 10/30/7 13/31/11 41/32/16 1/34/49
f 39/33/8 1/34/49 18/35/22 16/13/21
f 1/34/49 41/32/16 21/15/24 18/35/22
f 17/78/18 19/37/23 2/41/50 43/40/19
f 19/37/23 20/38/25 45/39/28 2/41/50
f 43/40/19 2/41/50 26/42/34 24/19/33
f 2/41/50 45/39/28 29/21/36 26/42/34
f 25/84/30 27/44/35 3/48/51 47/47/31
f 27/44/35 28/45/37 49/46/40 3/48/51
f 47/47/31 3/48/51 34/49/44 32/26/43
f 3/48/51 49/46/40 37/28/46 34/49/44
f 33/81/42 35/51/45 4/55/52 51/54/4
f 35/51/45 36/52/47 53/53/13 4/55/52
f 51/54/4 4/55/52 11/56/6 7/1/1
f 4/55/52 53/53/13 14/7/10 11/56/6
f 54/59/14 38/57/48 50/58/39 5/63/53
f 12/9/12 54/59/14 5/63/53 42/62/15
f 5/63/53 50/58/39 30/60/38 46/61/27
f 42/62/15 5/63/53 46/61/27 22/86/26
f 31/65/41 52/66/3 6/70/54 48/69/32
f 52/66/3 9/90/2 40/68/9 6/70/54
f 48/69/32 6/70/54 44/72/20 23/71/29
f 6/70/54 40/68/9 15/12/17 44/72/20
f 7/3/1 8/4/5 9/67/2
f 12/89/12 13/31/11 14/73/10
f 15/87/17 16/13/21 17/36/18
f 20/76/25 21/15/24 22/64/26
f 23/18/29 24/19/33 25/43/30
f 28/82/37 29/21/36 30/74/38
f 31/25/41 32/26/43 33/50/42
f 36/79/47 37/28/46 38/75/48

