# This file uses centimeters as units for non-parametric coordinates.

g default
v -1.414718 3.971917 -0.271534
v -1.414718 0.000958 -0.271534
v -0.878686 4.418655 -0.271534
v -1.114717 0.300958 0.075569
v -1.114717 3.831414 0.075569
v -0.770061 4.118653 0.075569
v -1.414718 0.000958 0.241539
v -1.384721 0.030955 0.271534
v -1.414718 3.971917 0.241539
v -1.384721 3.957869 0.271534
v -0.878686 4.418655 0.241539
v -0.867825 4.388658 0.271534
v -1.144715 0.270961 0.271534
v -1.114717 0.300958 0.241539
v -1.144715 3.845463 0.271534
v -1.114717 3.831414 0.241539
v -0.780923 4.148651 0.271534
v -0.770061 4.118653 0.241539
v 0.000000 0.000958 -0.271534
v 0.000000 0.000958 0.241539
v 0.000000 0.030955 0.271534
v 0.000000 0.270961 0.271534
v 0.000000 0.300958 0.241539
v 0.000000 0.300958 0.075569
v 0.000001 3.831414 0.075569
v 0.000000 4.118653 0.075569
v 0.000000 4.118653 0.241539
v 0.000000 4.148651 0.271534
v 0.000000 4.388658 0.271534
v 0.000000 4.418655 0.241539
v 0.000000 4.418655 -0.271534
v 1.414718 3.971917 -0.271534
v 1.414718 0.000958 -0.271534
v 0.878686 4.418655 -0.271534
v 1.114718 0.300958 0.075569
v 1.114718 3.831414 0.075569
v 0.770062 4.118653 0.075569
v 1.414718 0.000958 0.241539
v 1.384721 0.030955 0.271534
v 1.414718 3.971917 0.241539
v 1.384721 3.957869 0.271534
v 0.878686 4.418655 0.241539
v 0.867826 4.388658 0.271534
v 1.144715 0.270961 0.271534
v 1.114718 0.300958 0.241539
v 1.144715 3.845463 0.271534
v 1.114718 3.831414 0.241539
v 0.780923 4.148651 0.271534
v 0.770062 4.118653 0.241539
vt 0.007606 0.990663
vt 0.007606 0.826049
vt 0.528961 0.826049
vt 0.528961 0.990663
vt 0.574594 0.826049
vt 0.574594 0.942982
vt 0.576106 0.040035
vt 0.576105 0.043911
vt 0.167358 0.043911
vt 0.167358 0.040035
vt 0.714395 0.040036
vt 0.714395 0.043913
vt 0.095595 0.043911
vt 0.095595 0.040035
vt 0.003089 0.043911
vt 0.003089 0.040035
vt 0.298808 0.105263
vt 0.298808 0.111600
vt 0.070549 0.111600
vt 0.070549 0.105263
vt 0.386287 0.105264
vt 0.386287 0.111601
vt 0.044127 0.111600
vt 0.044127 0.105263
vt 0.002582 0.111600
vt 0.002582 0.105263
vt 0.003089 0.001216
vt 0.095595 0.001216
vt 0.576106 0.001216
vt 0.714396 0.001218
vt 0.167358 0.001216
vt 0.979510 0.044037
vt 1.184363 0.044036
vt 1.184362 0.101694
vt 0.979510 0.101694
vt 0.133201 0.044037
vt 0.979510 0.044037
vt 0.979510 0.101694
vt 0.133201 0.101694
vt -0.191271 0.101694
vt -0.191271 0.044037
vt 0.007083 0.044037
vt 0.007083 0.101694
vt 0.007083 0.044037
vt 0.133201 0.044037
vt 0.133201 0.101694
vt 0.007083 0.101694
vt 0.386286 0.134381
vt 0.298808 0.134380
vt 0.070549 0.134380
vt 0.002582 0.134380
vt 0.044128 0.134380
vt 0.007606 0.990663
vt 0.528961 0.990663
vt 0.528961 0.826049
vt 0.007606 0.826049
vt 0.574594 0.942982
vt 0.574594 0.826049
vt 0.576106 0.040035
vt 0.167358 0.040035
vt 0.167358 0.043911
vt 0.576105 0.043911
vt 0.714395 0.043913
vt 0.714395 0.040036
vt 0.095595 0.040035
vt 0.095595 0.043911
vt 0.003089 0.040035
vt 0.003089 0.043911
vt 0.298808 0.105263
vt 0.070549 0.105263
vt 0.070549 0.111600
vt 0.298808 0.111600
vt 0.386287 0.111601
vt 0.386287 0.105264
vt 0.044127 0.105263
vt 0.044127 0.111600
vt 0.002582 0.111600
vt 0.002582 0.105263
vt 0.095595 0.001216
vt 0.003089 0.001216
vt 0.576106 0.001216
vt 0.714396 0.001218
vt 0.167358 0.001216
vt 0.979510 0.044037
vt 0.979510 0.101694
vt 1.184362 0.101694
vt 1.184363 0.044036
vt 0.133201 0.044037
vt 0.133201 0.101694
vt 0.979510 0.101694
vt 0.979510 0.044037
vt -0.191271 0.101694
vt 0.007083 0.101694
vt 0.007083 0.044037
vt -0.191271 0.044037
vt 0.007083 0.044037
vt 0.007083 0.101694
vt 0.133201 0.101694
vt 0.133201 0.044037
vt 0.298808 0.134380
vt 0.386286 0.134381
vt 0.070549 0.134380
vt 0.002582 0.134380
vt 0.044128 0.134380
vn 0.000000 0.000000 1.000000
vn 0.000000 0.000000 1.000000
vn 0.000000 0.000000 1.000000
vn 0.000000 0.000000 1.000000
vn 0.000000 0.000000 1.000000
vn 0.000000 0.000000 1.000000
vn 0.000000 0.000000 1.000000
vn 0.000000 0.000000 1.000000
vn -0.707079 0.000000 0.707135
vn -0.707079 0.000000 0.707135
vn -0.707079 0.000000 0.707135
vn -0.707079 0.000000 0.707135
vn 0.000000 -0.707084 0.707129
vn 0.000000 -0.707084 0.707129
vn 0.000000 -0.707084 0.707129
vn 0.000000 -0.707084 0.707129
vn -0.452687 0.543170 0.707135
vn -0.452687 0.543170 0.707135
vn -0.452687 0.543170 0.707135
vn -0.452687 0.543170 0.707135
vn 0.000000 0.707086 0.707128
vn 0.000000 0.707086 0.707128
vn 0.000000 0.707085 0.707128
vn 0.000000 0.707085 0.707128
vn 0.707095 0.000000 0.707118
vn 0.707095 0.000000 0.707118
vn 0.707095 0.000000 0.707118
vn 0.707095 0.000000 0.707118
vn 0.000000 0.707084 0.707129
vn 0.000000 0.707084 0.707129
vn 0.000000 0.707084 0.707129
vn 0.000000 0.707084 0.707129
vn 0.452684 -0.543175 0.707133
vn 0.452684 -0.543175 0.707133
vn 0.452684 -0.543175 0.707133
vn 0.452684 -0.543175 0.707133
vn 0.000000 -0.707071 0.707143
vn 0.000000 -0.707071 0.707143
vn 0.000000 -0.707071 0.707143
vn 0.000000 -0.707071 0.707143
vn 0.000000 1.000000 0.000000
vn 0.000000 1.000000 0.000000
vn 0.000000 1.000000 0.000000
vn 0.000000 1.000000 0.000000
vn 0.000000 -1.000000 0.000000
vn 0.000000 -1.000000 0.000000
vn 0.000000 -1.000000 0.000000
vn 0.000000 -1.000000 0.000000
vn -1.000000 0.000000 0.000000
vn -1.000000 0.000000 0.000000
vn -1.000000 0.000000 0.000000
vn -1.000000 0.000000 0.000000
vn -0.640222 0.768190 0.000000
vn -0.640222 0.768190 0.000000
vn -0.640222 0.768190 0.000000
vn -0.640222 0.768190 0.000000
vn 0.000000 0.000000 1.000000
vn 0.000000 0.000000 1.000000
vn 0.000000 0.000000 1.000000
vn 0.000000 0.000000 1.000000
vn 0.000009 0.000000 1.000000
vn 0.000009 0.000000 1.000000
vn 0.000009 0.000000 1.000000
vn 0.000009 0.000000 1.000000
vn 0.000000 0.000000 1.000000
vn 0.000000 0.000000 1.000000
vn 0.000000 0.000000 1.000000
vn 0.000000 0.000000 1.000000
vn 0.000007 0.000000 1.000000
vn 0.000007 0.000000 1.000000
vn 0.000007 0.000000 1.000000
vn 0.000007 0.000000 1.000000
vn 0.000000 1.000000 -0.000001
vn -0.000000 1.000000 -0.000000
vn -0.000000 1.000000 -0.000000
vn 0.000000 1.000000 -0.000001
vn 1.000000 0.000000 0.000000
vn 1.000000 0.000000 0.000000
vn 1.000000 0.000000 0.000000
vn 1.000000 0.000000 0.000000
vn 0.000000 -1.000000 0.000000
vn 0.000000 -1.000000 0.000000
vn 0.000000 -1.000000 0.000000
vn 0.000000 -1.000000 0.000000
vn 0.640219 -0.768192 0.000000
vn 0.640219 -0.768192 0.000000
vn 0.640219 -0.768192 0.000000
vn 0.640219 -0.768192 0.000000
vn -0.000001 0.000000 1.000000
vn -0.000001 0.000000 1.000000
vn 0.000000 0.000000 1.000000
vn 0.000000 0.000000 1.000000
vn 0.000000 0.000000 1.000000
vn 0.000000 0.000000 1.000000
vn 0.000000 0.000000 1.000000
vn 0.000000 0.000000 1.000000
vn 0.707083 0.000000 0.707131
vn 0.707083 0.000000 0.707131
vn 0.707083 0.000000 0.707131
vn 0.707083 0.000000 0.707131
vn 0.000000 -0.707084 0.707129
vn 0.000000 -0.707084 0.707129
vn 0.000000 -0.707084 0.707129
vn 0.000000 -0.707084 0.707129
vn 0.452710 0.543164 0.707126
vn 0.452710 0.543164 0.707126
vn 0.452710 0.543164 0.707126
vn 0.452710 0.543164 0.707126
vn 0.000000 0.707085 0.707128
vn 0.000000 0.707085 0.707128
vn 0.000000 0.707085 0.707128
vn 0.000000 0.707085 0.707128
vn -0.707090 0.000000 0.707123
vn -0.707090 0.000000 0.707123
vn -0.707090 0.000000 0.707123
vn -0.707090 0.000000 0.707123
vn 0.000000 0.707084 0.707129
vn 0.000000 0.707084 0.707129
vn 0.000000 0.707084 0.707129
vn 0.000000 0.707084 0.707129
vn -0.452693 -0.543173 0.707129
vn -0.452693 -0.543173 0.707129
vn -0.452693 -0.543173 0.707129
vn -0.452693 -0.543173 0.707129
vn 0.000000 -0.707071 0.707143
vn 0.000000 -0.707071 0.707143
vn 0.000000 -0.707071 0.707143
vn 0.000000 -0.707071 0.707143
vn 0.000000 1.000000 0.000000
vn 0.000000 1.000000 0.000000
vn 0.000000 1.000000 0.000000
vn 0.000000 1.000000 0.000000
vn 0.000000 -1.000000 0.000000
vn 0.000000 -1.000000 0.000000
vn 0.000000 -1.000000 0.000000
vn 0.000000 -1.000000 0.000000
vn 1.000000 0.000000 0.000000
vn 1.000000 0.000000 0.000000
vn 1.000000 0.000000 0.000000
vn 1.000000 0.000000 0.000000
vn 0.640222 0.768190 0.000000
vn 0.640222 0.768190 0.000000
vn 0.640222 0.768190 0.000000
vn 0.640222 0.768190 0.000000
vn 0.000000 0.000000 1.000000
vn 0.000000 0.000000 1.000000
vn 0.000000 0.000000 1.000000
vn 0.000000 0.000000 1.000000
vn -0.000008 0.000000 1.000000
vn -0.000008 0.000000 1.000000
vn -0.000008 0.000000 1.000000
vn -0.000008 0.000000 1.000000
vn 0.000000 0.000000 1.000000
vn 0.000000 0.000000 1.000000
vn 0.000000 0.000000 1.000000
vn 0.000000 0.000000 1.000000
vn 0.000000 0.000000 1.000000
vn 0.000000 0.000000 1.000000
vn 0.000000 0.000000 1.000000
vn 0.000000 0.000000 1.000000
vn -0.000000 1.000000 -0.000000
vn -0.000000 1.000000 -0.000000
vn -0.000000 1.000000 -0.000000
vn -0.000000 1.000000 -0.000000
vn -1.000000 0.000000 0.000000
vn -1.000000 0.000000 0.000000
vn -1.000000 0.000000 0.000000
vn -1.000000 0.000000 0.000000
vn 0.000000 -1.000000 0.000000
vn 0.000000 -1.000000 0.000000
vn 0.000000 -1.000000 0.000000
vn 0.000000 -1.000000 0.000000
vn -0.640219 -0.768192 0.000000
vn -0.640219 -0.768192 0.000000
vn -0.640219 -0.768192 0.000000
vn -0.640219 -0.768192 0.000000
s off
g London_Door01 London_BuildingMods
f 4/1/1 24/2/2 25/3/3 5/4/4
f 5/4/5 25/3/6 26/5/7 6/6/8
f 7/7/9 8/8/10 10/9/11 9/10/12
f 8/8/13 7/7/14 20/11/15 21/12/16
f 9/10/17 10/9/18 12/13/19 11/14/20
f 11/14/21 12/13/22 29/15/23 30/16/24
f 13/17/25 14/18/26 16/19/27 15/20/28
f 14/18/29 13/17/30 22/21/31 23/22/32
f 15/20/33 16/19/34 18/23/35 17/24/36
f 27/25/37 28/26/38 17/24/39 18/23/40
f 11/14/41 30/16/42 31/27/43 3/28/44
f 2/29/45 19/30/46 20/11/47 7/7/48
f 2/29/49 7/7/50 9/10/51 1/31/52
f 1/31/53 9/10/54 11/14/55 3/28/56
f 8/32/57 21/33/58 22/34/59 13/35/60
f 10/36/61 8/37/62 13/38/63 15/39/64
f 28/40/65 29/41/66 12/42/67 17/43/68
f 12/44/69 10/45/70 15/46/71 17/47/72
f 14/18/73 23/22/74 24/48/75 4/49/76
f 16/19/77 14/18/78 4/49/79 5/50/80
f 26/51/81 27/25/82 18/23/83 6/52/84
f 18/23/85 16/19/86 5/50/87 6/52/88
f 35/53/89 36/54/90 25/55/91 24/56/92
f 36/54/93 37/57/94 26/58/95 25/55/96
f 38/59/97 40/60/98 41/61/99 39/62/100
f 39/62/101 21/63/102 20/64/103 38/59/104
f 40/60/105 42/65/106 43/66/107 41/61/108
f 42/65/109 30/67/110 29/68/111 43/66/112
f 44/69/113 46/70/114 47/71/115 45/72/116
f 45/72/117 23/73/118 22/74/119 44/69/120
f 46/70/121 48/75/122 49/76/123 47/71/124
f 27/77/125 49/76/126 48/75/127 28/78/128
f 42/65/129 34/79/130 31/80/131 30/67/132
f 33/81/133 38/59/134 20/64/135 19/82/136
f 33/81/137 32/83/138 40/60/139 38/59/140
f 32/83/141 34/79/142 42/65/143 40/60/144
f 39/84/145 44/85/146 22/86/147 21/87/148
f 41/88/149 46/89/150 44/90/151 39/91/152
f 28/92/153 48/93/154 43/94/155 29/95/156
f 43/96/157 48/97/158 46/98/159 41/99/160
f 45/72/161 35/100/162 24/101/163 23/73/164
f 47/71/165 36/102/166 35/100/167 45/72/168
f 26/103/169 37/104/170 49/76/171 27/77/172
f 49/76/173 37/104/174 36/102/175 47/71/176
