# This file uses centimeters as units for non-parametric coordinates.

g default
v -1.406670 2.856913 0.082481
v -1.602654 2.448244 0.082481
v -1.602654 2.448244 -0.082481
v -1.406670 2.856913 -0.082481
v -1.602654 -2.448232 0.082481
v -1.406670 -2.856921 0.082481
v -1.602654 -2.448232 -0.082481
v -1.406670 -2.856921 -0.082481
v -1.365250 2.648387 0.082481
v -1.502647 2.361855 0.082481
v -1.502647 -2.361863 0.082481
v -1.365250 -2.648395 0.082481
v -1.365250 2.648387 0.005913
v -1.502647 2.361855 0.005913
v -1.502647 -2.361863 0.005913
v -1.365250 -2.648395 0.005913
v 0.000000 2.856913 -0.082481
v 0.000000 2.938021 0.082481
v 0.000000 2.648387 0.082481
v 0.000000 2.648387 0.005913
v 0.000000 2.361855 0.005913
v 0.000000 -2.361863 0.005913
v 0.000000 -2.648395 0.005913
v 0.000000 -2.648395 0.082481
v 0.000000 -2.856921 0.082481
v 0.000000 -2.856921 -0.082481
v 1.406670 2.856913 0.082481
v 1.602654 2.448244 0.082481
v 1.602654 2.448244 -0.082481
v 1.406670 2.856913 -0.082481
v 1.602654 -2.448232 0.082481
v 1.406670 -2.856921 0.082481
v 1.602654 -2.448232 -0.082481
v 1.406670 -2.856921 -0.082481
v 1.365250 2.648387 0.082481
v 1.502647 2.361855 0.082481
v 1.502647 -2.361863 0.082481
v 1.365250 -2.648395 0.082481
v 1.365250 2.648387 0.005913
v 1.502647 2.361855 0.005913
v 1.502647 -2.361863 0.005913
v 1.365250 -2.648395 0.005913
v -0.341302 2.939327 -0.082481
v -0.341302 2.939327 0.082481
v -0.273048 2.648387 0.082481
v -0.286789 2.648387 0.005913
v -0.286789 2.361855 0.005913
v -0.286789 -2.361863 0.005913
v -0.286789 -2.648395 0.005913
v -0.273048 -2.648395 0.082481
v -0.281334 -2.856921 0.082481
v -0.281334 -2.856921 -0.082481
v 0.341302 2.939327 -0.082481
v 0.341302 2.939327 0.082481
v 0.273048 2.648387 0.082481
v 0.286789 2.648387 0.005913
v 0.286789 2.361855 0.005913
v 0.286789 -2.361863 0.005913
v 0.286789 -2.648395 0.005913
v 0.273048 -2.648395 0.082481
v 0.281334 -2.856921 0.082481
v 0.281334 -2.856921 -0.082481
v -0.255714 3.154018 -0.082481
v -0.255714 3.154018 0.082481
v 0.000000 3.236431 0.082481
v 0.000000 3.236431 -0.082481
v 0.255714 3.154018 -0.082481
v 0.255714 3.154018 0.082481
v -0.116249 3.383931 -0.082481
v -0.116249 3.383931 0.082481
v 0.000000 3.438317 0.082481
v 0.000000 3.438317 -0.082481
v 0.116249 3.383931 -0.082481
v 0.116249 3.383931 0.082481
vt 0.280531 0.138451
vt 0.280531 0.104601
vt 0.930571 0.104601
vt 0.930571 0.138451
vt 0.984826 0.104600
vt 0.984826 0.138451
vt 0.226275 0.104601
vt 0.226276 0.138451
vt 1.073041 0.085857
vt 1.019147 0.085857
vt 1.019147 0.051145
vt 1.073041 0.051145
vt 1.019147 0.085857
vt 0.475396 0.085857
vt 0.475396 0.051145
vt 1.019147 0.051145
vt 0.475396 0.085857
vt 0.429184 0.085857
vt 0.429184 0.051145
vt 0.475396 0.051145
vt 0.076023 0.006792
vt 0.115216 0.006792
vt 0.115215 0.034722
vt 0.076023 0.034722
vt 0.761348 0.006792
vt 0.761347 0.034722
vt 0.800540 0.006792
vt 0.800541 0.034722
vt 0.704044 0.712428
vt 0.704044 0.712428
vt 1.510150 0.051145
vt 1.510150 0.085857
vt 1.073041 0.085857
vt 1.073041 0.051145
vt -0.421985 0.034710
vt -0.421985 0.006780
vt 0.491473 0.644268
vt 0.508640 0.644268
vt 0.508640 0.799641
vt 0.491473 0.814889
vt 0.023538 0.644268
vt 0.023538 0.814889
vt 0.006371 0.644268
vt 0.006371 0.799641
vt 1.298548 0.006792
vt 1.298548 0.034722
vt 0.429184 0.085857
vt 0.010221 0.085857
vt 0.010221 0.051145
vt 0.429184 0.051145
vt -0.271732 0.138456
vt -0.271733 0.104606
vt 0.280531 0.136753
vt 0.930571 0.136753
vt 0.930571 0.102903
vt 0.280531 0.102903
vt 0.984826 0.136753
vt 0.984826 0.102902
vt 0.226275 0.102903
vt 0.226276 0.136753
vt 1.073041 0.085857
vt 1.073041 0.051145
vt 1.019147 0.051145
vt 1.019147 0.085857
vt 1.019147 0.085857
vt 1.019147 0.051145
vt 0.475396 0.051145
vt 0.475396 0.085857
vt 0.475396 0.085857
vt 0.475396 0.051145
vt 0.429184 0.051145
vt 0.429184 0.085857
vt 0.076023 0.006792
vt 0.076023 0.034722
vt 0.115215 0.034722
vt 0.115216 0.006792
vt 0.761347 0.034722
vt 0.761348 0.006792
vt 0.800541 0.034722
vt 0.800540 0.006792
vt 0.704044 0.712428
vt 0.704044 0.712428
vt 1.510150 0.051145
vt 1.073041 0.051145
vt 1.073041 0.085857
vt 1.510150 0.085857
vt -0.421985 0.034710
vt -0.421985 0.006780
vt 0.491473 0.644268
vt 0.491473 0.814889
vt 0.508640 0.799641
vt 0.508640 0.644268
vt 0.023538 0.644268
vt 0.023538 0.814889
vt 0.006371 0.644268
vt 0.006371 0.799641
vt 1.298548 0.034722
vt 1.298548 0.006792
vt 0.429184 0.085857
vt 0.429184 0.051145
vt 0.010221 0.051145
vt 0.010221 0.085857
vt -0.271733 0.102908
vt -0.271732 0.136758
vt 0.704983 0.609485
vt 0.704983 0.609485
vt 1.422728 0.085857
vt 1.422728 0.051145
vt -0.322383 0.006782
vt -0.322383 0.034712
vt 0.508640 0.668241
vt 0.491473 0.668241
vt 0.023538 0.668241
vt 0.006371 0.668241
vt 1.198947 0.034722
vt 1.198946 0.006792
vt 0.094014 0.051145
vt 0.094014 0.085857
vt -0.172131 0.104605
vt -0.172130 0.138455
vt 1.368997 0.136321
vt 1.368997 0.102831
vt 1.422728 0.085857
vt 1.422728 0.051145
vt -0.322383 0.006782
vt -0.322383 0.034712
vt 0.508640 0.668241
vt 0.491473 0.668241
vt 0.023538 0.668241
vt 0.006371 0.668241
vt 1.198947 0.034722
vt 1.198946 0.006792
vt 0.094014 0.051145
vt 0.094014 0.085857
vt -0.172131 0.102907
vt -0.172130 0.136757
vt 1.399396 0.137899
vt 0.764516 0.634135
vt 0.778866 0.708953
vt 0.778866 0.708953
vt 1.401912 0.102831
vt 0.764516 0.634135
vt 0.778866 0.708953
vt 0.778866 0.708953
vt 1.431047 0.137899
vt 0.822908 0.664947
vt 0.831449 0.706684
vt 1.456041 0.137899
vt 1.433853 0.102831
vt 0.822908 0.664947
vt 1.459054 0.136322
vt 0.831449 0.706683
vt 1.367558 0.104399
vt 1.399396 0.104399
vt 0.764516 0.634135
vt 0.704983 0.609485
vt 1.367558 0.137899
vt 0.764516 0.634135
vt 0.704983 0.609485
vt 1.401912 0.136321
vt 1.431047 0.104399
vt 1.456041 0.104399
vt 1.459054 0.102831
vt 0.822908 0.664947
vt 1.433853 0.136321
vt 0.831449 0.706684
vt 0.831449 0.706683
vt 0.822908 0.664947
vn -1.000000 0.000000 0.000000
vn -1.000000 0.000000 0.000000
vn -1.000000 0.000000 0.000000
vn -1.000000 0.000000 0.000000
vn -0.901685 0.432394 0.000000
vn -0.901685 0.432394 0.000000
vn -0.901685 0.432394 0.000000
vn -0.901685 0.432394 0.000000
vn -0.901685 -0.432394 0.000000
vn -0.901685 -0.432394 0.000000
vn -0.901685 -0.432394 0.000000
vn -0.901685 -0.432394 0.000000
vn 0.000000 0.000000 1.000000
vn 0.000000 0.000000 1.000000
vn 0.000000 0.000000 1.000000
vn 0.000000 0.000000 1.000000
vn 0.000001 0.000000 1.000000
vn 0.000001 0.000000 1.000000
vn 0.000001 0.000000 1.000000
vn 0.000001 0.000000 1.000000
vn 0.000003 0.000000 1.000000
vn 0.000003 0.000000 1.000000
vn 0.000003 0.000000 1.000000
vn 0.000003 0.000000 1.000000
vn 0.901682 -0.432400 0.000000
vn 0.901682 -0.432400 0.000000
vn 0.901682 -0.432400 0.000000
vn 0.901682 -0.432400 0.000000
vn 1.000000 0.000000 0.000000
vn 1.000000 0.000000 0.000000
vn 1.000000 0.000000 0.000000
vn 1.000000 0.000000 0.000000
vn 0.901682 0.432400 0.000000
vn 0.901682 0.432400 0.000000
vn 0.901682 0.432400 0.000000
vn 0.901682 0.432400 0.000000
vn -0.423756 0.905776 0.000000
vn -0.423756 0.905776 0.000000
vn 0.000000 1.000000 0.000000
vn 0.000000 1.000000 0.000000
vn 0.000000 0.000000 1.000000
vn 0.000000 0.000000 1.000000
vn -0.000001 0.000000 1.000000
vn 0.000002 0.000000 1.000000
vn 0.000000 -1.000000 0.000000
vn 0.000000 -1.000000 0.000000
vn 0.000000 -1.000000 0.000000
vn 0.000000 -1.000000 0.000000
vn 0.000000 0.000000 1.000000
vn 0.000000 0.000000 1.000000
vn 0.000000 0.000000 1.000000
vn 0.000000 0.000000 1.000000
vn 0.000000 0.000000 1.000000
vn 0.000000 0.000000 1.000000
vn 0.000000 0.000000 1.000000
vn 0.000000 0.000000 1.000000
vn 0.000000 0.000000 1.000000
vn 0.000000 0.000000 1.000000
vn 0.000000 0.000000 1.000000
vn 0.000000 0.000000 1.000000
vn 0.000000 1.000000 -0.000001
vn 0.000000 1.000000 -0.000002
vn 0.000000 1.000000 0.000000
vn 0.000000 1.000000 0.000000
vn 0.000000 0.000000 1.000000
vn 0.000000 0.000000 1.000000
vn 0.000000 0.000000 1.000000
vn 0.000000 0.000000 1.000000
vn 0.000000 -1.000000 0.000000
vn 0.000000 -1.000000 0.000000
vn 0.000000 -1.000000 0.000000
vn 0.000000 -1.000000 0.000000
vn 1.000000 0.000000 0.000000
vn 1.000000 0.000000 0.000000
vn 1.000000 0.000000 0.000000
vn 1.000000 0.000000 0.000000
vn 0.901685 0.432394 0.000000
vn 0.901685 0.432394 0.000000
vn 0.901685 0.432394 0.000000
vn 0.901685 0.432394 0.000000
vn 0.901685 -0.432394 0.000000
vn 0.901685 -0.432394 0.000000
vn 0.901685 -0.432394 0.000000
vn 0.901685 -0.432394 0.000000
vn -0.000013 0.000000 1.000000
vn -0.000013 0.000000 1.000000
vn -0.000013 0.000000 1.000000
vn -0.000013 0.000000 1.000000
vn 0.000000 0.000000 1.000000
vn 0.000000 0.000000 1.000000
vn 0.000000 0.000000 1.000000
vn 0.000000 0.000000 1.000000
vn 0.000000 0.000000 1.000000
vn 0.000000 0.000000 1.000000
vn 0.000000 0.000000 1.000000
vn 0.000000 0.000000 1.000000
vn -0.901682 -0.432400 0.000000
vn -0.901682 -0.432400 0.000000
vn -0.901682 -0.432400 0.000000
vn -0.901682 -0.432400 0.000000
vn -1.000000 0.000000 0.000000
vn -1.000000 0.000000 0.000000
vn -1.000000 0.000000 0.000000
vn -1.000000 0.000000 0.000000
vn -0.901682 0.432400 0.000000
vn -0.901682 0.432400 0.000000
vn -0.901682 0.432400 0.000000
vn -0.901682 0.432400 0.000000
vn 0.000000 1.000000 0.000000
vn 0.077127 0.997021 0.000000
vn 0.077127 0.997021 0.000000
vn 0.000000 1.000000 0.000000
vn -0.000000 0.000000 1.000000
vn -0.000003 0.000000 1.000000
vn 0.000000 0.000000 1.000000
vn 0.000000 0.000000 1.000000
vn 0.000000 -1.000000 0.000000
vn 0.000000 -1.000000 0.000000
vn 0.000000 -1.000000 0.000000
vn 0.000000 -1.000000 0.000000
vn 0.000000 0.000000 1.000000
vn 0.000000 0.000000 1.000000
vn 0.000000 0.000000 1.000000
vn 0.000000 0.000000 1.000000
vn 0.000000 0.000000 1.000000
vn 0.000000 0.000000 1.000000
vn 0.000000 0.000000 1.000000
vn 0.000000 0.000000 1.000000
vn 0.000000 0.000000 1.000000
vn 0.000000 0.000000 1.000000
vn 0.000000 0.000000 1.000000
vn 0.000000 0.000000 1.000000
vn 0.000000 1.000000 0.000000
vn 0.000000 1.000000 0.000000
vn 0.000000 1.000000 0.000001
vn 0.000000 1.000000 0.000001
vn 0.000000 0.000000 1.000000
vn 0.000000 0.000000 1.000000
vn 0.000000 0.000000 1.000000
vn 0.000000 0.000000 1.000000
vn 0.000000 -1.000000 0.000000
vn 0.000000 -1.000000 0.000000
vn 0.000000 -1.000000 0.000000
vn 0.000000 -1.000000 0.000000
vn 0.000000 1.000000 0.000000
vn 0.000000 1.000000 0.000000
vn -0.077127 0.997021 0.000000
vn -0.077127 0.997021 0.000000
vn 0.000000 0.000000 1.000000
vn 0.000000 0.000000 1.000000
vn 0.000000 -1.000000 0.000000
vn 0.000000 -1.000000 0.000000
vn 0.000000 0.000000 1.000000
vn 0.000000 0.000000 1.000000
vn 0.000000 0.000000 1.000000
vn 0.000000 0.000000 1.000000
vn 0.000000 0.000000 1.000000
vn 0.000000 0.000000 1.000000
vn 0.000000 1.000000 0.000000
vn 0.000000 1.000000 0.000000
vn 0.000000 0.000000 1.000000
vn 0.000000 0.000000 1.000000
vn 0.000000 -1.000000 0.000000
vn 0.000000 -1.000000 0.000000
vn 0.423756 0.905776 0.000000
vn 0.423756 0.905776 0.000000
vn 0.000000 1.000000 0.000000
vn 0.000000 1.000000 0.000000
vn 0.000000 0.000000 1.000000
vn 0.000000 -1.000000 0.000000
vn 0.000000 -1.000000 0.000000
vn 0.000000 0.000000 1.000000
vn 0.000000 0.000000 1.000000
vn 0.000000 0.000000 1.000000
vn 0.000000 0.000000 1.000000
vn 0.000000 0.000000 1.000000
vn 0.000000 0.000000 1.000000
vn 0.000000 1.000000 0.000000
vn 0.000000 1.000000 0.000000
vn 0.000000 0.000000 1.000000
vn 0.000000 0.000000 1.000000
vn 0.000000 -1.000000 0.000000
vn 0.000000 -1.000000 0.000000
vn -0.928906 0.370315 0.000000
vn -0.928906 0.370315 0.000000
vn -0.892209 0.451623 0.000000
vn -0.892209 0.451623 0.000000
vn -0.000003 0.000000 1.000000
vn -0.000008 0.000000 1.000000
vn 0.000000 0.000000 -1.000000
vn -0.000007 0.000000 -1.000000
vn -0.000007 0.000000 -1.000000
vn 0.000000 1.000000 0.000000
vn 0.928906 0.370315 0.000000
vn 0.928906 0.370315 0.000000
vn 0.892209 0.451623 0.000000
vn 0.892209 0.451623 0.000000
vn 0.000007 0.000000 -1.000000
vn 0.000007 0.000000 -1.000000
vn 0.000000 0.000000 1.000000
vn -0.854996 0.518635 0.000000
vn -0.854996 0.518635 0.000000
vn 0.000000 0.000000 1.000000
vn 0.000000 0.000000 1.000000
vn 0.000000 0.000000 -1.000000
vn 0.000000 1.000000 0.000000
vn 0.854996 0.518635 0.000000
vn 0.854996 0.518635 0.000000
vn 0.000000 0.000000 -1.000000
vn 0.000000 0.000000 1.000000
s off
g London_Window03 London_BuildingMods
f 7/1/1 5/2/2 2/3/3 3/4/4
f 2/3/5 1/5/6 4/6/7 3/4/8
f 6/7/9 5/2/10 7/1/11 8/8/12
f 1/9/13 2/10/14 10/11/15 9/12/16
f 2/13/17 5/14/18 11/15/19 10/16/20
f 5/17/21 6/18/22 12/19/23 11/20/24
f 9/21/25 10/22/26 14/23/27 13/24/28
f 10/22/29 11/25/30 15/26/31 14/23/32
f 11/25/33 12/27/34 16/28/35 15/26/36
f 69/145/37 70/161/38 71/162/39 72/148/40
s 1
f 19/31/41 18/32/42 44/107/43 45/108/44
s 2
f 20/35/45 19/36/46 45/109/47 46/110/48
s 3
f 21/37/49 20/38/50 46/111/51 47/112/52
s 4
f 22/41/53 21/37/54 47/112/55 48/113/56
s 5
f 23/43/57 22/41/58 48/113/59 49/114/60
s 6
f 49/115/61 50/116/62 24/45/63 23/46/64
s 7
f 50/117/65 51/118/66 25/48/67 24/49/68
s 8
f 51/119/69 52/120/70 26/51/71 25/52/72
s off
f 33/53/73 29/54/74 28/55/75 31/56/76
f 28/55/77 29/54/78 30/57/79 27/58/80
f 32/59/81 34/60/82 33/53/83 31/56/84
f 27/61/85 35/62/86 36/63/87 28/64/88
f 28/65/89 36/66/90 37/67/91 31/68/92
f 31/69/93 37/70/94 38/71/95 32/72/96
f 35/73/97 39/74/98 40/75/99 36/76/100
f 36/76/101 40/75/102 41/77/103 37/78/104
f 37/78/105 41/77/106 42/79/107 38/80/108
f 30/57/109 53/121/110 54/122/111 27/58/112
s 1
f 54/123/113 55/124/114 35/84/115 27/85/116
s 10
f 55/125/117 56/126/118 39/74/119 35/73/120
s 11
f 56/127/121 57/128/122 40/90/123 39/91/124
s 12
f 57/128/125 58/129/126 41/94/127 40/90/128
s 13
f 58/129/129 59/130/130 42/96/131 41/94/132
s 14
f 38/80/133 42/79/134 59/131/135 60/132/136
s 15
f 32/99/137 38/100/138 60/133/139 61/134/140
s 16
f 32/59/141 61/135/142 62/136/143 34/60/144
s off
f 4/6/145 1/5/146 44/153/147 43/157/148
s 1
f 45/108/44 44/107/43 1/33/149 9/34/150
s 2
f 46/110/48 45/109/47 9/21/151 13/24/152
s 3
f 47/112/52 46/111/51 13/39/153 14/40/154
s 4
f 48/113/56 47/112/55 14/40/155 15/42/156
s 5
f 49/114/60 48/113/59 15/42/157 16/44/158
s 6
f 12/27/159 50/116/62 49/115/61 16/28/160
s 7
f 6/47/161 51/118/66 50/117/65 12/50/162
s 8
f 6/7/163 8/8/164 52/120/70 51/119/69
s off
f 74/149/165 73/165/166 72/151/167 71/163/168
s 1
f 19/83/169 55/124/114 54/123/113 18/86/42
s 10
f 20/87/170 56/126/118 55/125/117 19/88/171
s 11
f 21/89/172 57/128/122 56/127/121 20/92/173
s 12
f 22/93/174 58/129/126 57/128/125 21/89/175
s 13
f 23/95/176 59/130/130 58/129/129 22/93/177
s 14
f 60/132/136 59/131/135 23/97/178 24/98/179
s 15
f 61/134/140 60/133/139 24/101/180 25/102/181
s 16
f 62/136/143 61/135/142 25/103/182 26/104/183
s 17
f 43/157/184 44/153/185 64/154/186 63/137/187
s 1
f 44/106/43 18/29/42 65/139/188 64/138/189
s 18
f 17/30/190 43/105/191 63/158/192 66/140/193
s 19
f 54/122/194 53/121/195 67/160/196 68/141/197
s 18
f 53/159/198 17/81/190 66/143/193 67/142/199
s 1
f 18/82/42 54/156/113 68/155/200 65/144/188
s 17
f 63/137/187 64/154/186 70/161/201 69/145/202
s 1
f 64/138/189 65/139/188 71/147/203 70/146/204
s 18
f 66/140/193 63/158/192 69/168/205 72/167/206
s 19
f 68/141/197 67/160/196 73/165/207 74/149/208
s 18
f 67/142/199 66/143/193 72/166/206 73/150/209
s 1
f 65/144/188 68/155/200 74/164/210 71/152/203
