# This file uses centimeters as units for non-parametric coordinates.

g default
v -3.990944 7.917836 3.980610
v -3.990944 5.117248 3.980610
v -3.990707 5.112596 4.386494
v -3.990383 5.605095 4.972466
v -3.990707 7.904072 4.386494
v -3.990383 7.411572 4.972466
v -3.841751 8.064202 3.831406
v -3.841751 8.064202 -3.852097
v -3.841751 0.832552 3.831406
v -3.841751 0.832552 -3.852097
v -3.898663 0.832552 3.888317
v -3.983170 0.748042 3.972828
v -3.898663 0.832552 -3.909008
v -3.983170 0.748042 -3.993519
v -3.897930 -0.064202 3.887573
v -3.983170 0.053392 3.972828
v -3.983170 0.053392 -3.993519
v -3.897930 -0.064202 -3.908264
v -3.841751 4.981643 -3.852097
v -3.841751 4.981643 3.831406
v -3.990955 7.917836 -4.001301
v -3.990955 5.117248 -4.001301
v 0.000000 8.064202 3.831406
v 0.000000 7.917836 3.980610
v 0.000000 5.117248 3.980610
v 0.000000 4.981643 3.831406
v 0.000000 0.832552 3.831406
v 0.000000 0.832552 3.888317
v 0.000000 0.748042 3.972828
v 0.000000 0.053392 3.972828
v 0.000000 0.053392 -3.993519
v 0.000000 0.748042 -3.993519
v 0.000000 0.832552 -3.909008
v 0.000000 0.832552 -3.852097
v 0.000000 4.981643 -3.852097
v 0.000000 5.117248 -4.001301
v 0.000000 7.917836 -4.001301
v 0.000000 8.064202 -3.852097
v 0.000000 7.904072 4.386494
v 0.000000 7.411572 4.972466
v 0.000000 5.605095 4.972466
v 0.000000 5.112596 4.386494
v 0.000000 -0.064202 3.888306
v 0.000000 -0.064202 -3.908630
v 3.990944 7.917836 3.980610
v 3.990944 5.117248 3.980610
v 3.990711 5.112596 4.386494
v 3.990383 5.605095 4.972466
v 3.990711 7.904072 4.386494
v 3.990383 7.411572 4.972466
v 3.841751 8.064202 3.831406
v 3.841751 8.064202 -3.852097
v 3.841751 0.832552 3.831406
v 3.841751 0.832552 -3.852097
v 3.898663 0.832552 3.888317
v 3.983170 0.748042 3.972828
v 3.898663 0.832552 -3.909008
v 3.983170 0.748042 -3.993519
v 3.897930 -0.064202 3.887573
v 3.983170 0.053392 3.972828
v 3.983170 0.053392 -3.993519
v 3.897930 -0.064202 -3.908264
v 3.841751 4.981643 -3.852097
v 3.841751 4.981643 3.831406
v 3.990955 7.917836 -4.001301
v 3.990955 5.117248 -4.001301
v 3.965038 3.284316 -0.859489
v 3.799847 3.188422 -0.656082
v 3.965038 4.340985 -0.859489
v 3.799847 4.436878 -0.656082
v 3.965038 4.340985 -3.100868
v 3.799847 4.436878 -3.304276
v 3.965038 3.284316 -3.100868
v 3.799847 3.188422 -3.304276
vt 0.631783 0.497266
vt 0.631783 0.432933
vt 0.723311 0.344886
vt 0.903507 0.344886
vt 0.995503 0.432933
vt 0.995503 0.497266
vt 0.005875 0.505981
vt 0.493412 0.505981
vt 0.493412 0.769251
vt 0.005875 0.769252
vt 0.001671 0.290720
vt 0.015292 0.277099
vt 1.272033 0.277099
vt 1.285655 0.290720
vt 0.997501 0.239710
vt 1.008160 0.254412
vt 0.012144 0.254412
vt 0.022803 0.239710
vt 0.712228 0.283694
vt 1.700974 0.283694
vt 1.700974 0.304202
vt 0.712228 0.304202
vt 0.502985 0.004297
vt 1.499000 0.004297
vt 1.499002 0.085271
vt 0.502985 0.085271
vt 0.009376 0.767880
vt 0.493599 0.767880
vt 0.493600 0.937778
vt 0.009376 0.937778
vt 0.016273 0.762844
vt 0.485485 0.762844
vt 0.494597 0.771126
vt 0.007162 0.771126
vt 1.003161 0.306800
vt 0.025763 0.306800
vt 0.025763 0.288535
vt 1.003161 0.288536
vt 1.003161 0.288536
vt 1.003161 0.306800
vt 0.254641 0.770685
vt 0.496754 0.770685
vt 0.496754 0.940583
vt 0.254641 0.940583
vt 0.485485 0.762844
vt 0.494597 0.771126
vt 0.251170 0.507270
vt 0.492343 0.507270
vt 0.492343 0.767737
vt 0.251170 0.767737
vt 0.221482 0.304202
vt 0.221482 0.283694
vt 0.001671 0.290720
vt 0.015292 0.277099
vt 0.004977 0.085272
vt 0.004977 0.004298
vt 0.997593 0.239710
vt 1.008160 0.254412
vt 1.997006 0.004277
vt 1.997010 0.085251
vt 1.272033 0.277099
vt 1.285655 0.290720
vt 2.198982 0.283694
vt 2.198982 0.304202
vt 0.250306 0.767130
vt 0.009134 0.767130
vt 0.009134 0.506663
vt 0.250306 0.506663
vt 0.007162 0.771126
vt 0.016273 0.762844
vt 0.010011 0.770395
vt 0.252124 0.770395
vt 0.252124 0.940293
vt 0.010011 0.940293
vt 0.025763 0.306800
vt 0.025763 0.288535
vt 0.500467 0.500294
vt 0.741146 0.500294
vt 0.741146 0.996906
vt 0.500467 0.996906
vt 0.986910 0.577887
vt 0.519602 0.577887
vt 0.519602 0.530358
vt 0.986937 0.530358
vt 0.986872 0.646504
vt 0.519602 0.646504
vt 0.305177 0.311921
vt 0.009016 0.311921
vt 0.009017 0.492642
vt 0.305177 0.492641
vt 0.986872 0.658979
vt 0.986910 0.727596
vt 0.519602 0.727596
vt 0.519602 0.658979
vt 0.986937 0.775125
vt 0.519602 0.775125
vt 0.981414 0.764025
vt 0.518904 0.764025
vt 0.518948 0.532802
vt 0.981393 0.532802
vt 0.012144 0.254412
vt 0.022757 0.239710
vt 0.631783 0.497266
vt 0.995503 0.497266
vt 0.995503 0.432933
vt 0.903507 0.344886
vt 0.723311 0.344886
vt 0.631783 0.432933
vt 0.005875 0.505981
vt 0.005875 0.769252
vt 0.493412 0.769251
vt 0.493412 0.505981
vt 0.001671 0.290720
vt 1.285655 0.290720
vt 1.272033 0.277099
vt 0.015292 0.277099
vt 0.997501 0.239710
vt 0.022803 0.239710
vt 0.012144 0.254412
vt 1.008160 0.254412
vt 0.712228 0.283694
vt 0.712228 0.304202
vt 1.700974 0.304202
vt 1.700974 0.283694
vt 0.502985 0.004297
vt 0.502985 0.085271
vt 1.499002 0.085271
vt 1.499000 0.004297
vt 0.009376 0.767880
vt 0.009376 0.937778
vt 0.493600 0.937778
vt 0.493599 0.767880
vt 0.016273 0.762844
vt 0.007162 0.771126
vt 0.494597 0.771126
vt 0.485485 0.762844
vt 1.003161 0.306800
vt 1.003161 0.288536
vt 0.025763 0.288535
vt 0.025763 0.306800
vt 1.003161 0.288536
vt 1.003161 0.306800
vt 0.254641 0.770685
vt 0.254641 0.940583
vt 0.496754 0.940583
vt 0.496754 0.770685
vt 0.494597 0.771126
vt 0.485485 0.762844
vt 0.251170 0.507270
vt 0.251170 0.767737
vt 0.492343 0.767737
vt 0.492343 0.507270
vt 0.221482 0.304202
vt 0.221482 0.283694
vt 0.015292 0.277099
vt 0.001671 0.290720
vt 0.004977 0.085272
vt 0.004977 0.004298
vt 1.008160 0.254412
vt 0.997593 0.239710
vt 1.997010 0.085251
vt 1.997006 0.004277
vt 1.272033 0.277099
vt 1.285655 0.290720
vt 2.198982 0.304202
vt 2.198982 0.283694
vt 0.250306 0.767130
vt 0.250306 0.506663
vt 0.009134 0.506663
vt 0.009134 0.767130
vt 0.007162 0.771126
vt 0.016273 0.762844
vt 0.010011 0.770395
vt 0.010011 0.940293
vt 0.252124 0.940293
vt 0.252124 0.770395
vt 0.025763 0.288535
vt 0.025763 0.306800
vt 0.500467 0.500294
vt 0.500467 0.996906
vt 0.741146 0.996906
vt 0.741146 0.500294
vt 0.986910 0.577887
vt 0.986937 0.530358
vt 0.519602 0.530358
vt 0.519602 0.577887
vt 0.519602 0.646504
vt 0.986872 0.646504
vt 0.305177 0.311921
vt 0.305177 0.492641
vt 0.009017 0.492642
vt 0.009016 0.311921
vt 0.986872 0.658979
vt 0.519602 0.658979
vt 0.519602 0.727596
vt 0.986910 0.727596
vt 0.986937 0.775125
vt 0.519602 0.775125
vt 0.981414 0.764025
vt 0.981393 0.532802
vt 0.518948 0.532802
vt 0.518904 0.764025
vt 0.012144 0.254412
vt 0.022757 0.239710
vt 1.176981 0.286096
vt 1.068964 0.286097
vt 1.068964 0.305160
vt 1.176981 0.305160
vt 0.582946 0.286097
vt 0.582955 0.305160
vt 0.474922 0.286191
vt 0.474945 0.305254
vt -0.011084 0.286930
vt -0.011055 0.305993
vt 0.314787 0.308830
vt 0.314787 0.496329
vt 0.625203 0.496329
vt 0.625203 0.308830
vn -1.000000 0.000000 0.000567
vn -1.000000 0.000000 0.000567
vn -1.000000 0.000000 0.000567
vn -1.000000 0.000000 0.000567
vn -1.000000 0.000000 0.000000
vn -1.000000 0.000000 0.000000
vn -1.000000 0.000000 0.000000
vn -1.000000 0.000000 0.000000
vn -0.707108 0.707106 0.000000
vn -0.707108 0.707106 0.000000
vn -0.707108 0.707106 0.000000
vn -0.707108 0.707106 0.000000
vn -0.809657 -0.586904 0.000000
vn -0.809657 -0.586904 0.000000
vn -0.809657 -0.586904 0.000000
vn -0.809657 -0.586904 0.000000
vn 0.000000 1.000000 0.000000
vn 0.000000 1.000000 0.000000
vn 0.000000 1.000000 0.000000
vn 0.000000 1.000000 0.000000
vn -1.000000 0.000000 0.000000
vn -1.000000 0.000000 0.000000
vn -1.000000 0.000000 0.000000
vn -1.000000 0.000000 0.000000
vn -1.000000 0.000000 0.000001
vn -1.000000 0.000000 0.000001
vn -1.000000 0.000000 0.000001
vn -1.000000 0.000000 0.000001
vn -0.672590 -0.740016 0.000000
vn -0.672590 -0.740016 0.000000
vn -0.672590 -0.740016 0.000000
vn -0.672590 -0.740016 0.000000
vn -0.700296 0.713853 0.000000
vn -0.700296 0.713853 0.000000
vn -0.700296 0.713853 0.000000
vn -0.700296 0.713853 0.000000
vn 0.000000 0.713863 0.700285
vn 0.000000 0.713863 0.700285
vn 0.000000 0.713863 0.700285
vn 0.000000 0.713863 0.700285
vn 0.000000 0.000000 1.000000
vn 0.000000 0.000000 1.000000
vn 0.000000 0.000000 1.000000
vn 0.000000 0.000000 1.000000
vn 0.000000 -0.740025 0.672579
vn 0.000000 -0.740026 0.672579
vn 0.000000 -0.740026 0.672579
vn 0.000000 -0.740025 0.672579
vn 0.000000 0.000000 1.000000
vn 0.000000 0.000000 1.000000
vn 0.000000 0.000000 1.000000
vn 0.000000 0.000000 1.000000
vn 0.000000 1.000000 0.000000
vn 0.000000 1.000000 0.000000
vn 0.000000 1.000000 0.000000
vn 0.000000 1.000000 0.000000
vn 0.000000 0.707110 0.707103
vn 0.000000 0.707110 0.707103
vn 0.000000 0.707110 0.707103
vn 0.000000 0.707110 0.707103
vn 0.000000 0.000000 1.000000
vn 0.000000 0.000000 1.000000
vn 0.000000 0.000000 1.000000
vn 0.000000 0.000000 1.000000
vn -0.000074 -0.585325 0.810799
vn -0.000074 -0.585325 0.810799
vn 0.000000 -0.585325 0.810799
vn 0.000000 -0.585325 0.810799
vn 0.000000 0.000000 -1.000000
vn 0.000000 0.000000 -1.000000
vn 0.000000 0.000000 -1.000000
vn 0.000000 0.000000 -1.000000
vn 0.000000 0.707110 -0.707103
vn 0.000000 0.707110 -0.707103
vn 0.000000 0.707110 -0.707104
vn 0.000000 0.707110 -0.707103
vn 0.000000 1.000000 0.000000
vn 0.000000 1.000000 0.000000
vn 0.000000 1.000000 0.000000
vn 0.000000 1.000000 0.000000
vn 0.000000 0.000000 -1.000000
vn 0.000000 0.000000 -1.000000
vn 0.000000 0.000000 -1.000000
vn 0.000000 0.000000 -1.000000
vn 0.000000 -0.740026 -0.672578
vn 0.000000 -0.740026 -0.672578
vn 0.000000 -0.740026 -0.672578
vn 0.000000 -0.740026 -0.672578
vn 0.000000 0.000000 -1.000000
vn 0.000000 0.000000 -1.000000
vn 0.000000 0.000000 -1.000000
vn 0.000000 0.000000 -1.000000
vn 0.000000 0.713864 -0.700285
vn 0.000000 0.713864 -0.700285
vn 0.000000 0.713864 -0.700285
vn 0.000000 0.713863 -0.700285
vn 0.000000 1.000000 0.000000
vn 0.000000 1.000000 0.000000
vn 0.000000 1.000000 0.000000
vn 0.000000 1.000000 0.000000
vn 0.000000 0.999426 0.033892
vn 0.000000 0.999426 0.033892
vn 0.000000 0.999426 0.033892
vn 0.000000 0.999426 0.033892
vn 0.000000 0.765523 0.643409
vn 0.000000 0.765523 0.643409
vn 0.000000 0.765523 0.643409
vn 0.000000 0.765523 0.643409
vn 0.000000 0.000000 1.000000
vn 0.000000 0.000000 1.000000
vn 0.000000 0.000000 1.000000
vn 0.000000 0.000000 1.000000
vn 0.000000 -0.765523 0.643409
vn 0.000000 -0.765523 0.643409
vn 0.000000 -0.765523 0.643409
vn 0.000000 -0.765523 0.643409
vn 0.000000 -0.999934 -0.011461
vn 0.000000 -0.999934 -0.011461
vn 0.000000 -0.999934 -0.011461
vn 0.000000 -0.999934 -0.011461
vn 0.000000 -1.000000 0.000000
vn 0.000000 -1.000000 0.000000
vn 0.000000 -1.000000 0.000000
vn 0.000000 -1.000000 0.000000
vn 0.000000 -0.586146 -0.810206
vn 0.000000 -0.586146 -0.810206
vn -0.000037 -0.586146 -0.810206
vn -0.000037 -0.586146 -0.810206
vn 1.000000 0.000000 0.000567
vn 1.000000 0.000000 0.000567
vn 1.000000 0.000000 0.000567
vn 1.000000 0.000000 0.000567
vn 1.000000 0.000000 0.000000
vn 1.000000 0.000000 0.000000
vn 1.000000 0.000000 0.000000
vn 1.000000 0.000000 0.000000
vn 0.707110 0.707103 0.000000
vn 0.707110 0.707103 0.000000
vn 0.707110 0.707103 0.000000
vn 0.707110 0.707103 0.000000
vn 0.809657 -0.586903 0.000000
vn 0.809657 -0.586903 0.000000
vn 0.809657 -0.586903 0.000000
vn 0.809657 -0.586903 0.000000
vn 0.000000 1.000000 0.000000
vn 0.000000 1.000000 0.000000
vn 0.000000 1.000000 0.000000
vn 0.000000 1.000000 0.000000
vn 1.000000 0.000000 0.000000
vn 1.000000 0.000000 0.000000
vn 1.000000 0.000000 0.000000
vn 1.000000 0.000000 0.000000
vn 1.000000 0.000000 0.000001
vn 1.000000 0.000000 0.000001
vn 1.000000 0.000000 0.000001
vn 1.000000 0.000000 0.000001
vn 0.672593 -0.740013 0.000000
vn 0.672593 -0.740013 0.000000
vn 0.672593 -0.740013 0.000000
vn 0.672593 -0.740013 0.000000
vn 0.700297 0.713852 0.000000
vn 0.700297 0.713852 0.000000
vn 0.700297 0.713852 0.000000
vn 0.700297 0.713852 0.000000
vn 0.000000 0.713863 0.700285
vn 0.000000 0.713863 0.700285
vn 0.000000 0.713863 0.700285
vn 0.000000 0.713863 0.700285
vn 0.000000 0.000000 1.000000
vn 0.000000 0.000000 1.000000
vn 0.000000 0.000000 1.000000
vn 0.000000 0.000000 1.000000
vn 0.000000 -0.740026 0.672579
vn 0.000000 -0.740026 0.672579
vn 0.000000 -0.740026 0.672579
vn 0.000000 -0.740026 0.672579
vn 0.000000 0.000000 1.000000
vn 0.000000 0.000000 1.000000
vn 0.000000 0.000000 1.000000
vn 0.000000 0.000000 1.000000
vn 0.000000 1.000000 0.000000
vn 0.000000 1.000000 0.000000
vn 0.000000 1.000000 0.000000
vn 0.000000 1.000000 0.000000
vn 0.000000 0.707110 0.707103
vn 0.000000 0.707110 0.707103
vn 0.000000 0.707110 0.707103
vn 0.000000 0.707110 0.707103
vn 0.000000 0.000000 1.000000
vn -0.000001 0.000000 1.000000
vn -0.000001 0.000000 1.000000
vn 0.000000 0.000000 1.000000
vn 0.000074 -0.585325 0.810799
vn 0.000000 -0.585325 0.810799
vn 0.000000 -0.585325 0.810799
vn 0.000074 -0.585325 0.810799
vn 0.000000 0.000000 -1.000000
vn 0.000000 0.000000 -1.000000
vn 0.000000 0.000000 -1.000000
vn 0.000000 0.000000 -1.000000
vn 0.000000 0.707110 -0.707103
vn 0.000000 0.707110 -0.707103
vn 0.000000 0.707110 -0.707103
vn 0.000000 0.707110 -0.707103
vn 0.000000 1.000000 0.000000
vn 0.000000 1.000000 0.000000
vn 0.000000 1.000000 0.000000
vn 0.000000 1.000000 0.000000
vn 0.000000 0.000000 -1.000000
vn 0.000000 0.000000 -1.000000
vn 0.000000 0.000000 -1.000000
vn 0.000000 0.000000 -1.000000
vn 0.000000 -0.740026 -0.672578
vn 0.000000 -0.740026 -0.672578
vn 0.000000 -0.740026 -0.672578
vn 0.000000 -0.740026 -0.672578
vn 0.000000 0.000000 -1.000000
vn 0.000000 0.000000 -1.000000
vn 0.000000 0.000000 -1.000000
vn 0.000000 0.000000 -1.000000
vn 0.000000 0.713864 -0.700285
vn 0.000000 0.713864 -0.700285
vn 0.000000 0.713864 -0.700285
vn 0.000000 0.713864 -0.700285
vn 0.000000 1.000000 0.000000
vn 0.000000 1.000000 0.000000
vn 0.000000 1.000000 0.000000
vn 0.000000 1.000000 0.000000
vn 0.000000 0.999426 0.033892
vn 0.000000 0.999426 0.033892
vn 0.000000 0.999426 0.033892
vn 0.000000 0.999426 0.033892
vn 0.000000 0.765523 0.643409
vn 0.000000 0.765523 0.643409
vn 0.000000 0.765523 0.643409
vn 0.000000 0.765523 0.643409
vn 0.000000 0.000000 1.000000
vn 0.000000 0.000000 1.000000
vn 0.000000 0.000000 1.000000
vn 0.000000 0.000000 1.000000
vn 0.000000 -0.765523 0.643409
vn 0.000000 -0.765523 0.643409
vn 0.000000 -0.765523 0.643409
vn 0.000000 -0.765523 0.643409
vn 0.000000 -0.999934 -0.011461
vn 0.000000 -0.999934 -0.011461
vn 0.000000 -0.999934 -0.011461
vn 0.000000 -0.999934 -0.011461
vn 0.000000 -1.000000 0.000000
vn 0.000000 -1.000000 0.000000
vn 0.000000 -1.000000 0.000000
vn 0.000000 -1.000000 0.000000
vn 0.000000 -0.586146 -0.810206
vn 0.000038 -0.586146 -0.810206
vn 0.000038 -0.586146 -0.810206
vn 0.000000 -0.586146 -0.810206
vn 0.776254 0.000000 0.630421
vn 0.776254 0.000000 0.630421
vn 0.776254 0.000000 0.630421
vn 0.776254 0.000000 0.630421
vn 0.502037 0.864846 0.000000
vn 0.502037 0.864846 0.000000
vn 0.502037 0.864846 0.000000
vn 0.502037 0.864846 0.000000
vn 0.776254 0.000000 -0.630420
vn 0.776254 0.000000 -0.630420
vn 0.776254 0.000000 -0.630420
vn 0.776254 0.000000 -0.630420
vn 0.502037 -0.864846 0.000000
vn 0.502037 -0.864846 0.000000
vn 0.502037 -0.864846 0.000000
vn 0.502037 -0.864846 0.000000
vn 1.000000 0.000000 0.000000
vn 1.000000 0.000000 0.000000
vn 1.000000 0.000000 0.000000
vn 1.000000 0.000000 0.000000
vn -1.000000 0.000000 0.000567
vn -1.000000 0.000000 0.000567
vn 1.000000 0.000000 0.000567
vn 1.000000 0.000000 0.000567
s 1
g BottomBlock_B
f 2/1/1 3/2/2 5/5/3 1/6/4
s off
f 10/7/5 9/8/6 20/9/7 19/10/8
f 12/11/9 11/12/10 13/13/11 14/14/12
f 15/15/13 16/16/14 17/17/15 18/18/16
f 9/19/17 10/20/18 13/21/19 11/22/20
f 12/23/21 14/24/22 17/25/23 16/26/24
f 22/27/25 2/28/26 1/29/27 21/30/28
f 19/31/29 20/32/30 2/33/31 22/34/32
f 7/35/33 8/36/34 21/37/35 1/38/36
f 24/39/37 23/40/38 7/35/39 1/38/40
f 2/41/41 25/42/42 24/43/43 1/44/44
f 20/32/45 26/45/46 25/46/47 2/33/48
f 9/47/49 27/48/50 26/49/51 20/50/52
f 28/51/53 27/52/54 9/19/55 11/22/56
f 11/12/57 12/11/58 29/53/59 28/54/60
f 30/55/61 29/56/62 12/23/63 16/26/64
f 16/16/65 15/15/66 43/57/67 30/58/68
f 14/24/69 32/59/70 31/60/71 17/25/72
f 33/61/73 32/62/74 14/14/75 13/13/76
f 10/20/77 34/63/78 33/64/79 13/21/80
f 19/65/81 35/66/82 34/67/83 10/68/84
f 36/69/85 35/70/86 19/31/87 22/34/88
f 21/71/89 37/72/90 36/73/91 22/74/92
f 8/36/93 38/75/94 37/76/95 21/37/96
f 7/77/97 23/78/98 38/79/99 8/80/100
f 5/81/101 39/82/102 24/83/103 1/84/104
f 5/81/105 6/85/106 40/86/107 39/82/108
f 4/87/109 41/88/110 40/89/111 6/90/112
f 4/91/113 3/92/114 42/93/115 41/94/116
f 2/95/117 25/96/118 42/93/119 3/92/120
f 44/97/121 43/98/122 15/99/123 18/100/124
f 31/101/125 44/102/126 18/18/127 17/17/128
s 2
f 46/103/129 45/104/130 49/105/131 47/108/132
s off
f 54/109/133 63/110/134 64/111/135 53/112/136
f 56/113/137 58/114/138 57/115/139 55/116/140
f 59/117/141 62/118/142 61/119/143 60/120/144
f 53/121/145 55/122/146 57/123/147 54/124/148
f 56/125/149 60/126/150 61/127/151 58/128/152
f 66/129/153 65/130/154 45/131/155 46/132/156
f 63/133/157 66/134/158 46/135/159 64/136/160
f 51/137/161 45/138/162 65/139/163 52/140/164
f 24/141/165 45/138/166 51/137/167 23/142/168
f 46/143/169 45/144/170 24/145/171 25/146/172
f 64/136/173 46/135/174 25/147/175 26/148/176
f 53/149/177 64/150/178 26/151/179 27/152/180
f 28/153/181 55/122/182 53/121/183 27/154/184
f 55/116/185 28/155/186 29/156/187 56/113/188
f 30/157/189 60/126/190 56/125/191 29/158/192
f 60/120/193 30/159/194 43/160/195 59/117/196
f 58/128/197 61/127/198 31/161/199 32/162/200
f 33/163/201 57/115/202 58/114/203 32/164/204
f 54/124/205 57/123/206 33/165/207 34/166/208
f 63/167/209 54/168/210 34/169/211 35/170/212
f 36/171/213 66/134/214 63/133/215 35/172/216
f 65/173/217 66/174/218 36/175/219 37/176/220
f 52/140/221 65/139/222 37/177/223 38/178/224
f 51/179/225 52/180/226 38/181/227 23/182/228
f 49/183/229 45/184/230 24/185/231 39/186/232
f 49/183/233 39/186/234 40/187/235 50/188/236
f 48/189/237 50/190/238 40/191/239 41/192/240
f 48/193/241 41/194/242 42/195/243 47/196/244
f 46/197/245 47/196/246 42/195/247 25/198/248
f 44/199/249 62/200/250 59/201/251 43/202/252
f 31/203/253 61/119/254 62/118/255 44/204/256
f 67/205/257 69/206/258 70/207/259 68/208/260
f 69/206/261 71/209/262 72/210/263 70/207/264
f 71/209/265 73/211/266 74/212/267 72/210/268
f 73/211/269 67/213/270 68/214/271 74/212/272
f 73/215/273 71/216/274 69/217/275 67/218/276
s 1
f 5/5/3 3/2/2 4/3/277 6/4/278
s 2
f 47/108/132 49/105/131 50/106/279 48/107/280
