# This file uses centimeters as units for non-parametric coordinates.

g default
v -1.432158 1.071298 0.082481
v -1.531421 0.941936 0.082481
v -1.531421 0.941936 -0.082481
v -1.432158 1.071298 -0.082481
v -1.531421 -0.941937 0.082481
v -1.432158 -1.071298 0.082481
v -1.531421 -0.941937 -0.082481
v -1.432158 -1.071298 -0.082481
v -1.432157 0.993102 0.082481
v -1.469257 0.941936 0.082481
v -1.469257 -0.941936 0.082481
v -1.432157 -0.993102 0.082481
v -1.432157 0.993102 0.005913
v -1.469257 0.941936 0.005913
v -1.469257 -0.941936 0.005913
v -1.432157 -0.993102 0.005913
v 0.000000 1.071298 -0.082481
v 0.000000 1.071298 0.082481
v 0.000000 0.993102 0.082481
v 0.000000 0.993102 0.005913
v 0.000000 0.941936 0.005913
v 0.000000 -0.941936 0.005913
v 0.000000 -0.993102 0.005913
v 0.000000 -0.993102 0.082481
v 0.000000 -1.071298 0.082481
v 0.000000 -1.071298 -0.082481
v 1.432158 1.071298 0.082481
v 1.531421 0.941936 0.082481
v 1.531421 0.941936 -0.082481
v 1.432158 1.071298 -0.082481
v 1.531421 -0.941937 0.082481
v 1.432158 -1.071298 0.082481
v 1.531421 -0.941937 -0.082481
v 1.432158 -1.071298 -0.082481
v 1.432157 0.993102 0.082481
v 1.469257 0.941936 0.082481
v 1.469257 -0.941936 0.082481
v 1.432157 -0.993102 0.082481
v 1.432157 0.993102 0.005913
v 1.469257 0.941936 0.005913
v 1.469257 -0.941936 0.005913
v 1.432157 -0.993102 0.005913
vt 0.280531 0.136753
vt 0.280531 0.102903
vt 0.930571 0.102903
vt 0.930571 0.136753
vt 0.984826 0.102902
vt 0.984826 0.136753
vt 0.226275 0.102903
vt 0.226276 0.136753
vt 1.073041 0.085857
vt 1.019147 0.085857
vt 1.019147 0.051145
vt 1.073041 0.051145
vt 1.019147 0.085857
vt 0.475396 0.085857
vt 0.475396 0.051145
vt 1.019147 0.051145
vt 0.475396 0.085857
vt 0.429184 0.085857
vt 0.429184 0.051145
vt 0.475396 0.051145
vt 0.076023 0.006792
vt 0.115216 0.006792
vt 0.115215 0.034722
vt 0.076023 0.034722
vt 0.761348 0.006792
vt 0.761347 0.034722
vt 0.800540 0.006792
vt 0.800541 0.034722
vt 1.482834 0.102902
vt 1.482834 0.136753
vt 1.510150 0.051145
vt 1.510150 0.085857
vt 1.073041 0.085857
vt 1.073041 0.051145
vt -0.421985 0.034710
vt -0.421985 0.006780
vt 0.249334 0.623614
vt 0.249334 0.633325
vt 0.015555 0.633325
vt 0.009248 0.623614
vt 0.249334 0.340603
vt 0.009248 0.340603
vt 0.249334 0.330892
vt 0.015555 0.330892
vt 1.298548 0.006792
vt 1.298548 0.034722
vt 0.429184 0.085857
vt 0.010221 0.085857
vt 0.010221 0.051145
vt 0.429184 0.051145
vt -0.271732 0.136758
vt -0.271733 0.102908
vt 0.280531 0.136753
vt 0.930571 0.136753
vt 0.930571 0.102903
vt 0.280531 0.102903
vt 0.984826 0.136753
vt 0.984826 0.102902
vt 0.226275 0.102903
vt 0.226276 0.136753
vt 1.073041 0.085857
vt 1.073041 0.051145
vt 1.019147 0.051145
vt 1.019147 0.085857
vt 1.019147 0.085857
vt 1.019147 0.051145
vt 0.475396 0.051145
vt 0.475396 0.085857
vt 0.475396 0.085857
vt 0.475396 0.051145
vt 0.429184 0.051145
vt 0.429184 0.085857
vt 0.076023 0.006792
vt 0.076023 0.034722
vt 0.115215 0.034722
vt 0.115216 0.006792
vt 0.761347 0.034722
vt 0.761348 0.006792
vt 0.800541 0.034722
vt 0.800540 0.006792
vt 1.482834 0.136753
vt 1.482834 0.102902
vt 1.510150 0.051145
vt 1.073041 0.051145
vt 1.073041 0.085857
vt 1.510150 0.085857
vt -0.421985 0.034710
vt -0.421985 0.006780
vt 0.249334 0.623614
vt 0.009248 0.623614
vt 0.015555 0.633325
vt 0.249334 0.633325
vt 0.249334 0.340603
vt 0.009248 0.340603
vt 0.249334 0.330892
vt 0.015555 0.330892
vt 1.298548 0.034722
vt 1.298548 0.006792
vt 0.429184 0.085857
vt 0.429184 0.051145
vt 0.010221 0.051145
vt 0.010221 0.085857
vt -0.271733 0.102908
vt -0.271732 0.136758
vn -1.000000 0.000000 0.000000
vn -1.000000 0.000000 0.000000
vn -1.000000 0.000000 0.000000
vn -1.000000 0.000000 0.000000
vn -0.615994 0.787751 0.000000
vn -0.615994 0.787751 0.000000
vn -0.615994 0.787751 0.000000
vn -0.615994 0.787751 0.000000
vn -0.615994 -0.787751 0.000000
vn -0.615994 -0.787751 0.000000
vn -0.615994 -0.787751 0.000000
vn -0.615994 -0.787751 0.000000
vn 0.000000 0.000000 1.000000
vn 0.000000 0.000000 1.000000
vn 0.000000 0.000000 1.000000
vn 0.000000 0.000000 1.000000
vn 0.000001 0.000000 1.000000
vn 0.000001 0.000000 1.000000
vn 0.000001 0.000000 1.000000
vn 0.000001 0.000000 1.000000
vn 0.000003 0.000000 1.000000
vn 0.000003 0.000000 1.000000
vn 0.000003 0.000000 1.000000
vn 0.000003 0.000000 1.000000
vn 0.615987 -0.787756 0.000000
vn 0.615987 -0.787756 0.000000
vn 0.615987 -0.787756 0.000000
vn 0.615987 -0.787756 0.000000
vn 1.000000 0.000000 0.000000
vn 1.000000 0.000000 0.000000
vn 1.000000 0.000000 0.000000
vn 1.000000 0.000000 0.000000
vn 0.615987 0.787756 0.000000
vn 0.615987 0.787756 0.000000
vn 0.615987 0.787756 0.000000
vn 0.615987 0.787756 0.000000
vn 0.000000 1.000000 0.000000
vn 0.000000 1.000000 0.000000
vn 0.000000 1.000000 0.000000
vn 0.000000 1.000000 0.000000
vn 0.000000 0.000000 1.000000
vn 0.000000 0.000000 1.000000
vn 0.000000 0.000000 1.000000
vn 0.000000 0.000000 1.000000
vn 0.000000 -1.000000 0.000000
vn 0.000000 -1.000000 0.000000
vn 0.000000 -1.000000 0.000000
vn 0.000000 -1.000000 0.000000
vn 0.000000 0.000000 1.000000
vn 0.000000 0.000000 1.000000
vn 0.000000 0.000000 1.000000
vn 0.000000 0.000000 1.000000
vn 0.000000 0.000000 1.000000
vn 0.000000 0.000000 1.000000
vn 0.000000 0.000000 1.000000
vn 0.000000 0.000000 1.000000
vn 0.000000 0.000000 1.000000
vn 0.000000 0.000000 1.000000
vn 0.000000 0.000000 1.000000
vn 0.000000 0.000000 1.000000
vn 0.000000 1.000000 0.000000
vn 0.000000 1.000000 0.000000
vn 0.000000 1.000000 0.000000
vn 0.000000 1.000000 0.000000
vn 0.000000 0.000000 1.000000
vn 0.000000 0.000000 1.000000
vn 0.000000 0.000000 1.000000
vn 0.000000 0.000000 1.000000
vn 0.000000 -1.000000 0.000000
vn 0.000000 -1.000000 0.000000
vn 0.000000 -1.000000 0.000000
vn 0.000000 -1.000000 0.000000
vn 1.000000 0.000000 0.000000
vn 1.000000 0.000000 0.000000
vn 1.000000 0.000000 0.000000
vn 1.000000 0.000000 0.000000
vn 0.615994 0.787751 0.000000
vn 0.615994 0.787751 0.000000
vn 0.615994 0.787751 0.000000
vn 0.615994 0.787751 0.000000
vn 0.615994 -0.787751 0.000000
vn 0.615994 -0.787751 0.000000
vn 0.615994 -0.787751 0.000000
vn 0.615994 -0.787751 0.000000
vn -0.000013 0.000000 1.000000
vn -0.000013 0.000000 1.000000
vn -0.000013 0.000000 1.000000
vn -0.000013 0.000000 1.000000
vn 0.000000 0.000000 1.000000
vn 0.000000 0.000000 1.000000
vn 0.000000 0.000000 1.000000
vn 0.000000 0.000000 1.000000
vn 0.000000 0.000000 1.000000
vn 0.000000 0.000000 1.000000
vn 0.000000 0.000000 1.000000
vn 0.000000 0.000000 1.000000
vn -0.615987 -0.787756 0.000000
vn -0.615987 -0.787756 0.000000
vn -0.615987 -0.787756 0.000000
vn -0.615987 -0.787756 0.000000
vn -1.000000 0.000000 0.000000
vn -1.000000 0.000000 0.000000
vn -1.000000 0.000000 0.000000
vn -1.000000 0.000000 0.000000
vn -0.615987 0.787756 0.000000
vn -0.615987 0.787756 0.000000
vn -0.615987 0.787756 0.000000
vn -0.615987 0.787756 0.000000
vn 0.000000 1.000000 0.000000
vn 0.000000 1.000000 0.000000
vn 0.000000 1.000000 0.000000
vn 0.000000 1.000000 0.000000
vn 0.000000 0.000000 1.000000
vn 0.000000 0.000000 1.000000
vn 0.000000 0.000000 1.000000
vn 0.000000 0.000000 1.000000
vn 0.000000 -1.000000 0.000000
vn 0.000000 -1.000000 0.000000
vn 0.000000 -1.000000 0.000000
vn 0.000000 -1.000000 0.000000
vn 0.000000 0.000000 1.000000
vn 0.000000 0.000000 1.000000
vn 0.000000 0.000000 1.000000
vn 0.000000 0.000000 1.000000
vn 0.000000 0.000000 1.000000
vn 0.000000 0.000000 1.000000
vn 0.000000 0.000000 1.000000
vn 0.000000 0.000000 1.000000
vn 0.000000 0.000000 1.000000
vn 0.000000 0.000000 1.000000
vn 0.000000 0.000000 1.000000
vn 0.000000 0.000000 1.000000
vn 0.000000 1.000000 0.000000
vn 0.000000 1.000000 0.000000
vn 0.000000 1.000000 0.000000
vn 0.000000 1.000000 0.000000
vn 0.000000 0.000000 1.000000
vn 0.000000 0.000000 1.000000
vn 0.000000 0.000000 1.000000
vn 0.000000 0.000000 1.000000
vn 0.000000 -1.000000 0.000000
vn 0.000000 -1.000000 0.000000
vn 0.000000 -1.000000 0.000000
vn 0.000000 -1.000000 0.000000
s off
g London_Window01 London_BuildingMods
f 7/1/1 5/2/2 2/3/3 3/4/4
f 2/3/5 1/5/6 4/6/7 3/4/8
f 6/7/9 5/2/10 7/1/11 8/8/12
f 1/9/13 2/10/14 10/11/15 9/12/16
f 2/13/17 5/14/18 11/15/19 10/16/20
f 5/17/21 6/18/22 12/19/23 11/20/24
f 9/21/25 10/22/26 14/23/27 13/24/28
f 10/22/29 11/25/30 15/26/31 14/23/32
f 11/25/33 12/27/34 16/28/35 15/26/36
f 4/6/37 1/5/38 18/29/39 17/30/40
f 19/31/41 18/32/42 1/33/43 9/34/44
f 20/35/45 19/36/46 9/21/47 13/24/48
f 21/37/49 20/38/50 13/39/51 14/40/52
f 22/41/53 21/37/54 14/40/55 15/42/56
f 23/43/57 22/41/58 15/42/59 16/44/60
f 12/27/61 24/45/62 23/46/63 16/28/64
f 6/47/65 25/48/66 24/49/67 12/50/68
f 6/7/69 8/8/70 26/51/71 25/52/72
f 33/53/73 29/54/74 28/55/75 31/56/76
f 28/55/77 29/54/78 30/57/79 27/58/80
f 32/59/81 34/60/82 33/53/83 31/56/84
f 27/61/85 35/62/86 36/63/87 28/64/88
f 28/65/89 36/66/90 37/67/91 31/68/92
f 31/69/93 37/70/94 38/71/95 32/72/96
f 35/73/97 39/74/98 40/75/99 36/76/100
f 36/76/101 40/75/102 41/77/103 37/78/104
f 37/78/105 41/77/106 42/79/107 38/80/108
f 30/57/109 17/81/110 18/82/111 27/58/112
f 19/83/113 35/84/114 27/85/115 18/86/116
f 20/87/117 39/74/118 35/73/119 19/88/120
f 21/89/121 40/90/122 39/91/123 20/92/124
f 22/93/125 41/94/126 40/90/127 21/89/128
f 23/95/129 42/96/130 41/94/131 22/93/132
f 38/80/133 42/79/134 23/97/135 24/98/136
f 32/99/137 38/100/138 24/101/139 25/102/140
f 32/59/141 25/103/142 26/104/143 34/60/144
