# This file uses centimeters as units for non-parametric coordinates.

mtllib Sliced_meat.mtl
g default
v -0.055885 -0.010639 -0.326503
v -0.166521 -0.010639 -0.326503
v -0.256028 -0.010639 -0.261473
v -0.290217 -0.010639 -0.156251
v -0.256028 -0.010639 -0.051030
v -0.166521 -0.010639 0.014001
v -0.055885 -0.010639 0.014001
v 0.033622 -0.010639 -0.051030
v 0.067810 -0.010639 -0.156251
v 0.033622 -0.010639 -0.261473
v 0.047239 0.192672 -0.271366
v 0.054008 0.181522 -0.276284
v -0.050684 0.192672 -0.342511
v -0.048098 0.181522 -0.350468
v -0.171723 0.192672 -0.342510
v -0.174308 0.181522 -0.350468
v -0.269645 0.192672 -0.271366
v -0.276414 0.181522 -0.276284
v -0.307048 0.192672 -0.156251
v -0.315415 0.181522 -0.156251
v -0.269645 0.192672 -0.041136
v -0.276414 0.181522 -0.036218
v -0.171722 0.192672 0.030008
v -0.174308 0.181522 0.037966
v -0.050684 0.192672 0.030008
v -0.048098 0.181522 0.037966
v 0.047239 0.192672 -0.041136
v 0.054008 0.181522 -0.036218
v 0.084642 0.192672 -0.156251
v 0.093009 0.181522 -0.156251
v 0.047158 -0.192672 -0.271307
v 0.053860 -0.181440 -0.276176
v -0.050714 -0.192672 -0.342416
v -0.048155 -0.181440 -0.350294
v -0.171692 -0.192672 -0.342416
v -0.174252 -0.181440 -0.350294
v -0.269565 -0.192672 -0.271307
v -0.276266 -0.181440 -0.276176
v -0.306949 -0.192672 -0.156251
v -0.315232 -0.181440 -0.156251
v -0.269565 -0.192672 -0.041195
v -0.276266 -0.181440 -0.036326
v -0.171692 -0.192672 0.029914
v -0.174252 -0.181440 0.037792
v -0.050714 -0.192672 0.029914
v -0.048155 -0.181440 0.037792
v 0.047158 -0.192672 -0.041195
v 0.053860 -0.181440 -0.036326
v 0.084542 -0.192672 -0.156251
v 0.092826 -0.181440 -0.156251
v -0.029271 0.173421 -0.215779
v -0.017911 0.192672 -0.224032
v -0.079908 0.173421 -0.252568
v -0.075569 0.192672 -0.265922
v -0.142499 0.173421 -0.252568
v -0.146837 0.192672 -0.265922
v -0.193136 0.173421 -0.215779
v -0.204495 0.192672 -0.224032
v -0.212477 0.173421 -0.156251
v -0.226518 0.192672 -0.156251
v -0.193136 0.173421 -0.096724
v -0.204495 0.192672 -0.088471
v -0.142498 0.173421 -0.059934
v -0.146837 0.192672 -0.046580
v -0.079908 0.173421 -0.059934
v -0.075569 0.192672 -0.046580
v -0.029271 0.173421 -0.096724
v -0.017911 0.192672 -0.088471
v -0.009929 0.173421 -0.156251
v 0.004112 0.192672 -0.156251
v -0.029271 -0.173913 -0.215779
v -0.022388 -0.183671 -0.220779
v -0.079908 -0.173913 -0.252568
v -0.077279 -0.183671 -0.260659
v -0.142499 -0.173913 -0.252568
v -0.145127 -0.183671 -0.260659
v -0.193136 -0.173913 -0.215779
v -0.200018 -0.183671 -0.220779
v -0.212477 -0.173913 -0.156251
v -0.220984 -0.183671 -0.156251
v -0.193136 -0.173913 -0.096724
v -0.200018 -0.183671 -0.091723
v -0.142498 -0.173913 -0.059934
v -0.145127 -0.183671 -0.051843
v -0.079908 -0.173913 -0.059934
v -0.077279 -0.183671 -0.051843
v -0.029271 -0.173913 -0.096724
v -0.022388 -0.183671 -0.091723
v -0.009929 -0.173913 -0.156251
v -0.001422 -0.183671 -0.156251
v -0.022024 -0.116669 1.158063
v -0.022024 0.116669 1.158063
v -1.322086 0.116669 -1.192598
v -1.322086 -0.116669 -1.192598
v 1.228307 0.116669 -1.358032
v 1.228307 -0.116669 -1.358032
v -1.474982 0.116669 -0.694207
v -1.441891 0.116669 0.090137
v -1.441891 -0.116669 0.090137
v -1.474982 -0.116669 -0.694207
v 1.558797 -0.116669 0.106875
v 1.593497 -0.116669 -0.686525
v 1.558797 0.116669 0.106875
v 1.593497 0.116669 -0.686525
v -1.240504 -0.116669 0.511747
v -0.721088 -0.116669 0.961506
v -1.240504 0.116669 0.511747
v -0.721088 0.116669 0.961506
v 1.247691 -0.116669 0.636013
v 0.616850 -0.116669 1.015048
v 1.247691 0.116669 0.636013
v 0.616850 0.116669 1.015048
v -0.883227 0.116669 -1.398214
v -0.379742 0.116669 -1.347333
v -0.379742 -0.116669 -1.347333
v -0.883227 -0.116669 -1.398214
v 0.243596 0.116669 -1.427674
v 0.755678 0.116669 -1.509627
v 0.755678 -0.116669 -1.509627
v 0.243596 -0.116669 -1.427674
v 0.014540 0.116669 -1.213459
v -0.264608 0.116669 -1.211827
v 0.014538 -0.116669 -1.213458
v -0.264606 -0.116669 -1.211826
v -0.398751 0.086919 0.568815
v -0.008339 0.086919 0.493549
v 0.006216 0.086919 0.356658
v -0.272801 0.086919 0.348020
v -0.254856 0.086919 -0.301399
v 0.024335 0.086919 -0.299072
v -0.008339 -0.086919 0.493549
v -0.251639 -0.086919 0.503080
v -0.272801 -0.086919 0.348020
v 0.006216 -0.086919 0.356658
v 0.024335 -0.086919 -0.299072
v -0.254856 -0.086919 -0.301399
v -1.508761 0.116669 -0.370889
v -0.263509 0.086919 0.011740
v 0.015598 0.086919 0.017110
v 1.624785 0.116669 -0.363985
v 1.624785 -0.116669 -0.363985
v 0.015598 -0.086919 0.017110
v -0.263509 -0.086919 0.011740
v -1.508761 -0.116669 -0.370889
v -0.728290 -0.087587 0.974883
v -0.022431 -0.087587 1.173151
v -0.022431 0.087587 1.173151
v -0.728290 0.087587 0.974883
v 0.622559 -0.087587 1.029316
v 0.622559 0.087587 1.029316
v -0.885747 0.087587 -1.413006
v -0.885747 -0.087587 -1.413006
v -1.332830 -0.087587 -1.201929
v -1.332830 0.087587 -1.201929
v 1.237522 -0.087587 -1.369163
v 1.237522 0.087587 -1.369163
v 0.756825 -0.087587 -1.524724
v 0.756825 0.087587 -1.524724
v -1.490164 0.087587 -0.697299
v -1.490164 -0.087587 -0.697299
v -1.524205 -0.087587 -0.370581
v -1.524205 0.087587 -0.370581
v 1.608082 -0.087587 -0.690995
v 1.608082 0.087587 -0.690995
v 1.640241 0.087587 -0.363657
v 1.640241 -0.087587 -0.363657
v 1.258409 -0.087587 0.646630
v 1.573215 -0.087587 0.111900
v 1.573215 0.087587 0.111900
v 1.258409 0.087587 0.646630
v -1.252623 -0.087587 0.520986
v -1.252623 0.087587 0.520986
v -1.456617 0.087587 0.094609
v -1.456617 -0.087587 0.094609
v -0.373028 -0.087587 -1.360117
v -0.373028 0.087587 -1.360117
v 0.237050 -0.087587 -1.441045
v 0.237050 0.087587 -1.441045
v -0.258720 -0.087587 -1.224649
v -0.258722 0.087587 -1.224650
v 0.009178 0.087587 -1.226927
v 0.009176 -0.087587 -1.226927
vt 0.276173 0.236133
vt 0.257788 0.172790
vt 0.253772 0.298139
vt 0.199225 0.335104
vt 0.133414 0.332999
vt 0.081361 0.292554
vt 0.062990 0.229230
vt 0.085372 0.167225
vt 0.139825 0.130282
vt 0.205676 0.132377
vt 0.748823 0.757440
vt 0.710653 0.794017
vt 0.701274 0.846011
vt 0.724228 0.893570
vt 0.770736 0.918563
vt 0.823052 0.911463
vt 0.861219 0.874974
vt 0.870659 0.823004
vt 0.847749 0.775401
vt 0.801216 0.750345
vt 0.729462 0.802649
vt 0.739610 0.838309
vt 0.721570 0.841933
vt 0.750737 0.864810
vt 0.738263 0.878344
vt 0.775307 0.879711
vt 0.773156 0.897994
vt 0.803942 0.877329
vt 0.812935 0.893392
vt 0.825713 0.858575
vt 0.842421 0.866292
vt 0.832318 0.830603
vt 0.850361 0.827027
vt 0.821182 0.804080
vt 0.833684 0.790584
vt 0.796596 0.789162
vt 0.798770 0.770895
vt 0.767942 0.791546
vt 0.758945 0.775496
vt 0.746180 0.810323
vt 0.200375 0.235648
vt 0.192809 0.253400
vt 0.175905 0.263102
vt 0.156910 0.261833
vt 0.142428 0.248845
vt 0.138431 0.230168
vt 0.146815 0.212984
vt 0.162413 0.202418
vt 0.181708 0.203931
vt 0.196293 0.216680
vt 0.201250 0.235688
vt 0.217788 0.273177
vt 0.193491 0.253940
vt 0.184740 0.293781
vt 0.176146 0.263941
vt 0.146023 0.291081
vt 0.156613 0.262632
vt 0.116168 0.266024
vt 0.141710 0.249314
vt 0.106763 0.228269
vt 0.137566 0.230116
vt 0.121390 0.192173
vt 0.146120 0.212416
vt 0.154240 0.171644
vt 0.162190 0.201577
vt 0.193106 0.174301
vt 0.182019 0.203122
vt 0.222962 0.199317
vt 0.197022 0.216205
vt 0.232411 0.237137
vt 0.237204 0.237082
vt 0.250753 0.296051
vt 0.221695 0.275948
vt 0.198007 0.331642
vt 0.186282 0.298317
vt 0.134467 0.329483
vt 0.144601 0.295636
vt 0.084277 0.290325
vt 0.112336 0.268874
vt 0.066660 0.229143
vt 0.101978 0.228309
vt 0.088393 0.169310
vt 0.117469 0.189378
vt 0.141039 0.133748
vt 0.152721 0.167102
vt 0.204628 0.135893
vt 0.194537 0.169736
vt 0.254872 0.175018
vt 0.226805 0.196463
vt 0.272505 0.236223
vt 0.769381 0.794618
vt 0.764307 0.821148
vt 0.749151 0.811961
vt 0.760633 0.836412
vt 0.742976 0.837888
vt 0.766634 0.850920
vt 0.753214 0.862492
vt 0.780013 0.859130
vt 0.775950 0.876379
vt 0.795662 0.857909
vt 0.802506 0.874255
vt 0.807608 0.847727
vt 0.822745 0.856932
vt 0.811290 0.832465
vt 0.828952 0.831017
vt 0.805288 0.817954
vt 0.818704 0.806395
vt 0.791904 0.809736
vt 0.795953 0.792491
vt 0.776247 0.810958
vt 0.800840 0.035278
vt 0.948209 0.035278
vt 0.948209 0.070557
vt 0.800840 0.070557
vt 0.000000 0.000000
vt 0.132861 0.000000
vt 0.132861 0.035278
vt 0.000000 0.035278
vt 0.195434 0.070557
vt 0.195434 0.035278
vt 0.293786 0.035278
vt 0.293786 0.070557
vt 0.730383 0.035278
vt 0.730383 0.000000
vt 0.831111 0.000000
vt 0.831111 0.035278
vt 0.399582 0.070557
vt 0.399582 0.035278
vt 0.465553 0.035278
vt 0.465553 0.070557
vt 0.575259 0.000000
vt 0.575259 0.035278
vt 0.509496 0.035278
vt 0.509496 0.000000
vt 0.781452 0.099942
vt 0.630482 0.272070
vt 0.678401 0.100811
vt 0.603432 0.263560
vt 0.564559 0.151201
vt 0.452428 0.366360
vt 0.478340 0.250597
vt 0.586200 0.304174
vt 0.465821 0.499038
vt 0.282215 0.000000
vt 0.438873 0.000000
vt 0.438873 0.035278
vt 0.282215 0.035278
vt 0.661404 0.035278
vt 0.661404 0.070557
vt 0.536400 0.070557
vt 0.536400 0.035278
vt 0.036311 0.641788
vt 0.090014 0.521016
vt 0.216470 0.785690
vt 0.198762 0.803258
vt 0.054186 0.773937
vt 0.106346 0.880481
vt 0.232352 0.866992
vt 0.213343 0.957064
vt 0.092736 0.035278
vt 0.092736 0.070557
vt 0.936355 0.000000
vt 0.936355 0.035278
vt 0.425891 0.956343
vt 0.335790 0.979556
vt 0.249304 0.824167
vt 0.607512 0.317134
vt 0.541893 0.600206
vt 0.437552 0.606622
vt 0.468948 0.646281
vt 0.339103 0.748051
vt 0.307142 0.708836
vt 0.056651 0.035278
vt 0.056651 0.070557
vt 0.000000 0.070557
vt 0.000000 0.035278
vt 0.735539 0.325178
vt 0.885515 0.393910
vt 0.864219 0.439789
vt 0.713590 0.370759
vt 0.295803 0.784753
vt 0.263421 0.745894
vt 0.662441 0.344902
vt 0.684882 0.299570
vt 1.000000 0.000000
vt 1.000000 0.035278
vt 0.532886 0.876081
vt 0.490994 0.917489
vt 0.843792 0.125025
vt 0.894176 0.155538
vt 0.600595 0.638095
vt 0.655878 0.657883
vt 0.134993 0.475167
vt 0.184148 0.443048
vt 0.794152 0.649900
vt 0.881635 0.493881
vt 0.855509 0.584145
vt 0.320478 0.418608
vt 0.395463 0.468265
vt 0.441892 0.549962
vt 0.586039 0.797994
vt 0.501154 0.647209
vt 0.565393 0.712640
vt 0.964053 0.219099
vt 0.963853 0.306914
vt 0.916620 0.385507
vt 0.800840 0.035278
vt 0.948209 0.035278
vt 0.948209 0.070557
vt 0.800840 0.070557
vt 0.000000 0.000000
vt 0.132861 0.000000
vt 0.132861 0.035278
vt 0.000000 0.035278
vt 0.195434 0.035278
vt 0.293786 0.035278
vt 0.293786 0.070557
vt 0.195434 0.070557
vt 0.730383 0.000000
vt 0.831111 0.000000
vt 0.831111 0.035278
vt 0.730383 0.035278
vt 0.399582 0.035278
vt 0.465553 0.035278
vt 0.465553 0.070557
vt 0.399582 0.070557
vt 0.575259 0.035278
vt 0.509496 0.035278
vt 0.509496 0.000000
vt 0.575259 0.000000
vt 0.282215 0.000000
vt 0.438873 0.000000
vt 0.438873 0.035278
vt 0.282215 0.035278
vt 0.661404 0.070557
vt 0.536400 0.070557
vt 0.536400 0.035278
vt 0.661404 0.035278
vt 0.092736 0.035278
vt 0.092736 0.070557
vt 0.936355 0.000000
vt 0.936355 0.035278
vt 0.056651 0.070557
vt 0.000000 0.070557
vt 0.000000 0.035278
vt 0.056651 0.035278
vt 1.000000 0.000000
vt 1.000000 0.035278
vn 0.166080 0.978702 -0.120664
vn 0.806086 -0.085040 -0.585656
vn 0.307897 -0.085040 -0.947612
vn 0.063437 0.978702 -0.195239
vn 0.205286 0.978702 -0.000000
vn 0.996378 -0.085040 0.000000
vn -0.307897 -0.085040 -0.947612
vn -0.063437 0.978702 -0.195239
vn -0.806086 -0.085040 -0.585656
vn -0.166080 0.978702 -0.120664
vn -0.996378 -0.085040 0.000000
vn -0.205286 0.978702 0.000000
vn -0.806086 -0.085040 0.585656
vn -0.166080 0.978702 0.120664
vn -0.307898 -0.085040 0.947611
vn -0.063437 0.978702 0.195239
vn 0.307898 -0.085040 0.947611
vn 0.063437 0.978702 0.195239
vn 0.806086 -0.085040 0.585656
vn 0.166080 0.978702 0.120664
vn 0.091436 -0.993593 -0.066432
vn 0.805423 0.094160 -0.585174
vn 0.995557 0.094160 0.000000
vn 0.113021 -0.993593 0.000000
vn 0.034925 -0.993593 -0.107489
vn 0.307643 0.094160 -0.946831
vn -0.034925 -0.993593 -0.107489
vn -0.307644 0.094160 -0.946831
vn -0.091436 -0.993593 -0.066432
vn -0.805423 0.094160 -0.585174
vn -0.113021 -0.993593 0.000000
vn -0.995557 0.094160 0.000000
vn -0.091436 -0.993593 0.066432
vn -0.805422 0.094160 0.585174
vn -0.034925 -0.993593 0.107489
vn -0.307644 0.094160 0.946831
vn 0.034925 -0.993593 0.107489
vn 0.307644 0.094160 0.946831
vn 0.091436 -0.993593 0.066432
vn 0.805422 0.094160 0.585174
vn 0.809017 -0.000340 -0.587785
vn 0.309016 -0.000340 -0.951057
vn -0.309016 -0.000340 -0.951057
vn -0.809017 -0.000340 -0.587785
vn -1.000000 -0.000339 0.000000
vn -0.809017 -0.000339 0.587785
vn -0.309017 -0.000339 0.951057
vn 0.309017 -0.000339 0.951057
vn 0.809017 -0.000339 0.587786
vn 1.000000 -0.000340 0.000000
vn -0.808190 0.045225 0.587183
vn -0.090405 0.993737 0.065683
vn -0.034531 0.993737 0.106277
vn -0.308700 0.045225 0.950084
vn -0.998977 0.045224 -0.000000
vn -0.111746 0.993737 -0.000000
vn 0.034532 0.993737 0.106277
vn 0.308700 0.045225 0.950084
vn 0.090405 0.993737 0.065683
vn 0.808190 0.045225 0.587183
vn 0.111746 0.993737 0.000000
vn 0.998977 0.045224 -0.000000
vn 0.090405 0.993737 -0.065683
vn 0.808189 0.045225 -0.587184
vn 0.034532 0.993737 -0.106277
vn 0.308701 0.045225 -0.950083
vn -0.034532 0.993737 -0.106277
vn -0.308701 0.045225 -0.950083
vn -0.090405 0.993737 -0.065683
vn -0.808189 0.045224 -0.587184
vn -0.808702 -0.027908 0.587556
vn -0.123103 -0.988355 0.089440
vn -0.152164 -0.988355 0.000000
vn -0.999610 -0.027908 -0.000000
vn -0.308896 -0.027908 0.950686
vn -0.047021 -0.988355 0.144717
vn 0.308896 -0.027908 0.950686
vn 0.047021 -0.988355 0.144717
vn 0.808702 -0.027908 0.587556
vn 0.123104 -0.988355 0.089440
vn 0.999611 -0.027908 -0.000000
vn 0.152164 -0.988355 -0.000000
vn 0.808702 -0.027908 -0.587556
vn 0.123104 -0.988355 -0.089440
vn 0.308897 -0.027908 -0.950686
vn 0.047021 -0.988355 -0.144717
vn -0.308897 -0.027908 -0.950686
vn -0.047021 -0.988355 -0.144717
vn -0.808702 -0.027908 -0.587556
vn -0.123104 -0.988355 -0.089440
vn -0.467263 -0.069648 0.881371
vn -0.040143 -0.069671 0.996762
vn -0.040143 0.069671 0.996762
vn -0.467263 0.069648 0.881371
vn 0.379266 -0.070404 0.922606
vn 0.379266 0.070404 0.922606
vn -0.162234 0.064846 -0.984619
vn -0.162234 -0.064846 -0.984619
vn -0.762405 -0.066776 -0.643646
vn -0.762405 0.066776 -0.643646
vn 0.698213 0.066893 -0.712758
vn 0.698213 -0.066893 -0.712758
vn 0.071421 -0.066989 -0.995194
vn 0.071421 0.066990 -0.995194
vn -0.972187 0.069723 -0.223586
vn -0.972187 -0.069723 -0.223586
vn -0.996465 -0.072637 0.042200
vn -0.996465 0.072637 0.042200
vn 0.926213 -0.067848 -0.370846
vn 0.926213 0.067848 -0.370846
vn 0.996473 0.071877 0.043295
vn 0.996473 -0.071877 0.043295
vn -0.012091 -0.999899 0.007491
vn 0.023262 -0.999674 -0.010483
vn -0.032580 -0.998958 0.031970
vn 0.018688 -0.999169 -0.036227
vn -0.016480 -0.999152 0.037745
vn 0.002229 -0.999983 0.005425
vn -0.008693 -0.999747 0.020768
vn -0.011716 -0.999510 -0.029024
vn 0.015684 -0.999693 0.019175
vn 0.692696 -0.069841 0.717840
vn 0.933118 -0.070414 0.352607
vn 0.933118 0.070414 0.352607
vn 0.692696 0.069841 0.717840
vn -0.768569 -0.070322 0.635890
vn -0.768569 0.070321 0.635890
vn -0.954154 0.071709 0.290600
vn -0.954154 -0.071709 0.290600
vn 0.015684 0.999693 0.019175
vn 0.010777 0.999914 0.007455
vn -0.017912 0.999825 -0.005366
vn -0.012525 0.999493 -0.029259
vn 0.002229 0.999983 0.005425
vn -0.009765 0.999793 0.017835
vn 0.021454 0.999122 -0.035994
vn -0.017594 0.999058 0.039658
vn 0.287128 -0.063973 -0.955754
vn 0.287128 0.063974 -0.955754
vn -0.369258 -0.066976 -0.926910
vn -0.369258 0.066977 -0.926910
vn -0.012091 0.999899 0.007491
vn -0.032593 0.998817 0.036086
vn 0.022206 0.999735 -0.006042
vn -0.018183 -0.999820 -0.005447
vn 0.010777 -0.999914 0.007455
vn -0.008961 0.999875 0.013008
vn 0.009654 0.999853 0.014154
vn 0.011775 0.999803 0.015980
vn -0.009276 0.999846 0.014894
vn 0.327459 -0.078334 -0.941613
vn 0.327463 0.078333 -0.941611
vn -0.398144 0.077778 -0.914020
vn -0.398140 -0.077779 -0.914021
vn 0.011775 -0.999803 0.015980
vn 0.009654 -0.999853 0.014154
vn -0.008961 -0.999875 0.013008
vn -0.009276 -0.999846 0.014894
vn 0.020368 0.999793 -0.000451
vn -0.016374 0.999866 -0.000765
vn -0.016374 -0.999866 -0.000765
vn 0.020368 -0.999792 -0.000451
vn -0.007392 0.999912 0.011032
vn -0.005748 0.999983 0.001370
vn -0.005748 -0.999983 0.001370
vn -0.007392 -0.999912 0.011032
vn 0.004295 -0.999991 0.000530
vn 0.010789 -0.999928 0.005293
vn 0.004294 0.999991 0.000530
vn 0.010789 0.999928 0.005293
vn 0.011283 -0.999936 0.001336
vn -0.032043 -0.996254 -0.080318
vn 0.007112 -0.994986 -0.099758
vn 0.011283 0.999935 0.001336
vn 0.007112 0.994986 -0.099758
vn -0.032043 0.996254 -0.080317
vn -0.013328 0.999909 0.002178
vn 0.027822 0.995326 -0.092479
vn -0.020298 0.992152 -0.123383
vn -0.013328 -0.999909 0.002178
vn -0.020298 -0.992152 -0.123383
vn 0.027822 -0.995326 -0.092479
s 1
g Sliced_Meat1
usemtl Sliced_meat1SG
f 11/90/1 12/1/2 14/3/3 13/72/4
f 12/1/2 11/90/1 29/88/5 30/2/6
f 13/72/4 14/3/3 16/4/7 15/74/8
f 15/74/8 16/4/7 18/5/9 17/76/10
f 17/76/10 18/5/9 20/6/11 19/78/12
f 19/78/12 20/6/11 22/7/13 21/80/14
f 21/80/14 22/7/13 24/8/15 23/82/16
f 23/82/16 24/8/15 26/9/17 25/84/18
f 25/84/18 26/9/17 28/10/19 27/86/20
f 27/86/20 28/10/19 30/2/6 29/88/5
f 31/91/21 32/38/22 50/36/23 49/109/24
f 32/38/22 31/91/21 33/93/25 34/40/26
f 34/40/26 33/93/25 35/95/27 36/22/28
f 36/22/28 35/95/27 37/97/29 38/24/30
f 38/24/30 37/97/29 39/99/31 40/26/32
f 40/26/32 39/99/31 41/101/33 42/28/34
f 42/28/34 41/101/33 43/103/35 44/30/36
f 44/30/36 43/103/35 45/105/37 46/32/38
f 46/32/38 45/105/37 47/107/39 48/34/40
f 48/34/40 47/107/39 49/109/24 50/36/23
f 14/12/3 12/11/2 10/39/41 1/21/42
f 16/13/7 14/12/3 1/21/42 2/23/43
f 18/14/9 16/13/7 2/23/43 3/25/44
f 20/15/11 18/14/9 3/25/44 4/27/45
f 22/16/13 20/15/11 4/27/45 5/29/46
f 24/17/15 22/16/13 5/29/46 6/31/47
f 26/18/17 24/17/15 6/31/47 7/33/48
f 28/19/19 26/18/17 7/33/48 8/35/49
f 30/20/6 28/19/19 8/35/49 9/37/50
f 12/11/2 30/20/6 9/37/50 10/39/41
f 2/23/43 1/21/42 34/40/26 36/22/28
f 3/25/44 2/23/43 36/22/28 38/24/30
f 4/27/45 3/25/44 38/24/30 40/26/32
f 5/29/46 4/27/45 40/26/32 42/28/34
f 6/31/47 5/29/46 42/28/34 44/30/36
f 7/33/48 6/31/47 44/30/36 46/32/38
f 8/35/49 7/33/48 46/32/38 48/34/40
f 9/37/50 8/35/49 48/34/40 50/36/23
f 10/39/41 9/37/50 50/36/23 32/38/22
f 1/21/42 10/39/41 32/38/22 34/40/26
f 51/70/51 52/71/52 54/73/53 53/52/54
f 52/71/52 51/70/51 69/68/55 70/89/56
f 53/52/54 54/73/53 56/75/57 55/54/58
f 55/54/58 56/75/57 58/77/59 57/56/60
f 57/56/60 58/77/59 60/79/61 59/58/62
f 59/58/62 60/79/61 62/81/63 61/60/64
f 61/60/64 62/81/63 64/83/65 63/62/66
f 63/62/66 64/83/65 66/85/67 65/64/68
f 65/64/68 66/85/67 68/87/69 67/66/70
f 67/66/70 68/87/69 70/89/56 69/68/55
f 71/51/71 72/41/72 90/50/73 89/69/74
f 72/41/72 71/51/71 73/53/75 74/42/76
f 74/42/76 73/53/75 75/55/77 76/43/78
f 76/43/78 75/55/77 77/57/79 78/44/80
f 78/44/80 77/57/79 79/59/81 80/45/82
f 80/45/82 79/59/81 81/61/83 82/46/84
f 82/46/84 81/61/83 83/63/85 84/47/86
f 84/47/86 83/63/85 85/65/87 86/48/88
f 86/48/88 85/65/87 87/67/89 88/49/90
f 88/49/90 87/67/89 89/69/74 90/50/73
f 73/53/75 71/51/71 51/70/51 53/52/54
f 75/55/77 73/53/75 53/52/54 55/54/58
f 77/57/79 75/55/77 55/54/58 57/56/60
f 79/59/81 77/57/79 57/56/60 59/58/62
f 81/61/83 79/59/81 59/58/62 61/60/64
f 83/63/85 81/61/83 61/60/64 63/62/66
f 85/65/87 83/63/85 63/62/66 65/64/68
f 87/67/89 85/65/87 65/64/68 67/66/70
f 89/69/74 87/67/89 67/66/70 69/68/55
f 71/51/71 89/69/74 69/68/55 51/70/51
f 54/73/53 52/71/52 11/90/1 13/72/4
f 56/75/57 54/73/53 13/72/4 15/74/8
f 58/77/59 56/75/57 15/74/8 17/76/10
f 60/79/61 58/77/59 17/76/10 19/78/12
f 62/81/63 60/79/61 19/78/12 21/80/14
f 64/83/65 62/81/63 21/80/14 23/82/16
f 66/85/67 64/83/65 23/82/16 25/84/18
f 68/87/69 66/85/67 25/84/18 27/86/20
f 70/89/56 68/87/69 27/86/20 29/88/5
f 52/71/52 70/89/56 29/88/5 11/90/1
f 33/93/25 31/91/21 72/110/72 74/92/76
f 35/95/27 33/93/25 74/92/76 76/94/78
f 37/97/29 35/95/27 76/94/78 78/96/80
f 39/99/31 37/97/29 78/96/80 80/98/82
f 41/101/33 39/99/31 80/98/82 82/100/84
f 43/103/35 41/101/33 82/100/84 84/102/86
f 45/105/37 43/103/35 84/102/86 86/104/88
f 47/107/39 45/105/37 86/104/88 88/106/90
f 49/109/24 47/107/39 88/106/90 90/108/73
f 31/91/21 49/109/24 90/108/73 72/110/72
s 5
f 145/111/91 146/112/92 147/113/93 148/114/94
f 146/115/92 149/116/95 150/117/96 147/118/93
f 151/119/97 152/120/98 153/121/99 154/122/100
f 156/123/101 155/124/102 157/125/103 158/126/104
f 159/127/105 160/128/106 161/129/107 162/130/108
f 163/131/109 164/132/110 165/133/111 166/134/112
f 99/135/113 133/136/114 105/137/115
f 105/137/115 133/136/114 132/138/116 106/139/117
f 110/140/118 91/141/119 131/142/120 109/143/121
f 91/141/119 106/139/117 132/138/116 131/142/120
f 167/144/122 168/145/123 169/146/124 170/147/125
f 171/148/126 172/149/127 173/150/128 174/151/129
f 111/152/130 103/153/131 127/154/132 126/155/133
f 112/156/134 111/152/130 126/155/133 92/157/135
f 125/158/136 108/159/137 92/157/135 126/155/133
f 153/121/99 160/128/106 159/127/105 154/122/100
f 163/131/109 155/124/102 156/123/101 164/132/110
f 145/111/91 148/114/94 172/149/127 171/148/126
f 167/144/122 170/147/125 150/117/96 149/116/95
f 175/160/138 152/120/98 151/119/97 176/161/139
f 157/125/103 177/162/140 178/163/141 158/126/104
f 98/164/142 107/165/143 128/166/144
f 125/158/136 128/166/144 107/165/143 108/159/137
f 134/167/145 101/168/146 109/143/121 131/142/120
f 121/169/147 122/170/148 129/171/149 130/172/150
f 179/173/151 180/174/152 181/175/153 182/176/154
f 136/177/155 124/178/156 123/179/157 135/180/158
f 129/171/149 138/181/159 139/182/160 130/172/150
f 142/183/161 143/184/162 136/177/155 135/180/158
f 176/161/139 180/174/152 179/173/151 175/160/138
f 178/163/141 177/162/140 182/185/154 181/186/153
f 129/171/149 97/187/163 137/188/164 138/181/159
f 144/189/165 100/190/166 136/177/155 143/184/162
f 141/191/167 142/183/161 135/180/158 102/192/168
f 140/193/169 104/194/170 130/172/150 139/182/160
f 123/179/157 96/195/171 102/192/168 135/180/158
f 123/179/157 120/196/172 119/197/173 96/195/171
f 104/194/170 95/198/174 121/169/147 130/172/150
f 121/169/147 95/198/174 118/199/175 117/200/176
f 97/187/163 129/171/149 122/170/148 93/201/177
f 122/170/148 114/202/178 113/203/179 93/201/177
f 124/178/156 136/177/155 100/190/166 94/204/180
f 124/178/156 94/204/180 116/205/181 115/206/182
f 125/158/136 126/155/133 127/154/132 128/166/144
f 134/167/145 131/142/120 132/138/116 133/136/114
f 138/181/159 137/188/164 98/164/142 128/166/144
f 139/182/160 138/181/159 128/166/144 127/154/132
f 103/153/131 140/193/169 139/182/160 127/154/132
f 166/134/112 165/133/111 169/146/124 168/145/123
f 101/168/146 134/167/145 142/183/161 141/191/167
f 134/167/145 133/136/114 143/184/162 142/183/161
f 99/135/113 144/189/165 143/184/162 133/136/114
f 162/130/108 161/129/107 174/151/129 173/150/128
f 106/207/117 91/208/119 146/112/92 145/111/91
f 92/209/135 108/210/137 148/114/94 147/113/93
f 91/211/119 110/212/118 149/116/95 146/115/92
f 112/213/134 92/214/135 147/118/93 150/117/96
f 116/215/181 94/216/180 153/121/99 152/120/98
f 93/217/177 113/218/179 151/119/97 154/122/100
f 96/219/171 119/220/173 157/125/103 155/124/102
f 118/221/175 95/222/174 156/123/101 158/126/104
f 100/223/166 144/224/165 161/129/107 160/128/106
f 137/225/164 97/226/163 159/127/105 162/130/108
f 104/227/170 140/228/169 165/133/111 164/132/110
f 141/229/167 102/230/168 163/131/109 166/134/112
f 109/231/121 101/232/146 168/145/123 167/144/122
f 103/233/131 111/234/130 170/147/125 169/146/124
f 107/235/143 98/236/142 173/150/128 172/149/127
f 99/237/113 105/238/115 171/148/126 174/151/129
f 94/216/180 100/223/166 160/128/106 153/121/99
f 97/226/163 93/217/177 154/122/100 159/127/105
f 102/230/168 96/219/171 155/124/102 163/131/109
f 95/222/174 104/227/170 164/132/110 156/123/101
f 108/210/137 107/235/143 172/149/127 148/114/94
f 105/238/115 106/207/117 145/111/91 171/148/126
f 111/234/130 112/213/134 150/117/96 170/147/125
f 110/212/118 109/231/121 167/144/122 149/116/95
f 115/239/182 116/215/181 152/120/98 175/160/138
f 113/218/179 114/240/178 176/161/139 151/119/97
f 119/220/173 120/241/172 177/162/140 157/125/103
f 117/242/176 118/221/175 158/126/104 178/163/141
f 122/243/148 121/244/147 181/175/153 180/174/152
f 123/245/157 124/246/156 179/173/151 182/176/154
f 114/240/178 122/243/148 180/174/152 176/161/139
f 124/246/156 115/239/182 175/160/138 179/173/151
f 120/241/172 123/247/157 182/185/154 177/162/140
f 121/248/147 117/242/176 178/163/141 181/186/153
f 140/228/169 103/233/131 169/146/124 165/133/111
f 101/232/146 141/229/167 166/134/112 168/145/123
f 144/224/165 99/237/113 174/151/129 161/129/107
f 98/236/142 137/225/164 162/130/108 173/150/128
