# This file uses centimeters as units for non-parametric coordinates.

g default
v -0.958710 1.059770 0.329773
v -1.338561 -0.000000 0.329773
v -1.338561 1.338561 -0.329777
v 0.000000 1.398200 0.329773
v -1.828103 -0.000000 -0.329777
v 0.000000 1.828103 -0.329777
v 0.000000 -0.000000 0.329777
v -1.589654 0.679216 -0.051014
v -0.679216 1.589654 -0.051014
v -0.704506 0.704506 0.329775
v -1.705266 -0.000000 -0.030254
v -1.705266 0.729796 -0.329777
v -0.729796 1.705266 -0.329777
v 0.000000 1.705266 -0.030254
v 0.000000 0.704506 0.329775
v -0.704506 -0.000000 0.329775
v -1.246433 0.628636 0.329773
v -1.246433 1.246434 -0.071774
v -0.628636 1.246434 0.329773
v 0.958710 1.059770 0.329773
v 1.338561 -0.000000 0.329773
v 1.338561 1.338561 -0.329777
v 1.828103 -0.000000 -0.329777
v 1.589655 0.679216 -0.051014
v 0.679216 1.589654 -0.051014
v 0.704506 0.704506 0.329775
v 1.705266 -0.000000 -0.030254
v 1.705266 0.729796 -0.329777
v 0.729796 1.705266 -0.329777
v 0.704507 -0.000000 0.329775
v 1.246433 0.628636 0.329773
v 1.246433 1.246434 -0.071774
v 0.628636 1.246434 0.329773
v -0.958710 -1.059770 0.329773
v -1.338561 -1.338561 -0.329777
v 0.000000 -1.398200 0.329773
v 0.000000 -1.828103 -0.329777
v -1.589654 -0.679216 -0.051014
v -0.679216 -1.589654 -0.051014
v -0.704506 -0.704506 0.329775
v -1.705266 -0.729796 -0.329777
v -0.729796 -1.705266 -0.329777
v 0.000000 -1.705266 -0.030254
v 0.000000 -0.704506 0.329775
v -1.246433 -0.628636 0.329773
v -1.246433 -1.246434 -0.071774
v -0.628636 -1.246434 0.329773
v 0.958710 -1.059770 0.329773
v 1.338561 -1.338561 -0.329777
v 1.589655 -0.679216 -0.051014
v 0.679216 -1.589654 -0.051014
v 0.704506 -0.704506 0.329775
v 1.705266 -0.729796 -0.329777
v 0.729796 -1.705266 -0.329777
v 1.246433 -0.628636 0.329773
v 1.246433 -1.246434 -0.071774
v 0.628636 -1.246434 0.329773
vt 0.646831 0.005540
vt 0.646831 0.038266
vt 0.508966 0.038266
vt 0.508966 0.005541
vt 0.189363 0.117495
vt 0.189363 0.042178
vt 0.300000 0.042178
vt 0.300000 0.117495
vt 0.388599 0.042178
vt 0.388599 0.117495
vt 0.394014 0.038267
vt 0.394014 0.005540
vt 0.281022 0.038267
vt 0.281022 0.005540
vt 0.464336 0.042178
vt 0.464336 0.117495
vt 0.566123 0.042178
vt 0.566123 0.117495
vt 0.145487 0.038266
vt 0.145487 0.005540
vt 0.727374 0.961520
vt 0.727374 0.833262
vt 0.847693 0.833262
vt 0.846640 0.932521
vt 0.727374 0.715576
vt 0.847693 0.715576
vt 0.971739 0.715576
vt 0.940633 0.837474
vt 0.902298 0.896661
vt 0.646831 0.005540
vt 0.508966 0.005541
vt 0.508966 0.038266
vt 0.646831 0.038266
vt 0.189363 0.117495
vt 0.300000 0.117495
vt 0.300000 0.042178
vt 0.189363 0.042178
vt 0.388599 0.117495
vt 0.388599 0.042178
vt 0.394014 0.005540
vt 0.394014 0.038267
vt 0.281022 0.005540
vt 0.281022 0.038267
vt 0.464336 0.117495
vt 0.464336 0.042178
vt 0.566123 0.117495
vt 0.566123 0.042178
vt 0.145487 0.005540
vt 0.145487 0.038266
vt 0.971739 0.715576
vt 0.940633 0.837474
vt 0.847693 0.833262
vt 0.847693 0.715576
vt 0.727374 0.833262
vt 0.727374 0.715576
vt 0.846640 0.932521
vt 0.727374 0.961520
vt 0.902298 0.896661
vt 0.646831 0.005540
vt 0.508966 0.005541
vt 0.508966 0.038266
vt 0.646831 0.038266
vt 0.189363 0.117495
vt 0.300000 0.117495
vt 0.300000 0.042178
vt 0.189363 0.042178
vt 0.388599 0.117495
vt 0.388599 0.042178
vt 0.394014 0.005540
vt 0.394014 0.038267
vt 0.281022 0.005540
vt 0.281022 0.038267
vt 0.464336 0.117495
vt 0.464336 0.042178
vt 0.566123 0.117495
vt 0.566123 0.042178
vt 0.145487 0.005540
vt 0.145487 0.038266
vt 0.971739 0.715576
vt 0.940633 0.837474
vt 0.847693 0.833262
vt 0.847693 0.715576
vt 0.727374 0.833262
vt 0.727374 0.715576
vt 0.846640 0.932521
vt 0.727374 0.961520
vt 0.902298 0.896661
vt 0.646831 0.005540
vt 0.646831 0.038266
vt 0.508966 0.038266
vt 0.508966 0.005541
vt 0.189363 0.117495
vt 0.189363 0.042178
vt 0.300000 0.042178
vt 0.300000 0.117495
vt 0.388599 0.042178
vt 0.388599 0.117495
vt 0.394014 0.038267
vt 0.394014 0.005540
vt 0.281022 0.038267
vt 0.281022 0.005540
vt 0.464336 0.042178
vt 0.464336 0.117495
vt 0.566123 0.042178
vt 0.566123 0.117495
vt 0.145487 0.038266
vt 0.145487 0.005540
vt 0.727374 0.961520
vt 0.727374 0.833262
vt 0.847693 0.833262
vt 0.846640 0.932521
vt 0.727374 0.715576
vt 0.847693 0.715576
vt 0.971739 0.715576
vt 0.940633 0.837474
vt 0.902298 0.896661
vn -0.919438 0.000000 0.393235
vn -0.815154 0.000000 0.579244
vn -0.771498 0.280972 0.570830
vn -0.854676 0.315976 0.411932
vn -0.815154 0.000000 0.579244
vn -0.717719 0.000000 0.696333
vn -0.683576 0.278575 0.674626
vn -0.771498 0.280972 0.570830
vn -0.771498 0.280972 0.570830
vn -0.683576 0.278575 0.674626
vn -0.529584 0.551821 0.644231
vn -0.595967 0.583511 0.551669
vn -0.854676 0.315976 0.411932
vn -0.771498 0.280972 0.570830
vn -0.595967 0.583511 0.551669
vn -0.636929 0.636928 0.434331
vn -0.636929 0.636928 0.434331
vn -0.595967 0.583511 0.551669
vn -0.272952 0.779974 0.563150
vn -0.315975 0.854677 0.411930
vn -0.595967 0.583511 0.551669
vn -0.529584 0.551821 0.644231
vn -0.260082 0.697447 0.667777
vn -0.272952 0.779974 0.563150
vn -0.272952 0.779974 0.563150
vn -0.260082 0.697447 0.667777
vn 0.000000 0.717720 0.696332
vn 0.000000 0.815155 0.579243
vn -0.315975 0.854677 0.411930
vn -0.272952 0.779974 0.563150
vn 0.000000 0.815155 0.579243
vn 0.000000 0.919438 0.393234
vn -0.000005 0.000000 1.000000
vn -0.000004 0.000000 1.000000
vn -0.000002 0.000002 1.000000
vn -0.000003 0.000001 1.000000
vn -0.000004 0.000000 1.000000
vn 0.000000 0.000000 1.000000
vn 0.000000 0.000002 1.000000
vn -0.000002 0.000002 1.000000
vn -0.000002 0.000002 1.000000
vn 0.000000 0.000002 1.000000
vn 0.000000 0.000003 1.000000
vn 0.000001 0.000003 1.000000
vn -0.000003 0.000001 1.000000
vn -0.000002 0.000002 1.000000
vn 0.000001 0.000003 1.000000
vn 0.000005 0.000003 1.000000
vn 0.919438 -0.000000 0.393234
vn 0.854678 0.315975 0.411929
vn 0.771499 0.280971 0.570828
vn 0.815154 -0.000000 0.579244
vn 0.815154 -0.000000 0.579244
vn 0.771499 0.280971 0.570828
vn 0.683576 0.278575 0.674626
vn 0.717718 0.000000 0.696333
vn 0.771499 0.280971 0.570828
vn 0.595968 0.583510 0.551668
vn 0.529585 0.551821 0.644231
vn 0.683576 0.278575 0.674626
vn 0.854678 0.315975 0.411929
vn 0.636931 0.636927 0.434330
vn 0.595968 0.583510 0.551668
vn 0.771499 0.280971 0.570828
vn 0.636931 0.636927 0.434330
vn 0.315976 0.854677 0.411930
vn 0.272952 0.779974 0.563149
vn 0.595968 0.583510 0.551668
vn 0.595968 0.583510 0.551668
vn 0.272952 0.779974 0.563149
vn 0.260082 0.697447 0.667777
vn 0.529585 0.551821 0.644231
vn 0.272952 0.779974 0.563149
vn 0.000000 0.815155 0.579243
vn 0.000000 0.717720 0.696332
vn 0.260082 0.697447 0.667777
vn 0.315976 0.854677 0.411930
vn 0.000000 0.919438 0.393234
vn 0.000000 0.815155 0.579243
vn 0.272952 0.779974 0.563149
vn 0.000005 -0.000000 1.000000
vn 0.000003 0.000001 1.000000
vn 0.000002 0.000002 1.000000
vn 0.000004 0.000000 1.000000
vn 0.000004 0.000000 1.000000
vn 0.000002 0.000002 1.000000
vn 0.000000 0.000002 1.000000
vn 0.000000 0.000000 1.000000
vn 0.000002 0.000002 1.000000
vn 0.000000 0.000003 1.000000
vn 0.000000 0.000003 1.000000
vn 0.000000 0.000002 1.000000
vn 0.000003 0.000001 1.000000
vn -0.000004 0.000003 1.000000
vn 0.000000 0.000003 1.000000
vn 0.000002 0.000002 1.000000
vn -0.919438 0.000000 0.393235
vn -0.854678 -0.315975 0.411930
vn -0.771499 -0.280971 0.570829
vn -0.815154 0.000000 0.579244
vn -0.815154 0.000000 0.579244
vn -0.771499 -0.280971 0.570829
vn -0.683576 -0.278575 0.674625
vn -0.717719 0.000000 0.696333
vn -0.771499 -0.280971 0.570829
vn -0.595968 -0.583510 0.551668
vn -0.529585 -0.551821 0.644231
vn -0.683576 -0.278575 0.674625
vn -0.854678 -0.315975 0.411930
vn -0.636931 -0.636927 0.434331
vn -0.595968 -0.583510 0.551668
vn -0.771499 -0.280971 0.570829
vn -0.636931 -0.636927 0.434331
vn -0.315976 -0.854677 0.411930
vn -0.272952 -0.779974 0.563150
vn -0.595968 -0.583510 0.551668
vn -0.595968 -0.583510 0.551668
vn -0.272952 -0.779974 0.563150
vn -0.260082 -0.697447 0.667777
vn -0.529585 -0.551821 0.644231
vn -0.272952 -0.779974 0.563150
vn 0.000000 -0.815155 0.579243
vn 0.000000 -0.717720 0.696332
vn -0.260082 -0.697447 0.667777
vn -0.315976 -0.854677 0.411930
vn 0.000000 -0.919438 0.393234
vn 0.000000 -0.815155 0.579243
vn -0.272952 -0.779974 0.563150
vn -0.000005 0.000000 1.000000
vn -0.000003 -0.000001 1.000000
vn -0.000002 -0.000002 1.000000
vn -0.000004 0.000000 1.000000
vn -0.000004 0.000000 1.000000
vn -0.000002 -0.000002 1.000000
vn 0.000000 -0.000002 1.000000
vn 0.000000 0.000000 1.000000
vn -0.000002 -0.000002 1.000000
vn 0.000000 -0.000003 1.000000
vn 0.000000 -0.000003 1.000000
vn 0.000000 -0.000002 1.000000
vn -0.000003 -0.000001 1.000000
vn 0.000004 -0.000003 1.000000
vn 0.000000 -0.000003 1.000000
vn -0.000002 -0.000002 1.000000
vn 0.919438 -0.000000 0.393234
vn 0.815154 -0.000000 0.579244
vn 0.771498 -0.280972 0.570830
vn 0.854677 -0.315976 0.411931
vn 0.815154 -0.000000 0.579244
vn 0.717718 0.000000 0.696333
vn 0.683576 -0.278575 0.674626
vn 0.771498 -0.280972 0.570830
vn 0.771498 -0.280972 0.570830
vn 0.683576 -0.278575 0.674626
vn 0.529584 -0.551821 0.644231
vn 0.595967 -0.583511 0.551669
vn 0.854677 -0.315976 0.411931
vn 0.771498 -0.280972 0.570830
vn 0.595967 -0.583511 0.551669
vn 0.636929 -0.636929 0.434331
vn 0.636929 -0.636929 0.434331
vn 0.595967 -0.583511 0.551669
vn 0.272952 -0.779974 0.563150
vn 0.315975 -0.854677 0.411930
vn 0.595967 -0.583511 0.551669
vn 0.529584 -0.551821 0.644231
vn 0.260082 -0.697447 0.667777
vn 0.272952 -0.779974 0.563150
vn 0.272952 -0.779974 0.563150
vn 0.260082 -0.697447 0.667777
vn 0.000000 -0.717720 0.696332
vn 0.000000 -0.815155 0.579243
vn 0.315975 -0.854677 0.411930
vn 0.272952 -0.779974 0.563150
vn 0.000000 -0.815155 0.579243
vn 0.000000 -0.919438 0.393234
vn 0.000005 -0.000000 1.000000
vn 0.000004 0.000000 1.000000
vn 0.000002 -0.000002 1.000000
vn 0.000003 -0.000001 1.000000
vn 0.000004 0.000000 1.000000
vn 0.000000 0.000000 1.000000
vn 0.000000 -0.000002 1.000000
vn 0.000002 -0.000002 1.000000
vn 0.000002 -0.000002 1.000000
vn 0.000000 -0.000002 1.000000
vn 0.000000 -0.000003 1.000000
vn -0.000001 -0.000003 1.000000
vn 0.000003 -0.000001 1.000000
vn 0.000002 -0.000002 1.000000
vn -0.000001 -0.000003 1.000000
vn -0.000005 -0.000003 1.000000
s off
g London_Window02 London_BuildingMods
f 5/1/1 11/2/2 8/3/3 12/4/4
f 11/5/5 2/6/6 17/7/7 8/8/8
f 8/8/9 17/7/10 1/9/11 18/10/12
f 12/4/13 8/3/14 18/11/15 3/12/16
f 3/12/17 18/11/18 9/13/19 13/14/20
f 18/10/21 1/9/22 19/15/23 9/16/24
f 9/16/25 19/15/26 4/17/27 14/18/28
f 13/14/29 9/13/30 14/19/31 6/20/32
f 2/21/33 16/22/34 10/23/35 17/24/36
f 16/22/37 7/25/38 15/26/39 10/23/40
f 10/23/41 15/26/42 4/27/43 19/28/44
f 17/24/45 10/23/46 19/28/47 1/29/48
f 23/30/49 28/31/50 24/32/51 27/33/52
f 27/34/53 24/35/54 31/36/55 21/37/56
f 24/35/57 32/38/58 20/39/59 31/36/60
f 28/31/61 22/40/62 32/41/63 24/32/64
f 22/40/65 29/42/66 25/43/67 32/41/68
f 32/38/69 25/44/70 33/45/71 20/39/72
f 25/44/73 14/46/74 4/47/75 33/45/76
f 29/42/77 6/48/78 14/49/79 25/43/80
f 21/50/81 31/51/82 26/52/83 30/53/84
f 30/53/85 26/52/86 15/54/87 7/55/88
f 26/52/89 33/56/90 4/57/91 15/54/92
f 31/51/93 20/58/94 33/56/95 26/52/96
f 5/59/97 41/60/98 38/61/99 11/62/100
f 11/63/101 38/64/102 45/65/103 2/66/104
f 38/64/105 46/67/106 34/68/107 45/65/108
f 41/60/109 35/69/110 46/70/111 38/61/112
f 35/69/113 42/71/114 39/72/115 46/70/116
f 46/67/117 39/73/118 47/74/119 34/68/120
f 39/73/121 43/75/122 36/76/123 47/74/124
f 42/71/125 37/77/126 43/78/127 39/72/128
f 2/79/129 45/80/130 40/81/131 16/82/132
f 16/82/133 40/81/134 44/83/135 7/84/136
f 40/81/137 47/85/138 36/86/139 44/83/140
f 45/80/141 34/87/142 47/85/143 40/81/144
f 23/88/145 27/89/146 50/90/147 53/91/148
f 27/92/149 21/93/150 55/94/151 50/95/152
f 50/95/153 55/94/154 48/96/155 56/97/156
f 53/91/157 50/90/158 56/98/159 49/99/160
f 49/99/161 56/98/162 51/100/163 54/101/164
f 56/97/165 48/96/166 57/102/167 51/103/168
f 51/103/169 57/102/170 36/104/171 43/105/172
f 54/101/173 51/100/174 43/106/175 37/107/176
f 21/108/177 30/109/178 52/110/179 55/111/180
f 30/109/181 7/112/182 44/113/183 52/110/184
f 52/110/185 44/113/186 36/114/187 57/115/188
f 55/111/189 52/110/190 57/115/191 48/116/192
