# This file uses centimeters as units for non-parametric coordinates.

g default
v -3.965038 3.352003 -1.345072
v -3.799847 3.256109 -1.141665
v -3.965038 4.408670 -1.345072
v -3.799847 4.504564 -1.141665
v -3.965038 4.408670 -3.586451
v -3.799847 4.504564 -3.789858
v -3.965038 3.352003 -3.586451
v -3.799847 3.256109 -3.789858
v -3.990944 7.985521 3.495028
v -3.990944 5.184934 3.495028
v -3.990707 5.180281 3.900911
v -3.990383 5.672781 4.486883
v -3.990707 7.971758 3.900911
v -3.990383 7.479257 4.486883
v -3.841751 8.131887 3.345823
v -3.841751 8.131887 -4.337679
v -3.841751 0.900236 3.345823
v -3.841751 0.900236 -4.337679
v -3.898663 0.900236 3.402735
v -3.983170 0.815729 3.487246
v -3.898663 0.900236 -4.394590
v -3.983170 0.815729 -4.479101
v -3.897930 0.003485 3.401991
v -3.983170 0.121076 3.487246
v -3.983170 0.121076 -4.479101
v -3.897930 0.003485 -4.393847
v -3.841751 5.049330 -4.337679
v -3.841751 5.049330 3.345823
v -3.990955 7.985521 -4.486883
v -3.990955 5.184934 -4.486883
v 0.000000 8.131887 3.345823
v 0.000000 7.985521 3.495028
v 0.000000 5.184934 3.495028
v 0.000000 5.049330 3.345823
v 0.000000 0.900236 3.345823
v 0.000000 0.900236 3.402735
v 0.000000 0.815729 3.487246
v 0.000000 0.121076 3.487246
v 0.000000 0.121076 -4.479101
v 0.000000 0.815729 -4.479101
v 0.000000 0.900236 -4.394590
v 0.000000 0.900236 -4.337679
v 0.000000 5.049330 -4.337679
v 0.000000 5.184934 -4.486883
v 0.000000 7.985521 -4.486883
v 0.000000 8.131887 -4.337679
v 0.000000 7.971758 3.900911
v 0.000000 7.479257 4.486883
v 0.000000 5.672781 4.486883
v 0.000000 5.180281 3.900911
v 0.000000 0.003485 3.402723
v 0.000000 0.003485 -4.394213
v 3.990944 7.985521 3.495028
v 3.990944 5.184934 3.495028
v 3.990711 5.180281 3.900911
v 3.990383 5.672781 4.486883
v 3.990711 7.971758 3.900911
v 3.990383 7.479257 4.486883
v 3.841751 8.131887 3.345823
v 3.841751 8.131887 -4.337679
v 3.841751 0.900236 3.345823
v 3.841751 0.900236 -4.337679
v 3.898663 0.900236 3.402735
v 3.983170 0.815729 3.487246
v 3.898663 0.900236 -4.394590
v 3.983170 0.815729 -4.479101
v 3.897930 0.003485 3.401991
v 3.983170 0.121076 3.487246
v 3.983170 0.121076 -4.479101
v 3.897930 0.003485 -4.393847
v 3.841751 5.049330 -4.337679
v 3.841751 5.049330 3.345823
v 3.990955 7.985521 -4.486883
v 3.990955 5.184934 -4.486883
v 3.965038 3.352003 -1.345072
v 3.799847 3.256109 -1.141665
v 3.965038 4.408670 -1.345072
v 3.799847 4.504564 -1.141665
v 3.965038 4.408670 -3.586451
v 3.799847 4.504564 -3.789858
v 3.965038 3.352003 -3.586451
v 3.799847 3.256109 -3.789858
vt 1.176981 0.286096
vt 1.176981 0.305160
vt 1.068964 0.305160
vt 1.068964 0.286097
vt 0.582955 0.305160
vt 0.582946 0.286097
vt 0.474945 0.305254
vt 0.474922 0.286191
vt -0.011055 0.305993
vt -0.011084 0.286930
vt 0.710931 0.355331
vt 0.927089 0.355331
vt 0.927089 0.485896
vt 0.710931 0.485896
vt 0.034986 0.200464
vt 0.034986 -0.000028
vt 0.077788 0.035986
vt 0.077788 0.166440
vt 0.005875 0.505981
vt 0.493412 0.505981
vt 0.493412 0.769251
vt 0.005875 0.769252
vt 0.001671 0.290720
vt 0.015292 0.277099
vt 1.272033 0.277099
vt 1.285655 0.290720
vt 0.997501 0.239710
vt 1.008160 0.254412
vt 0.012144 0.254412
vt 0.022803 0.239710
vt 0.712228 0.283694
vt 1.700974 0.283694
vt 1.700974 0.304202
vt 0.712228 0.304202
vt 0.502985 0.003904
vt 1.499000 0.004297
vt 1.499002 0.085271
vt 0.502985 0.085271
vt 0.000000 0.001556
vt 0.500000 0.000629
vt 0.500000 0.200464
vt 0.000000 0.200464
vt 0.016273 0.762844
vt 0.485485 0.762844
vt 0.494597 0.771126
vt 0.007162 0.771126
vt 1.003161 0.306800
vt 0.025763 0.306800
vt 0.025763 0.288535
vt 1.003161 0.288536
vt 1.003161 0.288536
vt 1.003161 0.306800
vt 0.250000 0.002725
vt 0.500000 0.002725
vt 0.500000 0.172623
vt 0.250000 0.172623
vt 0.485485 0.762844
vt 0.494597 0.771126
vt 0.251170 0.507270
vt 0.492343 0.507270
vt 0.492343 0.767737
vt 0.251170 0.767737
vt 0.221482 0.304202
vt 0.221482 0.283694
vt 0.001671 0.290720
vt 0.015292 0.277099
vt 0.000000 0.085272
vt 0.000000 0.003904
vt 0.997593 0.239710
vt 1.008160 0.254412
vt 1.999998 0.004277
vt 2.000002 0.085251
vt 1.272033 0.277099
vt 1.285655 0.290720
vt 2.198982 0.283694
vt 2.198982 0.304202
vt 0.250306 0.767130
vt 0.009134 0.767130
vt 0.009134 0.506663
vt 0.250306 0.506663
vt 0.007162 0.771126
vt 0.016273 0.762844
vt 0.000000 0.001556
vt 0.250000 0.000629
vt 0.250000 0.200464
vt 0.000000 0.200464
vt 0.025763 0.306800
vt 0.025763 0.288535
vt 0.681423 0.490645
vt 0.681423 0.362400
vt 0.946041 0.362400
vt 0.946041 0.490645
vt 0.468336 0.096509
vt 0.001028 0.096509
vt 0.001028 0.058782
vt 0.468363 0.058782
vt 0.468298 0.150584
vt 0.000594 0.150584
vt 0.299730 0.020555
vt 0.003569 0.020555
vt 0.003570 0.150703
vt 0.299730 0.150703
vt 0.468298 0.058782
vt 0.468336 0.113248
vt 0.001028 0.113248
vt 0.001028 0.058782
vt 0.468363 0.150584
vt 0.000594 0.150584
vt 0.948119 0.487814
vt 0.680066 0.487814
vt 0.680091 0.353806
vt 0.948107 0.353806
vt 0.012144 0.254412
vt 0.022757 0.239710
vt -0.000160 0.000028
vt 0.000594 0.200464
vt 0.034986 0.200464
vt 0.034986 -0.000028
vt 0.005875 0.505981
vt 0.005875 0.769252
vt 0.493412 0.769251
vt 0.493412 0.505981
vt 0.001671 0.290720
vt 1.285655 0.290720
vt 1.272033 0.277099
vt 0.015292 0.277099
vt 0.997501 0.239710
vt 0.022803 0.239710
vt 0.012144 0.254412
vt 1.008160 0.254412
vt 0.712228 0.283694
vt 0.712228 0.304202
vt 1.700974 0.304202
vt 1.700974 0.283694
vt 0.502985 0.003904
vt 0.502985 0.085271
vt 1.499002 0.085271
vt 1.499000 0.004297
vt 0.000000 0.001556
vt 0.000000 0.200464
vt 0.500000 0.200464
vt 0.500000 0.000629
vt 0.016273 0.762844
vt 0.007162 0.771126
vt 0.494597 0.771126
vt 0.485485 0.762844
vt 1.003161 0.306800
vt 1.003161 0.288536
vt 0.025763 0.288535
vt 0.025763 0.306800
vt 1.003161 0.288536
vt 1.003161 0.306800
vt 0.250000 0.002725
vt 0.250000 0.172623
vt 0.500000 0.172623
vt 0.500000 0.002725
vt 0.494597 0.771126
vt 0.485485 0.762844
vt 0.251170 0.507270
vt 0.251170 0.767737
vt 0.492343 0.767737
vt 0.492343 0.507270
vt 0.221482 0.304202
vt 0.221482 0.283694
vt 0.015292 0.277099
vt 0.001671 0.290720
vt 0.000000 0.085272
vt 0.000000 0.003904
vt 1.008160 0.254412
vt 0.997593 0.239710
vt 2.000002 0.085251
vt 1.999998 0.004277
vt 1.272033 0.277099
vt 1.285655 0.290720
vt 2.198982 0.304202
vt 2.198982 0.283694
vt 0.250306 0.767130
vt 0.250306 0.506663
vt 0.009134 0.506663
vt 0.009134 0.767130
vt 0.007162 0.771126
vt 0.016273 0.762844
vt 0.000000 0.001556
vt 0.000000 0.200464
vt 0.250000 0.200464
vt 0.250000 0.000629
vt 0.025763 0.288535
vt 0.025763 0.306800
vt 0.681423 0.490645
vt 0.946041 0.490645
vt 0.946041 0.362400
vt 0.681423 0.362400
vt 0.468336 0.096509
vt 0.468363 0.058782
vt 0.001028 0.058782
vt 0.001028 0.096509
vt 0.000594 0.150584
vt 0.468298 0.150584
vt 0.299730 0.020555
vt 0.299730 0.150703
vt 0.003570 0.150703
vt 0.003569 0.020555
vt 0.468298 0.058782
vt 0.001028 0.058782
vt 0.001028 0.113248
vt 0.468336 0.113248
vt 0.468363 0.150584
vt 0.000594 0.150584
vt 0.948119 0.487814
vt 0.948107 0.353806
vt 0.680091 0.353806
vt 0.680066 0.487814
vt 0.012144 0.254412
vt 0.022757 0.239710
vt 1.176981 0.286096
vt 1.068964 0.286097
vt 1.068964 0.305160
vt 1.176981 0.305160
vt 0.582946 0.286097
vt 0.582955 0.305160
vt 0.474922 0.286191
vt 0.474945 0.305254
vt -0.011084 0.286930
vt -0.011055 0.305993
vt 0.694898 0.350553
vt 0.694898 0.492796
vt 0.930391 0.492796
vt 0.930391 0.350553
vt 0.077788 0.166440
vt 0.077788 0.035986
vt -0.000160 0.000028
vt 0.000594 0.200464
vn -0.776254 0.000000 0.630420
vn -0.776254 0.000000 0.630420
vn -0.776254 0.000000 0.630420
vn -0.776254 0.000000 0.630420
vn -0.502037 0.864846 0.000000
vn -0.502037 0.864846 0.000000
vn -0.502037 0.864846 0.000000
vn -0.502037 0.864846 0.000000
vn -0.776254 0.000000 -0.630420
vn -0.776254 0.000000 -0.630420
vn -0.776254 0.000000 -0.630420
vn -0.776254 0.000000 -0.630420
vn -0.502037 -0.864846 0.000000
vn -0.502037 -0.864846 0.000000
vn -0.502037 -0.864846 0.000000
vn -0.502037 -0.864846 0.000000
vn -1.000000 0.000000 0.000000
vn -1.000000 0.000000 0.000000
vn -1.000000 0.000000 0.000000
vn -1.000000 0.000000 0.000000
vn -1.000000 0.000000 0.000567
vn -1.000000 0.000000 0.000567
vn -1.000000 0.000000 0.000567
vn -1.000000 0.000000 0.000567
vn -1.000000 0.000000 0.000000
vn -1.000000 0.000000 0.000000
vn -1.000000 0.000000 0.000000
vn -1.000000 0.000000 0.000000
vn -0.707108 0.707106 0.000000
vn -0.707108 0.707106 0.000000
vn -0.707108 0.707106 0.000000
vn -0.707108 0.707106 0.000000
vn -0.809657 -0.586904 0.000000
vn -0.809657 -0.586904 0.000000
vn -0.809657 -0.586904 0.000000
vn -0.809657 -0.586904 0.000000
vn 0.000000 1.000000 0.000000
vn 0.000000 1.000000 0.000000
vn 0.000000 1.000000 0.000000
vn 0.000000 1.000000 0.000000
vn -1.000000 0.000000 0.000000
vn -1.000000 0.000000 0.000000
vn -1.000000 0.000000 0.000000
vn -1.000000 0.000000 0.000000
vn -1.000000 0.000000 0.000001
vn -1.000000 0.000000 0.000001
vn -1.000000 0.000000 0.000001
vn -1.000000 0.000000 0.000001
vn -0.672590 -0.740016 0.000000
vn -0.672590 -0.740016 0.000000
vn -0.672590 -0.740016 0.000000
vn -0.672590 -0.740016 0.000000
vn -0.700296 0.713853 0.000000
vn -0.700296 0.713853 0.000000
vn -0.700296 0.713853 0.000000
vn -0.700296 0.713853 0.000000
vn 0.000000 0.713863 0.700285
vn 0.000000 0.713863 0.700285
vn 0.000000 0.713863 0.700285
vn 0.000000 0.713863 0.700285
vn 0.000000 0.000000 1.000000
vn 0.000000 0.000000 1.000000
vn 0.000000 0.000000 1.000000
vn 0.000000 0.000000 1.000000
vn 0.000000 -0.740025 0.672579
vn 0.000000 -0.740026 0.672579
vn 0.000000 -0.740026 0.672579
vn 0.000000 -0.740025 0.672579
vn 0.000000 0.000000 1.000000
vn 0.000000 0.000000 1.000000
vn 0.000000 0.000000 1.000000
vn 0.000000 0.000000 1.000000
vn 0.000000 1.000000 0.000000
vn 0.000000 1.000000 0.000000
vn 0.000000 1.000000 0.000000
vn 0.000000 1.000000 0.000000
vn 0.000000 0.707110 0.707103
vn 0.000000 0.707110 0.707103
vn 0.000000 0.707110 0.707103
vn 0.000000 0.707110 0.707103
vn 0.000000 0.000000 1.000000
vn 0.000000 0.000000 1.000000
vn 0.000000 0.000000 1.000000
vn 0.000000 0.000000 1.000000
vn -0.000074 -0.585325 0.810799
vn -0.000074 -0.585325 0.810799
vn 0.000000 -0.585325 0.810799
vn 0.000000 -0.585325 0.810799
vn 0.000000 0.000000 -1.000000
vn 0.000000 0.000000 -1.000000
vn 0.000000 0.000000 -1.000000
vn 0.000000 0.000000 -1.000000
vn 0.000000 0.707110 -0.707103
vn 0.000000 0.707110 -0.707103
vn 0.000000 0.707110 -0.707104
vn 0.000000 0.707110 -0.707103
vn 0.000000 1.000000 0.000000
vn 0.000000 1.000000 0.000000
vn 0.000000 1.000000 0.000000
vn 0.000000 1.000000 0.000000
vn 0.000000 0.000000 -1.000000
vn 0.000000 0.000000 -1.000000
vn 0.000000 0.000000 -1.000000
vn 0.000000 0.000000 -1.000000
vn 0.000000 -0.740026 -0.672578
vn 0.000000 -0.740026 -0.672578
vn 0.000000 -0.740026 -0.672578
vn 0.000000 -0.740026 -0.672578
vn 0.000000 0.000000 -1.000000
vn 0.000000 0.000000 -1.000000
vn 0.000000 0.000000 -1.000000
vn 0.000000 0.000000 -1.000000
vn 0.000000 0.713864 -0.700285
vn 0.000000 0.713864 -0.700285
vn 0.000000 0.713864 -0.700285
vn 0.000000 0.713863 -0.700285
vn 0.000000 1.000000 0.000000
vn 0.000000 1.000000 0.000000
vn 0.000000 1.000000 0.000000
vn 0.000000 1.000000 0.000000
vn 0.000000 0.999426 0.033892
vn 0.000000 0.999426 0.033892
vn 0.000000 0.999426 0.033892
vn 0.000000 0.999426 0.033892
vn 0.000000 0.765523 0.643409
vn 0.000000 0.765523 0.643409
vn 0.000000 0.765523 0.643409
vn 0.000000 0.765523 0.643409
vn 0.000000 0.000000 1.000000
vn 0.000000 0.000000 1.000000
vn 0.000000 0.000000 1.000000
vn 0.000000 0.000000 1.000000
vn 0.000000 -0.765523 0.643409
vn 0.000000 -0.765523 0.643409
vn 0.000000 -0.765523 0.643409
vn 0.000000 -0.765523 0.643409
vn 0.000000 -0.999934 -0.011461
vn 0.000000 -0.999934 -0.011461
vn 0.000000 -0.999934 -0.011461
vn 0.000000 -0.999934 -0.011461
vn 0.000000 -1.000000 0.000000
vn 0.000000 -1.000000 0.000000
vn 0.000000 -1.000000 0.000000
vn 0.000000 -1.000000 0.000000
vn 0.000000 -0.586146 -0.810206
vn 0.000000 -0.586146 -0.810206
vn -0.000037 -0.586146 -0.810206
vn -0.000037 -0.586146 -0.810206
vn 1.000000 0.000000 0.000567
vn 1.000000 0.000000 0.000567
vn 1.000000 0.000000 0.000567
vn 1.000000 0.000000 0.000567
vn 1.000000 0.000000 0.000000
vn 1.000000 0.000000 0.000000
vn 1.000000 0.000000 0.000000
vn 1.000000 0.000000 0.000000
vn 0.707110 0.707103 0.000000
vn 0.707110 0.707103 0.000000
vn 0.707110 0.707103 0.000000
vn 0.707110 0.707103 0.000000
vn 0.809657 -0.586903 0.000000
vn 0.809657 -0.586903 0.000000
vn 0.809657 -0.586903 0.000000
vn 0.809657 -0.586903 0.000000
vn 0.000000 1.000000 0.000000
vn 0.000000 1.000000 0.000000
vn 0.000000 1.000000 0.000000
vn 0.000000 1.000000 0.000000
vn 1.000000 0.000000 0.000000
vn 1.000000 0.000000 0.000000
vn 1.000000 0.000000 0.000000
vn 1.000000 0.000000 0.000000
vn 1.000000 0.000000 0.000001
vn 1.000000 0.000000 0.000001
vn 1.000000 0.000000 0.000001
vn 1.000000 0.000000 0.000001
vn 0.672593 -0.740013 0.000000
vn 0.672593 -0.740013 0.000000
vn 0.672593 -0.740013 0.000000
vn 0.672593 -0.740013 0.000000
vn 0.700297 0.713852 0.000000
vn 0.700297 0.713852 0.000000
vn 0.700297 0.713852 0.000000
vn 0.700297 0.713852 0.000000
vn 0.000000 0.713863 0.700285
vn 0.000000 0.713863 0.700285
vn 0.000000 0.713863 0.700285
vn 0.000000 0.713863 0.700285
vn 0.000000 0.000000 1.000000
vn 0.000000 0.000000 1.000000
vn 0.000000 0.000000 1.000000
vn 0.000000 0.000000 1.000000
vn 0.000000 -0.740026 0.672579
vn 0.000000 -0.740026 0.672579
vn 0.000000 -0.740026 0.672579
vn 0.000000 -0.740026 0.672579
vn 0.000000 0.000000 1.000000
vn 0.000000 0.000000 1.000000
vn 0.000000 0.000000 1.000000
vn 0.000000 0.000000 1.000000
vn 0.000000 1.000000 0.000000
vn 0.000000 1.000000 0.000000
vn 0.000000 1.000000 0.000000
vn 0.000000 1.000000 0.000000
vn 0.000000 0.707110 0.707103
vn 0.000000 0.707110 0.707103
vn 0.000000 0.707110 0.707103
vn 0.000000 0.707110 0.707103
vn 0.000000 0.000000 1.000000
vn -0.000001 0.000000 1.000000
vn -0.000001 0.000000 1.000000
vn 0.000000 0.000000 1.000000
vn 0.000074 -0.585325 0.810799
vn 0.000000 -0.585325 0.810799
vn 0.000000 -0.585325 0.810799
vn 0.000074 -0.585325 0.810799
vn 0.000000 0.000000 -1.000000
vn 0.000000 0.000000 -1.000000
vn 0.000000 0.000000 -1.000000
vn 0.000000 0.000000 -1.000000
vn 0.000000 0.707110 -0.707103
vn 0.000000 0.707110 -0.707103
vn 0.000000 0.707110 -0.707103
vn 0.000000 0.707110 -0.707103
vn 0.000000 1.000000 0.000000
vn 0.000000 1.000000 0.000000
vn 0.000000 1.000000 0.000000
vn 0.000000 1.000000 0.000000
vn 0.000000 0.000000 -1.000000
vn 0.000000 0.000000 -1.000000
vn 0.000000 0.000000 -1.000000
vn 0.000000 0.000000 -1.000000
vn 0.000000 -0.740026 -0.672578
vn 0.000000 -0.740026 -0.672578
vn 0.000000 -0.740026 -0.672578
vn 0.000000 -0.740026 -0.672578
vn 0.000000 0.000000 -1.000000
vn 0.000000 0.000000 -1.000000
vn 0.000000 0.000000 -1.000000
vn 0.000000 0.000000 -1.000000
vn 0.000000 0.713864 -0.700285
vn 0.000000 0.713864 -0.700285
vn 0.000000 0.713864 -0.700285
vn 0.000000 0.713864 -0.700285
vn 0.000000 1.000000 0.000000
vn 0.000000 1.000000 0.000000
vn 0.000000 1.000000 0.000000
vn 0.000000 1.000000 0.000000
vn 0.000000 0.999426 0.033892
vn 0.000000 0.999426 0.033892
vn 0.000000 0.999426 0.033892
vn 0.000000 0.999426 0.033892
vn 0.000000 0.765523 0.643409
vn 0.000000 0.765523 0.643409
vn 0.000000 0.765523 0.643409
vn 0.000000 0.765523 0.643409
vn 0.000000 0.000000 1.000000
vn 0.000000 0.000000 1.000000
vn 0.000000 0.000000 1.000000
vn 0.000000 0.000000 1.000000
vn 0.000000 -0.765523 0.643409
vn 0.000000 -0.765523 0.643409
vn 0.000000 -0.765523 0.643409
vn 0.000000 -0.765523 0.643409
vn 0.000000 -0.999934 -0.011461
vn 0.000000 -0.999934 -0.011461
vn 0.000000 -0.999934 -0.011461
vn 0.000000 -0.999934 -0.011461
vn 0.000000 -1.000000 0.000000
vn 0.000000 -1.000000 0.000000
vn 0.000000 -1.000000 0.000000
vn 0.000000 -1.000000 0.000000
vn 0.000000 -0.586146 -0.810206
vn 0.000038 -0.586146 -0.810206
vn 0.000038 -0.586146 -0.810206
vn 0.000000 -0.586146 -0.810206
vn 0.776254 0.000000 0.630421
vn 0.776254 0.000000 0.630421
vn 0.776254 0.000000 0.630421
vn 0.776254 0.000000 0.630421
vn 0.502037 0.864846 0.000000
vn 0.502037 0.864846 0.000000
vn 0.502037 0.864846 0.000000
vn 0.502037 0.864846 0.000000
vn 0.776254 0.000000 -0.630420
vn 0.776254 0.000000 -0.630420
vn 0.776254 0.000000 -0.630420
vn 0.776254 0.000000 -0.630420
vn 0.502037 -0.864846 0.000000
vn 0.502037 -0.864846 0.000000
vn 0.502037 -0.864846 0.000000
vn 0.502037 -0.864846 0.000000
vn 1.000000 0.000000 0.000000
vn 1.000000 0.000000 0.000000
vn 1.000000 0.000000 0.000000
vn 1.000000 0.000000 0.000000
vn 1.000000 0.000000 0.000567
vn 1.000000 0.000000 0.000567
vn -1.000000 0.000000 0.000567
vn -1.000000 0.000000 0.000567
s off
g LondonBuilding_Base01 London_Building_Meshes
f 1/1/1 2/2/2 4/3/3 3/4/4
f 3/4/5 4/3/6 6/5/7 5/6/8
f 5/6/9 6/5/10 8/7/11 7/8/12
f 7/8/13 8/7/14 2/9/15 1/10/16
f 7/11/17 1/12/18 3/13/19 5/14/20
s 1
f 13/15/21 11/16/22 12/17/23 14/18/24
s off
f 18/19/25 17/20/26 28/21/27 27/22/28
f 20/23/29 19/24/30 21/25/31 22/26/32
f 23/27/33 24/28/34 25/29/35 26/30/36
f 17/31/37 18/32/38 21/33/39 19/34/40
f 20/35/41 22/36/42 25/37/43 24/38/44
f 30/39/45 10/40/46 9/41/47 29/42/48
f 27/43/49 28/44/50 10/45/51 30/46/52
f 15/47/53 16/48/54 29/49/55 9/50/56
f 32/51/57 31/52/58 15/47/59 9/50/60
f 10/53/61 33/54/62 32/55/63 9/56/64
f 28/44/65 34/57/66 33/58/67 10/45/68
f 17/59/69 35/60/70 34/61/71 28/62/72
f 36/63/73 35/64/74 17/31/75 19/34/76
f 19/24/77 20/23/78 37/65/79 36/66/80
f 38/67/81 37/68/82 20/35/83 24/38/84
f 24/28/85 23/27/86 51/69/87 38/70/88
f 22/36/89 40/71/90 39/72/91 25/37/92
f 41/73/93 40/74/94 22/26/95 21/25/96
f 18/32/97 42/75/98 41/76/99 21/33/100
f 27/77/101 43/78/102 42/79/103 18/80/104
f 44/81/105 43/82/106 27/43/107 30/46/108
f 29/83/109 45/84/110 44/85/111 30/86/112
f 16/48/113 46/87/114 45/88/115 29/49/116
f 15/89/117 31/90/118 46/91/119 16/92/120
f 13/93/121 47/94/122 32/95/123 9/96/124
f 13/93/125 14/97/126 48/98/127 47/94/128
f 12/99/129 49/100/130 48/101/131 14/102/132
f 12/103/133 11/104/134 50/105/135 49/106/136
f 10/107/137 33/108/138 50/105/139 11/104/140
f 52/109/141 51/110/142 23/111/143 26/112/144
f 39/113/145 52/114/146 26/30/147 25/29/148
s 2
f 54/115/149 53/116/150 57/117/151 55/118/152
s off
f 62/119/153 71/120/154 72/121/155 61/122/156
f 64/123/157 66/124/158 65/125/159 63/126/160
f 67/127/161 70/128/162 69/129/163 68/130/164
f 61/131/165 63/132/166 65/133/167 62/134/168
f 64/135/169 68/136/170 69/137/171 66/138/172
f 74/139/173 73/140/174 53/141/175 54/142/176
f 71/143/177 74/144/178 54/145/179 72/146/180
f 59/147/181 53/148/182 73/149/183 60/150/184
f 32/151/185 53/148/186 59/147/187 31/152/188
f 54/153/189 53/154/190 32/155/191 33/156/192
f 72/146/193 54/145/194 33/157/195 34/158/196
f 61/159/197 72/160/198 34/161/199 35/162/200
f 36/163/201 63/132/202 61/131/203 35/164/204
f 63/126/205 36/165/206 37/166/207 64/123/208
f 38/167/209 68/136/210 64/135/211 37/168/212
f 68/130/213 38/169/214 51/170/215 67/127/216
f 66/138/217 69/137/218 39/171/219 40/172/220
f 41/173/221 65/125/222 66/124/223 40/174/224
f 62/134/225 65/133/226 41/175/227 42/176/228
f 71/177/229 62/178/230 42/179/231 43/180/232
f 44/181/233 74/144/234 71/143/235 43/182/236
f 73/183/237 74/184/238 44/185/239 45/186/240
f 60/150/241 73/149/242 45/187/243 46/188/244
f 59/189/245 60/190/246 46/191/247 31/192/248
f 57/193/249 53/194/250 32/195/251 47/196/252
f 57/193/253 47/196/254 48/197/255 58/198/256
f 56/199/257 58/200/258 48/201/259 49/202/260
f 56/203/261 49/204/262 50/205/263 55/206/264
f 54/207/265 55/206/266 50/205/267 33/208/268
f 52/209/269 70/210/270 67/211/271 51/212/272
f 39/213/273 69/129/274 70/128/275 52/214/276
f 75/215/277 77/216/278 78/217/279 76/218/280
f 77/216/281 79/219/282 80/220/283 78/217/284
f 79/219/285 81/221/286 82/222/287 80/220/288
f 81/221/289 75/223/290 76/224/291 82/222/292
f 81/225/293 79/226/294 77/227/295 75/228/296
s 2
f 55/118/152 57/117/151 58/229/297 56/230/298
s 1
f 10/231/299 11/16/22 13/15/21 9/232/300
