# This file uses centimeters as units for non-parametric coordinates.

g default
v -16.000000 -0.364606 7.999999
v -8.000000 -0.364606 7.999999
v -16.000000 -0.364605 -8.000000
v -8.000000 -0.364605 -8.000000
v -16.000000 -0.364606 -0.000000
v -8.000000 -0.364606 -0.000000
v -0.003226 -0.364606 7.999999
v -0.003226 -0.364606 -0.000001
v -0.000001 -0.364605 -8.000000
v 8.000000 -0.364606 7.999999
v 8.000000 -0.364606 -0.000000
v 8.000000 -0.364605 -8.000000
v -8.000000 -0.364606 16.000000
v -0.000001 -0.364606 16.000000
v -8.000000 -0.364604 -16.000000
v -0.000001 -0.364604 -16.000000
v -0.000001 -0.364606 16.000000
v 8.000000 -0.364606 16.000000
v 16.000000 -0.364606 7.999999
v 16.000000 -0.364606 -0.000000
v -0.000001 -0.364604 -16.000000
v 8.000000 -0.364604 -16.000000
v 16.000000 -0.364606 -0.000000
v 16.000000 -0.364605 -8.000000
vt 0.000000 0.000000
vt 0.000000 0.500000
vt 0.000000 0.000000
vt 0.000000 0.500000
vt 0.498575 0.000000
vt 0.498575 0.500000
vt 0.498575 0.000000
vt 0.498575 0.500000
vt 0.498575 1.000000
vt 0.000000 1.000000
vt 0.000000 0.500000
vt 0.498575 0.500000
vt 0.000000 1.000000
vt 0.498575 1.000000
vt 0.498575 0.500000
vt 0.000000 0.500000
vt 0.498575 0.500000
vt 0.000000 0.500000
vt 0.000000 1.000000
vt 0.498575 1.000000
vt 0.000000 0.500000
vt 0.498575 0.500000
vt 0.498575 1.000000
vt 0.000000 1.000000
vt 0.498575 0.000000
vt 0.000000 0.000000
vt 0.000000 0.500000
vt 0.498575 0.500000
vt 0.000000 0.000000
vt 0.498575 0.000000
vt 0.498575 0.500000
vt 0.000000 0.500000
vt 0.000000 0.000000
vt 0.498575 0.000000
vt 0.498575 0.500000
vt 0.000000 0.500000
vt 0.498575 0.000000
vt 0.000000 0.000000
vt 0.000000 0.500000
vt 0.498575 0.500000
vt 0.498575 0.000000
vt 0.000000 0.000000
vt 0.000000 0.500000
vt 0.498575 0.500000
vt 0.000000 0.000000
vt 0.498575 0.000000
vt 0.498575 0.500000
vt 0.000000 0.500000
vn 0.000000 1.000000 0.000000
vn 0.000000 1.000000 0.000000
vn 0.000000 1.000000 0.000000
vn 0.000000 1.000000 0.000000
vn 0.000000 1.000000 0.000000
vn 0.000000 1.000000 0.000000
vn 0.000000 1.000000 0.000000
vn 0.000000 1.000000 0.000000
vn -0.000000 1.000000 0.000000
vn 0.000000 1.000000 0.000000
vn -0.000000 1.000000 0.000000
vn -0.000000 1.000000 0.000000
vn 0.000000 1.000000 0.000000
vn 0.000000 1.000000 0.000000
vn 0.000000 1.000000 0.000000
vn 0.000000 1.000000 0.000000
vn 0.000000 1.000000 0.000000
vn 0.000000 1.000000 0.000000
vn 0.000000 1.000000 0.000000
vn 0.000000 1.000000 0.000000
vn 0.000000 1.000000 0.000000
vn 0.000000 1.000000 0.000000
vn 0.000000 1.000000 0.000000
vn 0.000000 1.000000 0.000000
s 1
g street_intersection
f 5/5/1 6/8/2 4/4/3 3/3/4
f 1/1/5 2/2/6 6/6/2 5/7/1
f 6/9/2 2/10/6 7/11/7 8/12/8
f 4/13/3 6/14/2 8/15/8 9/16/9
f 8/17/8 7/18/7 10/19/10 11/20/11
f 9/21/9 8/22/8 11/23/11 12/24/12
f 7/25/7 2/26/6 13/27/13 14/28/14
f 4/29/3 9/30/9 16/31/15 15/32/16
f 10/33/10 7/34/7 17/35/17 18/36/18
f 11/37/11 10/38/10 19/39/19 20/40/20
f 9/41/9 12/42/12 22/43/21 21/44/22
f 12/45/12 11/46/11 23/47/23 24/48/24
