# This file uses centimeters as units for non-parametric coordinates.

mtllib Apple.mtl
g default
v -0.319811 0.204943 0.319054
v 0.319811 0.204943 0.319054
v -0.359367 1.069655 0.385628
v 0.359367 1.069655 0.385628
v -0.359367 1.069655 -0.399445
v 0.359367 1.069655 -0.399445
v -0.319811 0.204943 -0.319054
v 0.319811 0.204943 -0.319054
v -0.462631 1.085400 -0.006908
v 0.424661 0.649997 -0.424661
v 0.000000 0.247346 -0.402987
v -0.424661 0.649997 -0.424661
v 0.403744 0.247346 0.000000
v -0.403744 0.247346 0.000000
v 0.000000 0.247346 0.402987
v 0.424661 0.649997 0.424661
v 0.000000 1.085400 0.488892
v -0.424661 0.649997 0.424661
v 0.462631 1.085400 -0.006908
v 0.000000 1.108262 -0.429462
v 0.000000 0.648912 0.579020
v 0.000000 1.115234 -0.000000
v 0.000000 0.648912 -0.579020
v 0.000000 0.152163 0.000000
v 0.579020 0.648912 0.000000
v -0.579020 0.648912 -0.000000
v -0.399904 0.880490 -0.399904
v 0.399904 0.880490 -0.399904
v 0.231997 0.647046 -0.540069
v 0.346568 0.388160 -0.345840
v 0.190014 0.148746 -0.375251
v 0.000000 0.378673 -0.464030
v -0.190014 0.148746 -0.375251
v -0.346568 0.388160 -0.345840
v 0.000000 0.136946 -0.219712
v -0.220469 0.136946 0.000000
v -0.376008 0.148746 -0.189257
v 0.376008 0.148746 -0.189257
v 0.220469 0.136946 0.000000
v 0.376008 0.148746 0.189257
v 0.000000 0.136946 0.219712
v -0.376008 0.148746 0.189257
v 0.464758 0.378673 0.000000
v 0.540069 0.647046 0.231997
v 0.540069 0.647046 -0.231997
v 0.547115 0.912946 0.000000
v -0.464758 0.378673 0.000000
v -0.540069 0.647046 -0.231997
v -0.540069 0.647046 0.231997
v -0.547115 0.912946 0.000000
v -0.190014 0.148746 0.375251
v 0.000000 0.378673 0.464030
v -0.231997 0.647046 0.540069
v -0.346568 0.388160 0.345840
v 0.190014 0.148746 0.375251
v 0.346568 0.388160 0.345840
v 0.231997 0.647046 0.540069
v 0.399904 0.880490 0.399904
v 0.199676 1.138795 0.454768
v 0.000000 0.912946 0.547115
v -0.199676 1.138795 0.454768
v -0.399904 0.880490 0.399904
v 0.000000 1.190020 0.234147
v -0.234147 1.185179 0.000000
v -0.428507 1.138795 0.225937
v 0.428507 1.138795 0.225937
v 0.234147 1.185179 0.000000
v 0.428507 1.138795 -0.239754
v 0.201691 1.154512 -0.399904
v -0.000006 1.189851 -0.234234
v -0.201691 1.154512 -0.399904
v -0.428507 1.138795 -0.239754
v 0.000000 0.912946 -0.547115
v -0.231997 0.647046 -0.540069
v -0.193374 0.362359 0.432458
v 0.193374 0.362359 0.432458
v 0.217919 0.896718 0.510023
v -0.217919 0.896718 0.510023
v -0.245288 1.241165 0.256063
v 0.245288 1.241165 0.256063
v 0.245288 1.241165 -0.256063
v -0.245288 1.241165 -0.256063
v -0.217919 0.896718 -0.510023
v 0.217919 0.896718 -0.510023
v 0.193374 0.362359 -0.432458
v -0.193374 0.362359 -0.432458
v -0.205241 0.045416 -0.204485
v 0.205241 0.045416 -0.204485
v 0.205241 0.045416 0.204485
v -0.205241 0.045416 0.204485
v 0.433186 0.362359 0.192646
v 0.433186 0.362359 -0.192646
v 0.510023 0.896718 -0.217919
v 0.510023 0.896718 0.217919
v -0.433186 0.362359 -0.192646
v -0.433186 0.362359 0.192646
v -0.510023 0.896718 0.217919
v -0.510023 0.896718 -0.217919
v 0.007162 1.127314 -0.015884
v -0.014619 1.127314 -0.009817
v -0.014619 1.127314 0.009817
v 0.007162 1.127314 0.015884
v 0.020624 1.127314 0.000000
v 0.006717 1.182528 -0.018045
v -0.015660 1.182528 -0.011152
v -0.015660 1.182528 0.011152
v 0.006717 1.182528 0.018045
v 0.022010 1.182528 0.000000
v 0.006203 1.229118 -0.031205
v -0.017943 1.232221 -0.023637
v -0.017945 1.241440 0.001566
v 0.006229 1.244139 0.009580
v 0.024783 1.236830 -0.011085
v 0.005339 1.277661 -0.064668
v -0.025638 1.287850 -0.056994
v -0.025943 1.318940 -0.030245
v 0.005429 1.329100 -0.022093
v 0.033393 1.302814 -0.043569
v 0.006653 1.351374 -0.147973
v -0.040918 1.368836 -0.140850
v -0.042357 1.424857 -0.114977
v 0.006884 1.441975 -0.106288
v 0.050838 1.395906 -0.127895
v -0.001446 1.395389 -0.127649
vt 0.424710 0.145272
vt 0.462427 0.176977
vt 0.406030 0.210950
vt 0.367731 0.164263
vt 0.480768 0.236822
vt 0.441963 0.262645
vt 0.368931 0.317043
vt 0.327450 0.263060
vt 0.285769 0.213606
vt 0.536011 0.273454
vt 0.483263 0.310366
vt 0.555087 0.317392
vt 0.517219 0.357793
vt 0.448645 0.417474
vt 0.411523 0.368229
vt 0.351982 0.416783
vt 0.308039 0.369814
vt 0.392055 0.465296
vt 0.341400 0.494872
vt 0.294976 0.463264
vt 0.266160 0.409063
vt 0.269680 0.315688
vt 0.227921 0.264917
vt 0.219547 0.372589
vt 0.194959 0.319511
vt 0.160003 0.391294
vt 0.141115 0.319271
vt 0.199242 0.476091
vt 0.464776 0.879384
vt 0.564696 0.954289
vt 0.696145 0.972355
vt 0.275659 0.526126
vt 0.342947 0.554150
vt 0.386215 0.634376
vt 0.397159 0.772269
vt 0.480272 0.752146
vt 0.523823 0.831479
vt 0.461622 0.683115
vt 0.519888 0.691240
vt 0.531277 0.744614
vt 0.581830 0.784354
vt 0.602503 0.879845
vt 0.672303 0.903345
vt 0.619234 0.834246
vt 0.676167 0.850171
vt 0.686643 0.779941
vt 0.734122 0.826003
vt 0.637348 0.736487
vt 0.696174 0.681136
vt 0.745573 0.727623
vt 0.790954 0.773760
vt 0.594985 0.688892
vt 0.551392 0.643151
vt 0.604757 0.591649
vt 0.649681 0.633840
vt 0.714762 0.567923
vt 0.757917 0.613773
vt 0.671207 0.529306
vt 0.715255 0.495606
vt 0.756917 0.519021
vt 0.787614 0.577679
vt 0.805692 0.654577
vt 0.848345 0.697213
vt 0.845278 0.601815
vt 0.873016 0.642443
vt 0.891890 0.570659
vt 0.916462 0.633798
vt 0.834718 0.517444
vt 0.611999 0.154604
vt 0.524672 0.074284
vt 0.411038 0.040830
vt 0.775603 0.464447
vt 0.711936 0.447385
vt 0.658579 0.385398
vt 0.660491 0.263885
vt 0.592098 0.260445
vt 0.545320 0.196100
vt 0.602601 0.325694
vt 0.498031 0.133759
vt 0.437589 0.102940
vt 0.567027 0.388762
vt 0.609980 0.429363
vt 0.523559 0.507420
vt 0.488344 0.462927
vt 0.645697 0.476436
vt 0.563807 0.547280
vt 0.496788 0.609556
vt 0.447909 0.575666
vt 0.419464 0.522819
vt 0.903338 0.716073
vt 0.333456 0.045245
vt 0.198930 0.098088
vt 0.843299 0.820704
vt 0.354329 0.107754
vt 0.244122 0.157122
vt 0.173293 0.227010
vt 0.791247 0.946646
vt 0.766828 0.884241
vt 0.946818 0.229891
vt 0.846982 0.107702
vt 0.730228 0.149531
vt 0.824148 0.227385
vt 0.729627 0.294374
vt 0.840022 0.341630
vt 0.361649 0.800380
vt 0.341136 0.855143
vt 0.306926 0.905063
vt 0.263514 0.924312
vt 0.163463 0.922380
vt 0.208233 0.922095
vt 0.279997 0.745224
vt 0.262531 0.777879
vt 0.239736 0.806984
vt 0.213702 0.818839
vt 0.150392 0.825414
vt 0.179158 0.822774
vt 0.236678 0.713647
vt 0.219060 0.730684
vt 0.199075 0.745376
vt 0.180302 0.757133
vt 0.138547 0.774152
vt 0.159642 0.767032
vt 0.207235 0.681743
vt 0.178503 0.642534
vt 0.189746 0.692482
vt 0.098697 0.691692
vt 0.115916 0.682202
vt 0.139461 0.725048
vt 0.121544 0.734655
vt 0.130484 0.673111
vt 0.155216 0.713624
vt 0.147672 0.662349
vt 0.172009 0.702337
vt 0.163289 0.652622
vt 0.113254 0.197442
vt 0.897830 0.871341
vt 0.074349 0.287498
vt 0.963535 0.742940
vt 0.975630 0.666292
vt 0.779159 0.395972
vt 0.882728 0.455201
vt 0.953743 0.550025
vt 0.248391 0.607059
vt 0.146582 0.529415
vt 0.082144 0.420720
vn -0.648487 -0.398681 0.648474
vn -0.077261 -0.669460 0.738820
vn -0.291152 -0.345679 0.892041
vn -0.666078 -0.336082 0.665875
vn -0.000000 -0.577426 0.816443
vn -0.000000 -0.363140 0.931735
vn 0.000000 -0.139749 0.990187
vn -0.336135 -0.140176 0.931324
vn -0.700843 -0.131776 0.701038
vn 0.077261 -0.669459 0.738820
vn 0.291152 -0.345679 0.892041
vn 0.648487 -0.398681 0.648474
vn 0.666078 -0.336082 0.665875
vn 0.700843 -0.131776 0.701038
vn 0.336135 -0.140176 0.931324
vn 0.327108 0.178133 0.928046
vn -0.000000 0.189997 0.981785
vn 0.700327 0.179300 0.690936
vn 0.642366 0.400263 0.653572
vn 0.148309 0.683847 0.714393
vn -0.000000 0.629676 0.776858
vn -0.327108 0.178133 0.928046
vn -0.700327 0.179300 0.690936
vn -0.148309 0.683847 0.714393
vn -0.642366 0.400263 0.653571
vn -0.110860 0.988784 0.100084
vn -0.714611 0.678390 0.170641
vn -0.000000 0.999033 0.043963
vn -0.000002 1.000000 -0.000158
vn -0.084863 0.996391 -0.001617
vn -0.757667 0.652641 0.000428
vn 0.110860 0.988784 0.100084
vn 0.714611 0.678390 0.170641
vn 0.757667 0.652641 0.000428
vn 0.084862 0.996391 -0.001613
vn 0.116936 0.990748 -0.068872
vn 0.000004 0.999953 -0.009715
vn 0.717613 0.672485 -0.181093
vn 0.587810 0.391927 -0.707723
vn 0.131753 0.685780 -0.715785
vn -0.000002 0.650602 -0.759419
vn -0.116939 0.990748 -0.068873
vn -0.717613 0.672485 -0.181093
vn -0.131755 0.685778 -0.715786
vn -0.587811 0.391927 -0.707723
vn -0.284852 0.242388 -0.927420
vn -0.688754 0.185847 -0.700771
vn -0.000000 0.287158 -0.957883
vn 0.000000 -0.139749 -0.990187
vn -0.336135 -0.140176 -0.931324
vn -0.700843 -0.131776 -0.701038
vn 0.284852 0.242388 -0.927420
vn 0.688754 0.185847 -0.700771
vn 0.700843 -0.131776 -0.701038
vn 0.336135 -0.140176 -0.931324
vn 0.291152 -0.345679 -0.892041
vn 0.000000 -0.363140 -0.931735
vn 0.666078 -0.336082 -0.665875
vn 0.648487 -0.398681 -0.648474
vn 0.077261 -0.669459 -0.738820
vn -0.000000 -0.577426 -0.816443
vn -0.291152 -0.345679 -0.892041
vn -0.666078 -0.336082 -0.665875
vn -0.077261 -0.669459 -0.738820
vn -0.648487 -0.398681 -0.648474
vn -0.056248 -0.996811 -0.056605
vn -0.738816 -0.669455 -0.077338
vn -0.000000 -0.989405 -0.145181
vn 0.000000 -1.000000 0.000000
vn -0.144934 -0.989441 0.000000
vn -0.816659 -0.577120 0.000000
vn 0.056247 -0.996811 -0.056605
vn 0.738816 -0.669455 -0.077338
vn 0.816659 -0.577120 -0.000000
vn 0.144934 -0.989441 -0.000000
vn 0.056247 -0.996811 0.056605
vn -0.000000 -0.989405 0.145181
vn 0.738816 -0.669455 0.077338
vn -0.056247 -0.996811 0.056605
vn -0.738816 -0.669455 0.077338
vn 0.892323 -0.344725 0.291418
vn 0.932254 -0.361804 -0.000000
vn 0.990376 -0.138405 -0.000000
vn 0.931331 -0.139224 0.336512
vn 0.892323 -0.344725 -0.291418
vn 0.931331 -0.139224 -0.336512
vn 0.926928 0.209741 -0.311148
vn 0.970553 0.240883 0.001249
vn 0.924467 0.216529 0.313809
vn -0.892323 -0.344725 -0.291418
vn -0.932254 -0.361804 0.000000
vn -0.990376 -0.138405 0.000000
vn -0.931331 -0.139224 -0.336512
vn -0.892323 -0.344725 0.291418
vn -0.931331 -0.139224 0.336512
vn -0.924467 0.216529 0.313809
vn -0.970553 0.240883 0.001249
vn -0.926928 0.209741 -0.311148
vn 0.282588 -0.031842 -0.958713
vn -0.780602 -0.033479 -0.624131
vn -0.824822 -0.104107 -0.555725
vn 0.301881 -0.147547 -0.941859
vn -0.780602 -0.033479 0.624131
vn -0.762580 0.023257 0.646476
vn 0.282587 -0.031842 0.958713
vn 0.268842 0.058819 0.961387
vn 0.999685 -0.025091 -0.000000
vn 0.996731 -0.023392 0.077337
vn -0.874644 -0.270477 -0.402294
vn 0.334983 -0.425914 -0.840467
vn -0.765812 0.134008 0.628947
vn 0.272967 0.266360 0.924414
vn 0.986862 -0.027576 0.159193
vn -0.869192 -0.404305 -0.284681
vn 0.324543 -0.666693 -0.670964
vn -0.802278 0.250380 0.541904
vn 0.286847 0.508942 0.811601
vn 0.987826 -0.049442 0.147500
vn -0.907192 -0.283712 -0.310661
vn 0.326584 -0.626269 -0.707906
vn -0.775261 0.445674 0.447600
vn 0.263129 0.684483 0.679887
vn 0.980764 0.142701 0.133184
vn 0.006083 0.418393 -0.908246
s 1
g Apple
usemtl Apple1SG
f 1/1/1 51/2/2 75/3/3 54/4/4
f 51/2/2 15/5/5 52/6/6 75/3/3
f 75/3/3 52/6/6 21/7/7 53/8/8
f 54/4/4 75/3/3 53/8/8 18/9/9
f 15/5/5 55/10/10 76/11/11 52/6/6
f 55/10/10 2/12/12 56/13/13 76/11/11
f 76/11/11 56/13/13 16/14/14 57/15/15
f 52/6/6 76/11/11 57/15/15 21/7/7
f 21/7/7 57/15/15 77/16/16 60/17/17
f 57/15/15 16/14/14 58/18/18 77/16/16
f 77/16/16 58/18/18 4/19/19 59/20/20
f 60/17/17 77/16/16 59/20/20 17/21/21
f 18/9/9 53/8/8 78/22/22 62/23/23
f 53/8/8 21/7/7 60/17/17 78/22/22
f 78/22/22 60/17/17 17/21/21 61/24/24
f 62/23/23 78/22/22 61/24/24 3/25/25
f 3/25/25 61/24/24 79/26/26 65/27/27
f 61/24/24 17/21/21 63/28/28 79/26/26
f 79/26/26 63/28/28 22/144/29 64/145/30
f 65/27/27 79/26/26 64/145/30 9/137/31
f 17/21/21 59/20/20 80/32/32 63/28/28
f 59/20/20 4/19/19 66/33/33 80/32/32
f 80/32/32 66/33/33 19/34/34 67/143/35
f 63/28/28 80/32/32 67/143/35 22/144/29
f 22/29/29 67/35/35 81/36/36 70/37/37
f 67/35/35 19/34/34 68/38/38 81/36/36
f 81/36/36 68/38/38 6/39/39 69/40/40
f 70/37/37 81/36/36 69/40/40 20/41/41
f 9/31/31 64/30/30 82/42/42 72/43/43
f 64/30/30 22/29/29 70/37/37 82/42/42
f 82/42/42 70/37/37 20/41/41 71/44/44
f 72/43/43 82/42/42 71/44/44 5/45/45
f 5/45/45 71/44/44 83/46/46 27/47/47
f 71/44/44 20/41/41 73/48/48 83/46/46
f 83/46/46 73/48/48 23/49/49 74/50/50
f 27/47/47 83/46/46 74/50/50 12/51/51
f 20/41/41 69/40/40 84/52/52 73/48/48
f 69/40/40 6/39/39 28/53/53 84/52/52
f 84/52/52 28/53/53 10/54/54 29/55/55
f 73/48/48 84/52/52 29/55/55 23/49/49
f 23/49/49 29/55/55 85/56/56 32/57/57
f 29/55/55 10/54/54 30/58/58 85/56/56
f 85/56/56 30/58/58 8/59/59 31/60/60
f 32/57/57 85/56/56 31/60/60 11/61/61
f 12/51/51 74/50/50 86/62/62 34/63/63
f 74/50/50 23/49/49 32/57/57 86/62/62
f 86/62/62 32/57/57 11/61/61 33/64/64
f 34/63/63 86/62/62 33/64/64 7/65/65
f 7/65/65 33/64/64 87/66/66 37/67/67
f 33/64/64 11/61/61 35/68/68 87/66/66
f 87/66/66 35/68/68 24/141/69 36/142/70
f 37/67/67 87/66/66 36/142/70 14/139/71
f 11/61/61 31/60/60 88/72/72 35/68/68
f 31/60/60 8/59/59 38/73/73 88/72/72
f 88/72/72 38/73/73 13/74/74 39/140/75
f 35/68/68 88/72/72 39/140/75 24/141/69
f 24/69/69 39/75/75 89/76/76 41/77/77
f 39/75/75 13/74/74 40/78/78 89/76/76
f 89/76/76 40/78/78 2/12/12 55/10/10
f 41/77/77 89/76/76 55/10/10 15/5/5
f 14/71/71 36/70/70 90/79/79 42/80/80
f 36/70/70 24/69/69 41/77/77 90/79/79
f 90/79/79 41/77/77 15/5/5 51/2/2
f 42/80/80 90/79/79 51/2/2 1/1/1
f 2/12/12 40/78/78 91/81/81 56/13/13
f 40/78/78 13/74/74 43/82/82 91/81/81
f 91/81/81 43/82/82 25/83/83 44/84/84
f 56/13/13 91/81/81 44/84/84 16/14/14
f 13/74/74 38/73/73 92/85/85 43/82/82
f 38/73/73 8/59/59 30/58/58 92/85/85
f 92/85/85 30/58/58 10/54/54 45/86/86
f 43/82/82 92/85/85 45/86/86 25/83/83
f 25/83/83 45/86/86 93/87/87 46/88/88
f 45/86/86 10/54/54 28/53/53 93/87/87
f 93/87/87 28/53/53 6/39/39 68/38/38
f 46/88/88 93/87/87 68/38/38 19/34/34
f 16/14/14 44/84/84 94/89/89 58/18/18
f 44/84/84 25/83/83 46/88/88 94/89/89
f 94/89/89 46/88/88 19/34/34 66/33/33
f 58/18/18 94/89/89 66/33/33 4/19/19
f 7/65/65 37/67/67 95/90/90 34/63/63
f 37/67/67 14/139/71 47/138/91 95/90/90
f 95/90/90 47/138/91 26/136/92 48/93/93
f 34/63/63 95/90/90 48/93/93 12/51/51
f 14/71/71 42/80/80 96/94/94 47/91/91
f 42/80/80 1/1/1 54/4/4 96/94/94
f 96/94/94 54/4/4 18/9/9 49/95/95
f 47/91/91 96/94/94 49/95/95 26/92/92
f 26/92/92 49/95/95 97/96/96 50/135/97
f 49/95/95 18/9/9 62/23/23 97/96/96
f 97/96/96 62/23/23 3/25/25 65/27/27
f 50/135/97 97/96/96 65/27/27 9/137/31
f 12/51/51 48/93/93 98/98/98 27/47/47
f 48/93/93 26/136/92 50/97/97 98/98/98
f 98/98/98 50/97/97 9/31/31 72/43/43
f 27/47/47 98/98/98 72/43/43 5/45/45
s 2
f 99/126/99 100/127/100 105/128/101 104/129/102
f 100/127/100 101/130/103 106/131/104 105/128/101
f 101/130/103 102/132/105 107/133/106 106/131/104
f 102/132/105 103/134/107 108/125/108 107/133/106
f 103/134/107 99/124/99 104/123/102 108/125/108
f 104/129/102 105/128/101 110/122/109 109/121/110
f 105/128/101 106/131/104 111/120/111 110/122/109
f 106/131/104 107/133/106 112/119/112 111/120/111
f 107/133/106 108/125/108 113/118/113 112/119/112
f 108/125/108 104/123/102 109/117/110 113/118/113
f 109/121/110 110/122/109 115/116/114 114/115/115
f 110/122/109 111/120/111 116/114/116 115/116/114
f 111/120/111 112/119/112 117/113/117 116/114/116
f 112/119/112 113/118/113 118/112/118 117/113/117
f 113/118/113 109/117/110 114/111/115 118/112/118
f 114/115/115 115/116/114 120/110/119 119/109/120
f 115/116/114 116/114/116 121/108/121 120/110/119
f 116/114/116 117/113/117 122/107/122 121/108/121
f 117/113/117 118/112/118 123/106/123 122/107/122
f 118/112/118 114/111/115 119/105/120 123/106/123
f 119/104/120 120/103/119 124/102/124
f 120/103/119 121/101/121 124/102/124
f 121/101/121 122/100/122 124/102/124
f 122/100/122 123/99/123 124/102/124
f 123/99/123 119/104/120 124/102/124
