# This file uses centimeters as units for non-parametric coordinates.

mtllib Crate.mtl
g default
v 0.351826 0.036295 -0.423869
v 0.471245 0.155713 -0.423869
v -0.460194 0.848315 -0.423869
v -0.340776 0.967733 -0.423869
v -0.460194 0.848315 -0.479807
v -0.340776 0.967733 -0.479807
v 0.351826 0.036295 -0.479807
v 0.471245 0.155713 -0.479807
v -0.446094 0.150054 0.476822
v -0.326676 0.030636 0.476822
v 0.365927 0.962074 0.476822
v 0.485345 0.842656 0.476822
v 0.365927 0.962074 0.420883
v 0.485345 0.842656 0.420883
v -0.446094 0.150054 0.420883
v -0.326676 0.030636 0.420883
v 0.495163 0.036295 -0.337984
v 0.495163 0.155713 -0.457402
v 0.495163 0.848315 0.474036
v 0.495163 0.967733 0.354618
v 0.439224 0.848315 0.474036
v 0.439224 0.967733 0.354618
v 0.439224 0.036295 -0.337984
v 0.439224 0.155713 -0.457402
v -0.402118 0.151458 0.480295
v -0.402118 0.032039 0.360877
v -0.402118 0.963478 -0.331725
v -0.402119 0.844059 -0.451143
v -0.458057 0.963478 -0.331725
v -0.458057 0.844060 -0.451143
v -0.458057 0.151458 0.480295
v -0.458057 0.032039 0.360877
v -0.481908 0.011973 0.500000
v 0.518092 0.011973 0.500000
v -0.481908 1.011973 0.500000
v 0.518092 1.011973 0.500000
v -0.481908 1.011973 -0.500000
v 0.518092 1.011973 -0.500000
v -0.481908 0.011973 -0.500000
v 0.518092 0.011973 -0.500000
v -0.373574 0.120306 0.500000
v 0.409760 0.120306 0.500000
v 0.409760 0.903640 0.500000
v -0.373574 0.903640 0.500000
v -0.373574 1.011973 0.391667
v 0.409760 1.011973 0.391667
v 0.409760 1.011973 -0.391667
v -0.373574 1.011973 -0.391667
v -0.373574 0.903640 -0.500000
v 0.409760 0.903640 -0.500000
v 0.409760 0.120306 -0.500000
v -0.373574 0.120306 -0.500000
v -0.373574 0.011973 -0.391667
v 0.409760 0.011973 -0.391667
v 0.409760 0.011973 0.391667
v -0.373574 0.011973 0.391667
v 0.518092 0.120306 -0.391667
v 0.518092 0.120306 0.391667
v 0.518092 0.903640 -0.391667
v 0.518092 0.903640 0.391667
v -0.481908 0.120306 -0.391667
v -0.481908 0.120306 0.391667
v -0.481908 0.903640 0.391667
v -0.481908 0.903640 -0.391667
v -0.373574 0.120306 0.426482
v 0.409760 0.120306 0.426482
v 0.409760 0.903640 0.426482
v -0.373574 0.903640 0.426482
v -0.373574 0.938455 0.391667
v 0.409760 0.938455 0.391667
v 0.409760 0.938455 -0.391667
v -0.373574 0.938455 -0.391667
v -0.373574 0.903640 -0.426482
v 0.409760 0.903640 -0.426482
v 0.409760 0.120306 -0.426482
v -0.373574 0.120306 -0.426482
v -0.373574 0.085491 -0.391667
v 0.409760 0.085491 -0.391667
v 0.409760 0.085491 0.391667
v -0.373574 0.085491 0.391667
v 0.444574 0.120306 -0.391667
v 0.444574 0.120306 0.391667
v 0.444574 0.903640 -0.391667
v 0.444574 0.903640 0.391667
v -0.408389 0.120306 -0.391667
v -0.408389 0.120306 0.391667
v -0.408389 0.903640 0.391667
v -0.408389 0.903640 -0.391667
vt 0.951734 0.481995
vt 0.891051 0.481995
vt 0.891051 0.069365
vt 0.951734 0.069365
vt 0.870951 0.069365
vt 0.870951 0.481996
vt 0.971834 0.069365
vt 0.971834 0.481996
vt 0.820557 0.919525
vt 0.759874 0.919525
vt 0.759874 0.506894
vt 0.820557 0.506894
vt 0.739775 0.919525
vt 0.739775 0.506894
vt 0.840657 0.919525
vt 0.840657 0.506894
vt 0.818760 0.481996
vt 0.758077 0.481996
vt 0.758077 0.069365
vt 0.818760 0.069365
vt 0.737977 0.481996
vt 0.737977 0.069365
vt 0.838860 0.481996
vt 0.838860 0.069365
vt 0.953530 0.919525
vt 0.892848 0.919525
vt 0.892848 0.506894
vt 0.953530 0.506894
vt 0.872748 0.506894
vt 0.872748 0.919525
vt 0.973630 0.506894
vt 0.973630 0.919525
vt 0.642853 0.058353
vt 0.419229 0.058353
vt 0.419229 0.282042
vt 0.642853 0.282042
vt 0.048639 0.700357
vt 0.301055 0.700357
vt 0.301074 0.043986
vt 0.048658 0.043986
vt 0.063048 0.384981
vt 0.286676 0.384981
vt 0.419227 0.714772
vt 0.286676 0.608669
vt 0.642847 0.714772
vt 0.642847 0.938453
vt 0.642871 0.385016
vt 0.063048 0.608669
vt 0.642871 0.608644
vt 0.419184 0.608644
vt 0.419227 0.938453
vt 0.063006 0.714766
vt 0.286651 0.714766
vt 0.286651 0.938446
vt 0.063006 0.938446
vt 0.063065 0.058390
vt 0.286686 0.058390
vt 0.286686 0.282064
vt 0.334204 0.656163
vt 0.334204 0.329556
vt 0.048648 0.623068
vt 0.301074 0.623068
vt 0.063065 0.282064
vt 0.657250 0.700369
vt 0.334204 0.337485
vt 0.015514 0.985945
vt 0.301074 0.370583
vt 0.419184 0.385016
vt 0.015514 0.656163
vt 0.015514 0.337485
vt 0.015514 0.667263
vt 0.048648 0.370583
vt 0.371690 0.010878
vt 0.015514 0.010878
vt 0.334204 0.010878
vt 0.404823 0.700369
vt 0.334200 0.985945
vt 0.371690 0.329554
vt 0.334200 0.667263
vt 0.404818 0.043968
vt 0.404818 0.296447
vt 0.690382 0.010878
vt 0.015514 0.329556
vt 0.657252 0.296447
vt 0.657250 0.952857
vt 0.690382 0.329554
vt 0.657252 0.043969
vt 0.301055 0.952851
vt 0.048639 0.952851
vt 0.301074 0.296461
vt 0.657270 0.623042
vt 0.657270 0.370616
vt 0.404823 0.952857
vt 0.048658 0.296461
vt 0.404784 0.623042
vt 0.404784 0.370616
vt 0.690380 0.667273
vt 0.690380 0.985951
vt 0.371690 0.667273
vt 0.371690 0.985951
vt 0.690367 0.656172
vt 0.371690 0.656172
vt 0.690367 0.337482
vt 0.371690 0.337482
vn 0.000000 0.000000 -1.000000
vn 0.000000 0.000000 -1.000000
vn 0.000000 0.000000 -1.000000
vn 0.000000 0.000000 -1.000000
vn 0.707107 0.707107 0.000000
vn 0.707107 0.707107 0.000000
vn 0.707107 0.707107 0.000000
vn 0.707107 0.707107 0.000000
vn -0.707107 -0.707107 0.000000
vn -0.707107 -0.707107 0.000000
vn -0.707107 -0.707107 0.000000
vn -0.707107 -0.707107 0.000000
vn 0.000000 0.000000 1.000000
vn 0.000000 0.000000 1.000000
vn 0.000000 0.000000 1.000000
vn 0.000000 0.000000 1.000000
vn 0.707107 -0.707107 0.000000
vn 0.707107 -0.707107 0.000000
vn 0.707107 -0.707107 0.000000
vn 0.707107 -0.707107 0.000000
vn -0.707107 0.707107 0.000000
vn -0.707107 0.707107 0.000000
vn -0.707107 0.707107 0.000000
vn -0.707107 0.707107 0.000000
vn 1.000000 0.000000 0.000000
vn 1.000000 0.000000 0.000000
vn 1.000000 0.000000 0.000000
vn 1.000000 0.000000 0.000000
vn 0.000000 0.707107 -0.707107
vn 0.000000 0.707107 -0.707107
vn 0.000000 0.707107 -0.707107
vn 0.000000 0.707107 -0.707107
vn 0.000000 -0.707107 0.707107
vn 0.000000 -0.707107 0.707107
vn 0.000000 -0.707107 0.707107
vn 0.000000 -0.707107 0.707107
vn -1.000000 0.000000 0.000000
vn -1.000000 0.000000 0.000000
vn -1.000000 0.000000 0.000000
vn -1.000000 0.000000 0.000000
vn -0.000001 -0.707107 -0.707107
vn -0.000001 -0.707107 -0.707107
vn -0.000001 -0.707107 -0.707107
vn -0.000001 -0.707107 -0.707107
vn 0.000001 0.707107 0.707107
vn 0.000001 0.707107 0.707107
vn 0.000001 0.707107 0.707107
vn 0.000001 0.707107 0.707107
vn 0.000000 0.000000 1.000000
vn 0.000000 0.000000 1.000000
vn 0.000000 0.000000 1.000000
vn 0.000000 0.000000 1.000000
vn 0.000000 1.000000 0.000000
vn 0.000000 1.000000 0.000000
vn 0.000000 1.000000 0.000000
vn 0.000000 1.000000 0.000000
vn 0.000000 0.000000 -1.000000
vn 0.000000 0.000000 -1.000000
vn 0.000000 0.000000 -1.000000
vn 0.000000 0.000000 -1.000000
vn 0.000000 -1.000000 0.000000
vn 0.000000 -1.000000 0.000000
vn 0.000000 -1.000000 0.000000
vn 0.000000 -1.000000 0.000000
vn 1.000000 0.000000 0.000000
vn 1.000000 0.000000 0.000000
vn 1.000000 0.000000 0.000000
vn 1.000000 0.000000 0.000000
vn -1.000000 0.000000 0.000000
vn -1.000000 0.000000 0.000000
vn -1.000000 0.000000 0.000000
vn -1.000000 0.000000 0.000000
vn 0.000000 0.000000 1.000000
vn 0.000000 0.000000 1.000000
vn 0.000000 0.000000 1.000000
vn 0.000000 0.000000 1.000000
vn 0.000000 0.000000 1.000000
vn 0.000000 0.000000 1.000000
vn 0.000000 0.000000 1.000000
vn 0.000000 0.000000 1.000000
vn 0.000000 0.000000 1.000000
vn 0.000000 0.000000 1.000000
vn 0.000000 0.000000 1.000000
vn 0.000000 0.000000 1.000000
vn -0.000000 0.000000 1.000000
vn -0.000000 0.000000 1.000000
vn -0.000000 0.000000 1.000000
vn -0.000000 0.000000 1.000000
vn 0.000000 1.000000 0.000000
vn 0.000000 1.000000 0.000000
vn 0.000000 1.000000 0.000000
vn 0.000000 1.000000 0.000000
vn 0.000000 1.000000 0.000000
vn 0.000000 1.000000 -0.000000
vn 0.000000 1.000000 -0.000000
vn 0.000000 1.000000 0.000000
vn 0.000000 1.000000 -0.000000
vn 0.000000 1.000000 -0.000000
vn -0.000000 0.000000 -1.000000
vn 0.000000 0.000000 -1.000000
vn 0.000000 0.000000 -1.000000
vn -0.000000 0.000000 -1.000000
vn 0.000000 0.000000 -1.000000
vn 0.000000 0.000000 -1.000000
vn -0.000000 0.000000 -1.000000
vn -0.000000 0.000000 -1.000000
vn 0.000000 -1.000000 -0.000000
vn 0.000000 -1.000000 -0.000000
vn 0.000000 -1.000000 -0.000000
vn 0.000000 -1.000000 -0.000000
vn 0.000000 -1.000000 -0.000000
vn 0.000000 -1.000000 -0.000000
vn 0.000000 -1.000000 -0.000000
vn 0.000000 -1.000000 -0.000000
vn 1.000000 0.000000 0.000000
vn 1.000000 0.000000 0.000000
vn 1.000000 0.000000 0.000000
vn 1.000000 0.000000 0.000000
vn 1.000000 0.000000 0.000000
vn 1.000000 0.000000 0.000000
vn 1.000000 0.000000 0.000000
vn 1.000000 0.000000 0.000000
vn -1.000000 0.000000 0.000000
vn -1.000000 0.000000 0.000000
vn -1.000000 0.000000 0.000000
vn -1.000000 0.000000 0.000000
vn -1.000000 0.000000 0.000000
vn -1.000000 0.000000 0.000000
vn -1.000000 0.000000 0.000000
vn -1.000000 0.000000 0.000000
vn 0.000000 1.000000 0.000000
vn 0.000000 1.000000 0.000000
vn 0.000000 1.000000 0.000000
vn 0.000000 1.000000 0.000000
vn -1.000000 0.000000 0.000000
vn -1.000000 0.000000 0.000000
vn -1.000000 0.000000 0.000000
vn -1.000000 0.000000 0.000000
vn 0.000000 -1.000000 0.000000
vn 0.000000 -1.000000 0.000000
vn 0.000000 -1.000000 0.000000
vn 0.000000 -1.000000 0.000000
vn 1.000000 0.000000 0.000000
vn 1.000000 0.000000 0.000000
vn 1.000000 0.000000 0.000000
vn 1.000000 0.000000 0.000000
vn 0.000000 0.000000 -1.000000
vn 0.000000 0.000000 -1.000000
vn 0.000000 0.000000 -1.000000
vn 0.000000 0.000000 -1.000000
vn -1.000000 0.000000 0.000000
vn -1.000000 0.000000 0.000000
vn -1.000000 0.000000 0.000000
vn -1.000000 0.000000 0.000000
vn 0.000000 0.000000 1.000000
vn 0.000000 0.000000 1.000000
vn 0.000000 0.000000 1.000000
vn 0.000000 0.000000 1.000000
vn 1.000000 0.000000 0.000000
vn 1.000000 0.000000 0.000000
vn 1.000000 0.000000 0.000000
vn 1.000000 0.000000 0.000000
vn 0.000000 -1.000000 0.000000
vn 0.000000 -1.000000 0.000000
vn 0.000000 -1.000000 0.000000
vn 0.000000 -1.000000 0.000000
vn -1.000000 0.000000 0.000000
vn -1.000000 0.000000 0.000000
vn -1.000000 0.000000 0.000000
vn -1.000000 0.000000 0.000000
vn 0.000000 1.000000 0.000000
vn 0.000000 1.000000 0.000000
vn 0.000000 1.000000 0.000000
vn 0.000000 1.000000 0.000000
vn 1.000000 0.000000 0.000000
vn 1.000000 0.000000 0.000000
vn 1.000000 0.000000 0.000000
vn 1.000000 0.000000 0.000000
vn 0.000000 0.000000 1.000000
vn 0.000000 0.000000 1.000000
vn 0.000000 0.000000 1.000000
vn 0.000000 0.000000 1.000000
vn -1.000000 0.000000 0.000000
vn -1.000000 0.000000 0.000000
vn -1.000000 0.000000 0.000000
vn -1.000000 0.000000 0.000000
vn 0.000000 0.000000 -1.000000
vn 0.000000 0.000000 -1.000000
vn 0.000000 0.000000 -1.000000
vn 0.000000 0.000000 -1.000000
vn 1.000000 0.000000 0.000000
vn 1.000000 0.000000 0.000000
vn 1.000000 0.000000 0.000000
vn 1.000000 0.000000 0.000000
vn 0.000000 1.000000 0.000000
vn 0.000000 1.000000 0.000000
vn 0.000000 1.000000 0.000000
vn 0.000000 1.000000 0.000000
vn 0.000000 0.000000 1.000000
vn 0.000000 0.000000 1.000000
vn 0.000000 0.000000 1.000000
vn 0.000000 0.000000 1.000000
vn 0.000000 -1.000000 0.000000
vn 0.000000 -1.000000 0.000000
vn 0.000000 -1.000000 0.000000
vn 0.000000 -1.000000 0.000000
vn 0.000000 0.000000 -1.000000
vn 0.000000 0.000000 -1.000000
vn 0.000000 0.000000 -1.000000
vn 0.000000 0.000000 -1.000000
vn 0.000000 1.000000 0.000000
vn 0.000000 1.000000 0.000000
vn 0.000000 1.000000 0.000000
vn 0.000000 1.000000 0.000000
vn 0.000000 0.000000 -1.000000
vn 0.000000 0.000000 -1.000000
vn 0.000000 0.000000 -1.000000
vn 0.000000 0.000000 -1.000000
vn 0.000000 -1.000000 0.000000
vn 0.000000 -1.000000 0.000000
vn 0.000000 -1.000000 0.000000
vn 0.000000 -1.000000 0.000000
vn 0.000000 0.000000 1.000000
vn 0.000000 0.000000 1.000000
vn 0.000000 0.000000 1.000000
vn 0.000000 0.000000 1.000000
s off
g Crate
usemtl surfaceShader1SG
f 5/1/1 6/2/2 8/3/3 7/4/4
f 2/5/5 8/3/6 6/2/7 4/6/8
f 7/4/9 1/7/10 3/8/11 5/1/12
f 9/9/13 10/10/14 12/11/15 11/12/16
f 10/10/17 16/13/18 14/14/19 12/11/20
f 15/15/21 9/9/22 11/12/23 13/16/24
f 17/17/25 18/18/26 20/19/27 19/20/28
f 18/18/29 24/21/30 22/22/31 20/19/32
f 23/23/33 17/17/34 19/20/35 21/24/36
f 29/25/37 30/26/38 32/27/39 31/28/40
f 26/29/41 32/27/42 30/26/43 28/30/44
f 31/28/45 25/31/46 27/32/47 29/25/48
f 65/41/49 66/42/50 67/44/51 68/48/52
f 69/43/53 70/45/54 71/46/55 72/51/56
f 73/36/57 74/35/58 75/34/59 76/33/60
f 77/47/61 78/49/62 79/50/63 80/68/64
f 82/52/65 81/53/66 83/54/67 84/55/68
f 85/56/69 86/57/70 87/58/71 88/63/72
f 33/70/73 34/65/74 42/67/75 41/72/76
f 34/65/77 36/59/78 43/62/79 42/67/80
f 36/59/81 35/69/82 44/61/83 43/62/84
f 35/69/85 33/70/86 41/72/87 44/61/88
s 1
f 35/99/89 36/97/90 46/64/91 45/76/92
f 36/97/93 38/98/94 47/85/95 46/64/96
f 38/98/94 37/100/97 48/93/98 47/85/95
f 37/100/97 35/99/89 45/76/92 48/93/98
s 3
f 37/86/99 38/78/100 50/81/101 49/84/102
f 38/78/100 40/73/103 51/80/104 50/81/101
f 40/73/103 39/82/105 52/87/106 51/80/104
f 39/82/105 37/86/99 49/84/102 52/87/106
s 4
f 39/103/107 40/101/108 54/91/109 53/92/110
f 40/101/108 34/102/111 55/95/112 54/91/109
f 34/102/111 33/104/113 56/96/114 55/95/112
f 33/104/113 39/103/107 53/92/110 56/96/114
s 5
f 34/71/115 40/79/116 57/38/117 58/37/118
f 40/79/116 38/77/119 59/88/120 57/38/117
f 38/77/119 36/66/121 60/89/122 59/88/120
f 36/66/121 34/71/115 58/37/118 60/89/122
s 6
f 39/74/123 33/75/124 62/39/125 61/40/126
f 33/75/124 35/60/127 63/90/128 62/39/125
f 35/60/127 37/83/129 64/94/130 63/90/128
f 37/83/129 39/74/123 61/40/126 64/94/130
s off
f 41/72/131 42/67/132 66/42/133 65/41/134
f 42/67/135 43/62/136 67/44/137 66/42/138
f 43/62/139 44/61/140 68/48/141 67/44/142
f 44/61/143 41/72/144 65/41/145 68/48/146
f 45/76/147 46/64/148 70/45/149 69/43/150
f 46/64/151 47/85/152 71/46/153 70/45/154
f 47/85/155 48/93/156 72/51/157 71/46/158
f 48/93/159 45/76/160 69/43/161 72/51/162
f 49/84/163 50/81/164 74/35/165 73/36/166
f 50/81/167 51/80/168 75/34/169 74/35/170
f 51/80/171 52/87/172 76/33/173 75/34/174
f 52/87/175 49/84/176 73/36/177 76/33/178
f 53/92/179 54/91/180 78/49/181 77/47/182
f 54/91/183 55/95/184 79/50/185 78/49/186
f 55/95/187 56/96/188 80/68/189 79/50/190
f 56/96/191 53/92/192 77/47/193 80/68/194
f 58/37/195 57/38/196 81/53/197 82/52/198
f 57/38/199 59/88/200 83/54/201 81/53/202
f 59/88/203 60/89/204 84/55/205 83/54/206
f 60/89/207 58/37/208 82/52/209 84/55/210
f 61/40/211 62/39/212 86/57/213 85/56/214
f 62/39/215 63/90/216 87/58/217 86/57/218
f 63/90/219 64/94/220 88/63/221 87/58/222
f 64/94/223 61/40/224 85/56/225 88/63/226
